{
copyright = "Copyright (c) 2012 by vernon adams. All rights reserved.";
customParameters = (
{
name = openTypeNameDescription;
value = "Copyright (c) 2011 by vernon adams. All rights reserved.";
},
{
name = glyphOrder;
value = (
    ".notdef",
    Eth,
    eth,
    Lslash,
    lslash,
    Scaron,
    scaron,
    Yacute,
    yacute,
    Thorn,
    thorn,
    Zcaron,
    zcaron,
    onehalf,
    onequarter,
    threequarters,
    brokenbar,
    minus,
    multiply,
    space,
    exclam,
    quotedbl,
    numbersign,
    dollar,
    percent,
    ampersand,
    quotesingle,
    parenleft,
    parenright,
    asterisk,
    plus,
    comma,
    hyphen,
    period,
    slash,
    zero,
    one,
    two,
    three,
    four,
    five,
    six,
    seven,
    eight,
    nine,
    colon,
    semicolon,
    less,
    equal,
    greater,
    question,
    at,
    A,
    B,
    C,
    D,
    E,
    F,
    G,
    H,
    I,
    J,
    K,
    L,
    M,
    N,
    O,
    P,
    Q,
    R,
    S,
    T,
    U,
    V,
    W,
    X,
    Y,
    Z,
    bracketleft,
    backslash,
    bracketright,
    asciicircum,
    underscore,
    grave,
    a,
    b,
    c,
    d,
    e,
    f,
    g,
    h,
    i,
    j,
    k,
    l,
    m,
    n,
    o,
    p,
    q,
    r,
    s,
    t,
    u,
    v,
    w,
    x,
    y,
    z,
    braceleft,
    bar,
    braceright,
    asciitilde,
    Adieresis,
    Aring,
    Ccedilla,
    Eacute,
    Ntilde,
    Odieresis,
    Udieresis,
    aacute,
    agrave,
    acircumflex,
    adieresis,
    atilde,
    aring,
    ccedilla,
    eacute,
    egrave,
    ecircumflex,
    edieresis,
    iacute,
    igrave,
    icircumflex,
    idieresis,
    ntilde,
    oacute,
    ograve,
    ocircumflex,
    odieresis,
    otilde,
    uacute,
    ugrave,
    ucircumflex,
    udieresis,
    dagger,
    degree,
    cent,
    sterling,
    section,
    bullet,
    paragraph,
    germandbls,
    registered,
    copyright,
    trademark,
    acute,
    dieresis,

glyphs = (
{
glyphname = Eth;
layers = (
{
layerId = "E08CDE4C-5D6C-43D8-8149-5F9E51F0B944";
name = Bold;
paths = (
{
closed = 1;
nodes = (
"508 1456 LINE SMOOTH",
"1056 1456 OFFCURVE",
"1430 1273 OFFCURVE",
"1430 724 CURVE SMOOTH",
"1430 359 OFFCURVE",
"1234 144 OFFCURVE",
"956 51 CURVE SMOOTH",
"854 17 OFFCURVE",
"739 0 OFFCURVE",
"610 0 CURVE SMOOTH",
"193 0 LINE",
"193 658 LINE",
"-1 658 LINE",
"-1 795 LINE",
"193 795 LINE",
"193 1456 LINE"
);
},
{
closed = 1;
nodes = (
"365 658 LINE",
"365 148 LINE",
"626 148 LINE SMOOTH",
"929 148 OFFCURVE",
"1131 268 OFFCURVE",
"1210 490 CURVE SMOOTH",
"1235 560 OFFCURVE",
"1248 638 OFFCURVE",
"1248 721 CURVE SMOOTH",
"1248 1048 OFFCURVE",
"1107 1218 OFFCURVE",
"840 1278 CURVE SMOOTH",
"750 1298 OFFCURVE",
"647 1308 OFFCURVE",
"529 1308 CURVE SMOOTH",
"365 1308 LINE",
"365 795 LINE",
"571 795 LINE",
"571 658 LINE"
);
}
);
width = 1546;
}
);
unicode = 00D0;
},
{
glyphname = eth;
layers = (
{
layerId = "E08CDE4C-5D6C-43D8-8149-5F9E51F0B944";
name = Bold;
paths = (
{
closed = 1;
nodes = (
"826 1163 LINE",
"766 1271 OFFCURVE",
"684 1344 OFFCURVE",
"574 1406 CURVE",
"653 1490 LINE",
"812 1428 OFFCURVE",
"920 1315 OFFCURVE",
"992.999 1163 CURVE",
"1190 1163 LINE",
"1190 1026 LINE",
"1045 1026 LINE",
"1075 921 OFFCURVE",
"1093 805 OFFCURVE",
"1093 672 CURVE SMOOTH",
"1093 361 OFFCURVE",
"1006 121 OFFCURVE",
"798 22 CURVE SMOOTH",
"734 -8 OFFCURVE",
"662 -23 OFFCURVE",
"581 -23 CURVE SMOOTH",
"347 -23 OFFCURVE",
"189 92.9999 OFFCURVE",
"122 261 CURVE SMOOTH",
"98.9999 318 OFFCURVE",
"88 380 OFFCURVE",
"88 446 CURVE SMOOTH",
"88 662 OFFCURVE",
"199 802 OFFCURVE",
"356 864 CURVE SMOOTH",
"412 886 OFFCURVE",
"475 897 OFFCURVE",
"545 897 CURVE SMOOTH",
"725 897 OFFCURVE",
"846 838 OFFCURVE",
"918 723 CURVE",
"918 733 LINE",
"917 847 OFFCURVE",
"906 937 OFFCURVE",
"882 1026 CURVE",
"620 1026 LINE",
"620 1163 LINE"
);
},
{
closed = 1;
nodes = (
"373 757 OFFCURVE",
"264 638 OFFCURVE",
"264 441 CURVE SMOOTH",
"264 291 OFFCURVE",
"339 188 OFFCURVE",
"446 142 CURVE SMOOTH",
"484 126 OFFCURVE",
"526 118 OFFCURVE",
"573 118 CURVE SMOOTH",
"798 118 OFFCURVE",
"903 290 OFFCURVE",
"903 512 CURVE SMOOTH",
"903 536 LINE",
"859 664 OFFCURVE",
"742 757 OFFCURVE",
"572 757 CURVE SMOOTH"
);
}
);
width = 1190;
}
);
unicode = 00F0;
},
{
glyphname = Lslash;
layers = (
{
layerId = "E08CDE4C-5D6C-43D8-8149-5F9E51F0B944";
name = Bold;
paths = (
{
closed = 1;
nodes = (
"1073 0 LINE",
"202 0 LINE",
"202 605 LINE",
"15 489 LINE",
"15 626 LINE",
"202 742 LINE",
"202 1456 LINE",
"374 1456 LINE",
"374 849 LINE",
"659 1027 LINE",
"659 890 LINE",
"374 712 LINE",
"374 148 LINE",
"1073 148 LINE"
);
}
);
width = 1120;
}
);
unicode = 0141;
},
{
glyphname = lslash;
layers = (
{
layerId = "E08CDE4C-5D6C-43D8-8149-5F9E51F0B944";
name = Bold;
paths = (
{
closed = 1;
nodes = (
"333 1492 LINE",
"333 925 LINE",
"504 1027 LINE",
"504 890 LINE",
"333 788 LINE",
"333 0 LINE",
"168 0 LINE",
"168 689 LINE",
"0 589 LINE",
"0 726 LINE",
"168 826 LINE",
"168 1492 LINE"
);
}
);
width = 503;
}
);
unicode = 0142;
},
{
glyphname = Scaron;
layers = (
{
layerId = "E08CDE4C-5D6C-43D8-8149-5F9E51F0B944";
name = Bold;
paths = (
{
closed = 1;
nodes = (
"137 902 OFFCURVE",
"224 769 OFFCURVE",
"566 671 CURVE SMOOTH",
"911 572 OFFCURVE",
"951 500 OFFCURVE",
"951 401 CURVE SMOOTH",
"951 230 OFFCURVE",
"855 123 OFFCURVE",
"649 123 CURVE SMOOTH",
"503 123 OFFCURVE",
"305 187 OFFCURVE",
"174 289 CURVE",
"146 123 LINE",
"280 35 OFFCURVE",
"486 -22 OFFCURVE",
"664 -22 CURVE SMOOTH",
"989.999 -22 OFFCURVE",
"1135 166 OFFCURVE",
"1135 395 CURVE SMOOTH",
"1135 578 OFFCURVE",
"1052 709 OFFCURVE",
"676 817 CURVE SMOOTH",
"370 905 OFFCURVE",
"318 982.999 OFFCURVE",
"324 1120 CURVE SMOOTH",
"330 1262 OFFCURVE",
"441 1334 OFFCURVE",
"656 1334 CURVE SMOOTH",
"780 1334 OFFCURVE",
"921 1288 OFFCURVE",
"1033 1218 CURVE",
"1085 1359 LINE",
"930 1456 OFFCURVE",
"773 1483 OFFCURVE",
"636 1483 CURVE SMOOTH",
"344 1483 OFFCURVE",
"145 1339 OFFCURVE",
"141 1109 CURVE SMOOTH"
);
},
{
closed = 1;
nodes = (
"956 1923 LINE",
"718 1600 LINE",
"562 1600 LINE",
"323 1923 LINE",
"470 1923 LINE",
"634 1708 LINE",
"802 1923 LINE"
);
}
);
width = 1244;
}
);
unicode = 0160;
},
{
glyphname = scaron;
layers = (
{
layerId = "E08CDE4C-5D6C-43D8-8149-5F9E51F0B944";
name = Bold;
paths = (
{
closed = 1;
nodes = (
"811 1501 LINE",
"573 1178 LINE",
"417 1178 LINE",
"178 1501 LINE",
"325 1501 LINE",
"489 1286 LINE",
"657 1501 LINE"
);
},
{
closed = 1;
nodes = (
"652 361 OFFCURVE",
"601 402 OFFCURVE",
"409 463 CURVE SMOOTH",
"193 532 OFFCURVE",
"108 612 OFFCURVE",
"108 771 CURVE SMOOTH",
"108 946 OFFCURVE",
"240 1048 OFFCURVE",
"451 1048 CURVE SMOOTH",
"577 1048 OFFCURVE",
"702 1008 OFFCURVE",
"775 967 CURVE",
"731 832 LINE",
"673 861 OFFCURVE",
"590 907 OFFCURVE",
"450 907 CURVE SMOOTH",
"334 907 OFFCURVE",
"272 862 OFFCURVE",
"272 774 CURVE SMOOTH",
"272 691 OFFCURVE",
"330 654 OFFCURVE",
"501 596 CURVE SMOOTH",
"724 520 OFFCURVE",
"811 445 OFFCURVE",
"811 284 CURVE SMOOTH",
"811 17 OFFCURVE",
"585 -22 OFFCURVE",
"456 -22 CURVE SMOOTH",
"314 -22 OFFCURVE",
"183 16 OFFCURVE",
"108 71 CURVE",
"128 222 LINE",
"199 160 OFFCURVE",
"320 116 OFFCURVE",
"444 116 CURVE SMOOTH",
"551 116 OFFCURVE",
"652 126 OFFCURVE",
"652 268 CURVE SMOOTH"
);
}
);
width = 907;
}
);
unicode = 0161;
},
{
glyphname = Yacute;
layers = (
{
layerId = "E08CDE4C-5D6C-43D8-8149-5F9E51F0B944";
name = Bold;
paths = (
{
closed = 1;
nodes = (
"543 0 LINE",
"543 582 LINE",
"9.99999 1456 LINE",
"201 1456 LINE",
"632 727 LINE",
"1067 1456 LINE",
"1258 1456 LINE",
"715 585 LINE",
"715 0 LINE"
);
},
{
closed = 1;
nodes = (
"778 1922 LINE",
"989.999 1922 LINE",
"682 1602 LINE",
"552 1602 LINE"
);
}
);
width = 1266;
}
);
unicode = 00DD;
},
{
glyphname = yacute;
layers = (
{
layerId = "E08CDE4C-5D6C-43D8-8149-5F9E51F0B944";
name = Bold;
paths = (
{
closed = 1;
nodes = (
"761 1493 LINE",
"972.999 1493 LINE",
"665 1173 LINE",
"535 1173 LINE"
);
},
{
closed = 1;
nodes = (
"1033 1026 LINE",
"869 1026 LINE",
"869 496 LINE SMOOTH",
"869 308 OFFCURVE",
"756 116 OFFCURVE",
"568 116 CURVE SMOOTH",
"431 116 OFFCURVE",
"318 216 OFFCURVE",
"318 398 CURVE SMOOTH",
"321 644 LINE SMOOTH",
"321 923 OFFCURVE",
"282 1026 OFFCURVE",
"282 1026 CURVE",
"117 999.999 LINE",
"117 999.999 OFFCURVE",
"156 884 OFFCURVE",
"156 627 CURVE SMOOTH",
"153 399 LINE SMOOTH",
"145 172 OFFCURVE",
"286 -22 OFFCURVE",
"543 -22 CURVE SMOOTH",
"646 -22 OFFCURVE",
"799 23 OFFCURVE",
"869 145 CURVE",
"869 46 LINE SMOOTH",
"869 -159 OFFCURVE",
"739 -327 OFFCURVE",
"520 -327 CURVE SMOOTH",
"440 -327 OFFCURVE",
"317 -300 OFFCURVE",
"217 -250 CURVE",
"198 -403 LINE",
"290 -436 OFFCURVE",
"428 -464 OFFCURVE",
"534 -464 CURVE SMOOTH",
"798 -464 OFFCURVE",
"1033 -286 OFFCURVE",
"1033 67 CURVE SMOOTH"
);
}
);
width = 1186;
}
);
unicode = 00FD;
},
{
glyphname = Thorn;
layers = (
{
layerId = "E08CDE4C-5D6C-43D8-8149-5F9E51F0B944";
name = Bold;
paths = (
{
closed = 1;
nodes = (
"544 1312 LINE SMOOTH",
"899 1312 OFFCURVE",
"1200 1231 OFFCURVE",
"1200 876 CURVE SMOOTH",
"1200 714 OFFCURVE",
"1121 611 OFFCURVE",
"1018 546 CURVE SMOOTH",
"913 480 OFFCURVE",
"764 443 OFFCURVE",
"597 443 CURVE SMOOTH",
"375 443 LINE",
"375 0 LINE",
"203 0 LINE",
"203 1456 LINE",
"375 1456 LINE",
"375 1312 LINE"
);
},
{
closed = 1;
nodes = (
"1016 1114 OFFCURVE",
"828 1164 OFFCURVE",
"588 1164 CURVE SMOOTH",
"375 1164 LINE",
"375 592 LINE",
"636 592 LINE SMOOTH",
"802 592 OFFCURVE",
"930 639 OFFCURVE",
"987.999 747 CURVE SMOOTH",
"1007 782 OFFCURVE",
"1016 825 OFFCURVE",
"1016 874 CURVE SMOOTH"
);
}
);
width = 1274;
}
);
unicode = 00DE;
},
{
glyphname = thorn;
layers = (
{
layerId = "E08CDE4C-5D6C-43D8-8149-5F9E51F0B944";
name = Bold;
paths = (
{
closed = 1;
nodes = (
"325 882 LINE",
"399 981.999 OFFCURVE",
"507 1051 OFFCURVE",
"668 1051 CURVE SMOOTH",
"912 1051 OFFCURVE",
"1054 916 OFFCURVE",
"1110 728 CURVE SMOOTH",
"1129 664 OFFCURVE",
"1139 598 OFFCURVE",
"1139 527 CURVE SMOOTH",
"1139 284 OFFCURVE",
"1037 106 OFFCURVE",
"874 22 CURVE SMOOTH",
"815 -8 OFFCURVE",
"747 -23 OFFCURVE",
"668 -23 CURVE SMOOTH",
"524 -23 OFFCURVE",
"409 30 OFFCURVE",
"323 135 CURVE",
"323 -427 LINE",
"158 -427 LINE",
"158 1455 LINE",
"325 1455 LINE"
);
},
{
closed = 1;
nodes = (
"963 745 OFFCURVE",
"875 917 OFFCURVE",
"650 917 CURVE SMOOTH",
"411 917 OFFCURVE",
"323 732 OFFCURVE",
"323 494 CURVE SMOOTH",
"323 321 OFFCURVE",
"389 195 OFFCURVE",
"506 138 CURVE SMOOTH",
"546 119 OFFCURVE",
"592 109 OFFCURVE",
"644 109 CURVE SMOOTH",
"870 109 OFFCURVE",
"963 296 OFFCURVE",
"963 521 CURVE SMOOTH"
);
}
);
width = 1239;
}
);
unicode = 00FE;
},
{
glyphname = Zcaron;
layers = (
{
layerId = "E08CDE4C-5D6C-43D8-8149-5F9E51F0B944";
name = Bold;
paths = (
{
closed = 1;
nodes = (
"1146 0 LINE",
"58 0 LINE",
"58 92 LINE",
"922 1308 LINE",
"90 1308 LINE",
"90 1456 LINE",
"1154 1456 LINE",
"1154 1368 LINE",
"286 148 LINE",
"1146 148 LINE"
);
},
{
closed = 1;
nodes = (
"986.999 1923 LINE",
"749 1600 LINE",
"593 1600 LINE",
"354 1923 LINE",
"501 1923 LINE",
"665 1708 LINE",
"833 1923 LINE"
);
}
);
width = 1222;
}
);
unicode = 017D;
},
{
glyphname = zcaron;
layers = (
{
layerId = "E08CDE4C-5D6C-43D8-8149-5F9E51F0B944";
name = Bold;
paths = (
{
closed = 1;
nodes = (
"826 1496 LINE",
"588 1173 LINE",
"432 1173 LINE",
"193 1496 LINE",
"340 1496 LINE",
"504 1281 LINE",
"672 1496 LINE"
);
},
{
closed = 1;
nodes = (
"80 89 LINE",
"680 891 LINE",
"106 891 LINE",
"106 1026 LINE",
"903 1026 LINE",
"903 939 LINE",
"305 134 LINE",
"920 134 LINE",
"920 0 LINE",
"80 0 LINE"
);
}
);
width = 978;
}
);
unicode = 017E;
},
{
glyphname = onehalf;
layers = (
{
layerId = "E08CDE4C-5D6C-43D8-8149-5F9E51F0B944";
name = Bold;
paths = (
{
closed = 1;
nodes = (
"717 1436 LINE",
"-186 0 LINE",
"-337 0 LINE",
"568 1436 LINE"
);
},
{
closed = 1;
nodes = (
"659 1270 LINE",
"702 1370 OFFCURVE",
"797 1440 OFFCURVE",
"935 1440 CURVE SMOOTH",
"1053 1440 OFFCURVE",
"1139 1388 OFFCURVE",
"1178 1307 CURVE SMOOTH",
"1191 1279 OFFCURVE",
"1198 1248 OFFCURVE",
"1198 1213 CURVE SMOOTH",
"1198 1108 OFFCURVE",
"1146 1033 OFFCURVE",
"1092 967.999 CURVE SMOOTH",
"1018 879 OFFCURVE",
"925 802 OFFCURVE",
"833 722 CURVE",
"1197 722 LINE",
"1197 604 LINE",
"651 604 LINE",
"651 715 LINE",
"757 812 OFFCURVE",
"863 908 OFFCURVE",
"952 1006 CURVE SMOOTH",
"988.999 1047 OFFCURVE",
"1017 1084 OFFCURVE",
"1038 1118 CURVE SMOOTH",
"1059 1152 OFFCURVE",
"1069 1183 OFFCURVE",
"1069 1211 CURVE SMOOTH",
"1069 1286 OFFCURVE",
"1008 1323 OFFCURVE",
"929 1323 CURVE SMOOTH",
"834 1323 OFFCURVE",
"777 1262 OFFCURVE",
"744 1192 CURVE"
);
},
{
closed = 1;
nodes = (
"1950 1008 LINE SMOOTH",
"1950 1067 OFFCURVE",
"1949 1116 OFFCURVE",
"1949 1168 CURVE SMOOTH",
"1949 1271 LINE",
"1905 1248 OFFCURVE",
"1847 1222 OFFCURVE",
"1797 1203 CURVE",
"1798 1333 LINE",
"1865 1354 OFFCURVE",
"1914 1381 OFFCURVE",
"1966 1412 CURVE",
"2071 1427 LINE",
"2071 720 LINE",
"2193 720 LINE",
"2193 604 LINE",
"1828 604 LINE",
"1828 723 LINE",
"1950 723 LINE"
);
}
);
width = 2748;
}
);
unicode = 00BD;
},
{
glyphname = onequarter;
layers = (
{
layerId = "E08CDE4C-5D6C-43D8-8149-5F9E51F0B944";
name = Bold;
paths = (
{
closed = 1;
nodes = (
"717 1436 LINE",
"-186 0 LINE",
"-337 0 LINE",
"568 1436 LINE"
);
},
{
closed = 1;
nodes = (
"760 1008 LINE SMOOTH",
"760 1067 OFFCURVE",
"759 1116 OFFCURVE",
"759 1168 CURVE SMOOTH",
"759 1271 LINE",
"715 1248 OFFCURVE",
"657 1222 OFFCURVE",
"607 1203 CURVE",
"608 1333 LINE",
"675 1354 OFFCURVE",
"724 1381 OFFCURVE",
"776 1412 CURVE",
"881 1427 LINE",
"881 720 LINE",
"1003 720 LINE",
"1003 604 LINE",
"638 604 LINE",
"638 723 LINE",
"760 723 LINE"
);
},
{
closed = 1;
nodes = (
"1914 615 LINE",
"1914 803 LINE",
"1536 803 LINE",
"1536 894 LINE",
"1902 1412 LINE",
"2036 1412 LINE",
"2036 910 LINE",
"2145 910 LINE",
"2155 803 LINE",
"2034 803 LINE",
"2034 615 LINE"
);
},
{
closed = 1;
nodes = (
"1914 910 LINE",
"1914 1244 LINE",
"1675 910 LINE"
);
}
);
width = 2455;
}
);
unicode = 00BC;
},
{
glyphname = threequarters;
layers = (
{
layerId = "E08CDE4C-5D6C-43D8-8149-5F9E51F0B944";
name = Bold;
paths = (
{
closed = 1;
nodes = (
"717 1436 LINE",
"-186 0 LINE",
"-337 0 LINE",
"568 1436 LINE"
);
},
{
closed = 1;
nodes = (
"771 1322 OFFCURVE",
"710 1284 OFFCURVE",
"661 1244 CURVE",
"603 1340 LINE",
"658 1394 OFFCURVE",
"751 1441 OFFCURVE",
"855 1441 CURVE SMOOTH",
"973.999 1441 OFFCURVE",
"1062 1388 OFFCURVE",
"1104 1310 CURVE SMOOTH",
"1119 1282 OFFCURVE",
"1127 1250 OFFCURVE",
"1127 1213 CURVE SMOOTH",
"1127 1124 OFFCURVE",
"1082 1065 OFFCURVE",
"1020 1032 CURVE",
"1094 998.999 OFFCURVE",
"1148 937 OFFCURVE",
"1148 834 CURVE SMOOTH",
"1148 708 OFFCURVE",
"1062 634 OFFCURVE",
"964 603 CURVE SMOOTH",
"928 592 OFFCURVE",
"889 586 OFFCURVE",
"849 586 CURVE SMOOTH",
"742 586 OFFCURVE",
"660 626 OFFCURVE",
"603 683 CURVE",
"663 779 LINE",
"719 727 OFFCURVE",
"779 701 OFFCURVE",
"844 701 CURVE SMOOTH",
"938 701 OFFCURVE",
"1019 745 OFFCURVE",
"1019 837 CURVE SMOOTH",
"1019 948 OFFCURVE",
"917 970.999 OFFCURVE",
"804 970.999 CURVE SMOOTH",
"797 970.999 OFFCURVE",
"783 969.999 OFFCURVE",
"774 969.999 CURVE SMOOTH",
"748 969.999 LINE",
"748 1089 LINE",
"797 1089 LINE SMOOTH",
"898 1089 OFFCURVE",
"993.999 1110 OFFCURVE",
"993.999 1210 CURVE SMOOTH",
"993.999 1291 OFFCURVE",
"934 1322 OFFCURVE",
"853 1322 CURVE SMOOTH"
);
},
{
closed = 1;
nodes = (
"1914 615 LINE",
"1914 803 LINE",
"1536 803 LINE",
"1536 894 LINE",
"1902 1412 LINE",
"2036 1412 LINE",
"2036 910 LINE",
"2145 910 LINE",
"2155 803 LINE",
"2034 803 LINE",
"2034 615 LINE"
);
},
{
closed = 1;
nodes = (
"1914 910 LINE",
"1914 1244 LINE",
"1675 910 LINE"
);
}
);
width = 2455;
}
);
unicode = 00BE;
},
{
glyphname = brokenbar;
layers = (
{
layerId = "E08CDE4C-5D6C-43D8-8149-5F9E51F0B944";
name = Bold;
paths = (
{
closed = 1;
nodes = (
"168 -491 LINE",
"168 393 LINE",
"325 393 LINE",
"325 -491 LINE"
);
},
{
closed = 1;
nodes = (
"168 677 LINE",
"168 1545 LINE",
"325 1545 LINE",
"325 677 LINE"
);
}
);
width = 500;
}
);
unicode = 00A6;
},
{
glyphname = minus;
layers = (
{
layerId = "E08CDE4C-5D6C-43D8-8149-5F9E51F0B944";
name = Bold;
paths = (
{
closed = 1;
nodes = (
"1247 633 LINE",
"1247 496 LINE",
"198 496 LINE",
"198 633 LINE"
);
}
);
width = 1458;
}
);
unicode = 2212;
},
{
glyphname = multiply;
layers = (
{
layerId = "E08CDE4C-5D6C-43D8-8149-5F9E51F0B944";
name = Bold;
paths = (
{
closed = 1;
nodes = (
"825 554 LINE",
"1122 258 LINE",
"1018 154 LINE",
"722 450 LINE",
"425 154 LINE",
"322 257 LINE",
"618 554 LINE",
"322 851 LINE",
"425 954 LINE",
"722 657 LINE",
"1018 954 LINE",
"1122 850 LINE"
);
}
);
width = 1458;
}
);
unicode = 00D7;
},
{
glyphname = exclam;
layers = (
{
layerId = "E08CDE4C-5D6C-43D8-8149-5F9E51F0B944";
name = Bold;
paths = (
{
closed = 1;
nodes = (
"391 373 LINE",
"305 373 LINE",
"254 1451 LINE",
"441 1451 LINE"
);
},
{
closed = 1;
nodes = (
"239 176 OFFCURVE",
"296 217 OFFCURVE",
"353 217 CURVE SMOOTH",
"426 217 OFFCURVE",
"466 165 OFFCURVE",
"466 105 CURVE SMOOTH",
"466 35 OFFCURVE",
"409 -6 OFFCURVE",
"352 -6 CURVE SMOOTH",
"279 -6 OFFCURVE",
"239 46 OFFCURVE",
"239 106 CURVE SMOOTH"
);
}
);
width = 737;
}
);
unicode = 0021;
},
{
glyphname = quotedbl;
layers = (
{
layerId = "E08CDE4C-5D6C-43D8-8149-5F9E51F0B944";
name = Bold;
paths = (
{
closed = 1;
nodes = (
"439 988.999 LINE",
"403 1451 LINE",
"569 1451 LINE",
"569 988.999 LINE"
);
},
{
closed = 1;
nodes = (
"150 988.999 LINE",
"114 1451 LINE",
"281 1451 LINE",
"281 988.999 LINE"
);
}
);
width = 720;
}
);
unicode = 0022;
},
{
glyphname = numbersign;
layers = (
{
layerId = "E08CDE4C-5D6C-43D8-8149-5F9E51F0B944";
name = Bold;
paths = (
{
closed = 1;
nodes = (
"1184 1010 LINE",
"1170 886 LINE",
"920 886 LINE",
"869 611 LINE",
"1121 611 LINE",
"1107 485 LINE",
"847 485 LINE",
"764 60 LINE",
"619 60 LINE",
"699 485 LINE",
"438 485 LINE",
"356 60 LINE",
"210 60 LINE",
"294 485 LINE",
"42 485 LINE",
"53 611 LINE",
"318 611 LINE",
"334 705 OFFCURVE",
"351 793 OFFCURVE",
"368 886 CURVE",
"107 886 LINE",
"120 1010 LINE",
"390 1010 LINE",
"469 1420 LINE",
"615 1420 LINE",
"538 1010 LINE",
"799 1010 LINE",
"875 1420 LINE",
"1021 1420 LINE",
"943 1010 LINE"
);
},
{
closed = 1;
nodes = (
"775 886 LINE",
"514 886 LINE",
"460 611 LINE",
"724 611 LINE"
);
}
);
width = 1242;
}
);
unicode = 0023;
},
{
glyphname = dollar;
layers = (
{
layerId = "E08CDE4C-5D6C-43D8-8149-5F9E51F0B944";
name = Bold;
paths = (
{
closed = 1;
nodes = (
"534 1293 LINE",
"414 1278 OFFCURVE",
"326 1193 OFFCURVE",
"326 1059 CURVE SMOOTH",
"326 913 OFFCURVE",
"425 858 OFFCURVE",
"532 818 CURVE"
);
},
{
closed = 1;
nodes = (
"251 223 LINE",
"325 173 OFFCURVE",
"421 132 OFFCURVE",
"531 127 CURVE",
"534 648 LINE",
"390 712 OFFCURVE",
"240 772 OFFCURVE",
"169 904 CURVE SMOOTH",
"148 944 OFFCURVE",
"137 990.999 OFFCURVE",
"137 1047 CURVE SMOOTH",
"137 1164 OFFCURVE",
"195 1254 OFFCURVE",
"259 1315 CURVE SMOOTH",
"325 1377 OFFCURVE",
"421 1428 OFFCURVE",
"534 1437 CURVE",
"530 1575 LINE",
"654 1575 LINE",
"657 1439 LINE",
"798 1436 OFFCURVE",
"917 1394 OFFCURVE",
"996.999 1326 CURVE",
"948 1198 LINE",
"878 1261 OFFCURVE",
"781 1295 OFFCURVE",
"658 1299 CURVE",
"656 770 LINE",
"779 722 OFFCURVE",
"888 677 OFFCURVE",
"971.999 604 CURVE SMOOTH",
"1038 547 OFFCURVE",
"1080 477 OFFCURVE",
"1080 361 CURVE SMOOTH",
"1080 177 OFFCURVE",
"957 74 OFFCURVE",
"819 24 CURVE SMOOTH",
"768 5 OFFCURVE",
"713 -6 OFFCURVE",
"656 -11 CURVE",
"659 -172 LINE",
"536 -172 LINE",
"532 -16 LINE",
"393 -13 OFFCURVE",
"291 25 OFFCURVE",
"202 89 CURVE"
);
},
{
closed = 1;
nodes = (
"654 131 LINE",
"758 145 OFFCURVE",
"841 192 OFFCURVE",
"881 270 CURVE SMOOTH",
"894 296 OFFCURVE",
"901 325 OFFCURVE",
"901 358 CURVE SMOOTH",
"901 507 OFFCURVE",
"765 559 OFFCURVE",
"658 605 CURVE"
);
}
);
width = 1190;
}
);
unicode = 0024;
},
{
glyphname = percent;
layers = (
{
layerId = "E08CDE4C-5D6C-43D8-8149-5F9E51F0B944";
name = Bold;
paths = (
{
closed = 1;
nodes = (
"1662 504 OFFCURVE",
"1600 622 OFFCURVE",
"1454 622 CURVE SMOOTH",
"1306 622 OFFCURVE",
"1241 497 OFFCURVE",
"1241 350 CURVE SMOOTH",
"1241 234 OFFCURVE",
"1281 148 OFFCURVE",
"1358 107 CURVE SMOOTH",
"1384 92.9999 OFFCURVE",
"1416 86 OFFCURVE",
"1452 86 CURVE SMOOTH",
"1599 86 OFFCURVE",
"1662 211 OFFCURVE",
"1662 357 CURVE SMOOTH"
);
},
{
closed = 1;
nodes = (
"1682 735 OFFCURVE",
"1806 582 OFFCURVE",
"1806 356 CURVE SMOOTH",
"1806 180 OFFCURVE",
"1720 59 OFFCURVE",
"1597 3 CURVE SMOOTH",
"1553 -17 OFFCURVE",
"1504 -27 OFFCURVE",
"1449 -27 CURVE SMOOTH",
"1273 -27 OFFCURVE",
"1167 70 OFFCURVE",
"1121 202 CURVE SMOOTH",
"1105 248 OFFCURVE",
"1097 298 OFFCURVE",
"1097 351 CURVE SMOOTH",
"1097 528 OFFCURVE",
"1182 649 OFFCURVE",
"1306 705 CURVE SMOOTH",
"1350 725 OFFCURVE",
"1400 735 OFFCURVE",
"1455 735 CURVE SMOOTH"
);
},
{
closed = 1;
nodes = (
"753 1447 OFFCURVE",
"877 1294 OFFCURVE",
"877 1068 CURVE SMOOTH",
"877 892 OFFCURVE",
"791 772 OFFCURVE",
"668 716 CURVE SMOOTH",
"624 696 OFFCURVE",
"575 686 OFFCURVE",
"520 686 CURVE SMOOTH",
"344 686 OFFCURVE",
"237 783 OFFCURVE",
"192 915 CURVE SMOOTH",
"176 961 OFFCURVE",
"168 1011 OFFCURVE",
"168 1064 CURVE SMOOTH",
"168 1240 OFFCURVE",
"253 1363 OFFCURVE",
"377 1418 CURVE SMOOTH",
"421 1438 OFFCURVE",
"471 1447 OFFCURVE",
"526 1447 CURVE SMOOTH"
);
},
{
closed = 1;
nodes = (
"1344 1436 LINE",
"1499 1436 LINE",
"594 -5 LINE",
"440 -5 LINE"
);
},
{
closed = 1;
nodes = (
"312 917 OFFCURVE",
"376 799 OFFCURVE",
"524 799 CURVE SMOOTH",
"670 799 OFFCURVE",
"734 923 OFFCURVE",
"734 1069 CURVE SMOOTH",
"734 1186 OFFCURVE",
"695 1273 OFFCURVE",
"618 1314 CURVE SMOOTH",
"592 1328 OFFCURVE",
"560 1335 OFFCURVE",
"525 1335 CURVE SMOOTH",
"377 1335 OFFCURVE",
"312 1212 OFFCURVE",
"312 1065 CURVE SMOOTH"
);
}
);
width = 1985;
}
);
unicode = 0025;
},
{
glyphname = ampersand;
layers = (
{
layerId = "E08CDE4C-5D6C-43D8-8149-5F9E51F0B944";
name = Bold;
paths = (
{
closed = 1;
nodes = (
"1047 70 OFFCURVE",
"894 -27 OFFCURVE",
"661 -27 CURVE SMOOTH",
"421 -27 OFFCURVE",
"239 62 OFFCURVE",
"156 220 CURVE SMOOTH",
"128 273 OFFCURVE",
"115 334 OFFCURVE",
"115 402 CURVE SMOOTH",
"115 523 OFFCURVE",
"169 607 OFFCURVE",
"233 672 CURVE SMOOTH",
"304 744 OFFCURVE",
"400 802 OFFCURVE",
"494 852 CURVE",
"425 921 OFFCURVE",
"351 987.999 OFFCURVE",
"315 1086 CURVE SMOOTH",
"304 1115 OFFCURVE",
"299 1147 OFFCURVE",
"299 1182 CURVE SMOOTH",
"299 1381 OFFCURVE",
"462 1473 OFFCURVE",
"661 1473 CURVE SMOOTH",
"820 1473 OFFCURVE",
"943 1414 OFFCURVE",
"1004 1314 CURVE SMOOTH",
"1026 1278 OFFCURVE",
"1036 1237 OFFCURVE",
"1036 1188 CURVE SMOOTH",
"1036 1096 OFFCURVE",
"989.999 1029 OFFCURVE",
"942 976.999 CURVE SMOOTH",
"885 915 OFFCURVE",
"807 864 OFFCURVE",
"729 822 CURVE",
"1144 398 LINE",
"1211 493 OFFCURVE",
"1262 618 OFFCURVE",
"1285 756 CURVE SMOOTH",
"1292 800 OFFCURVE",
"1296 842 OFFCURVE",
"1296 884 CURVE",
"1463 863 LINE",
"1454 625 OFFCURVE",
"1371 427 OFFCURVE",
"1260 284 CURVE",
"1334 208 OFFCURVE",
"1399 150 OFFCURVE",
"1508 114 CURVE SMOOTH",
"1539 104 OFFCURVE",
"1576 94.9999 OFFCURVE",
"1618 86 CURVE",
"1486 -12 LINE",
"1338 9.99999 OFFCURVE",
"1256 99.9999 OFFCURVE",
"1166 186 CURVE"
);
},
{
closed = 1;
nodes = (
"1056 291 OFFCURVE",
"1048 298 OFFCURVE",
"1034 311 CURVE SMOOTH",
"967 375 OFFCURVE",
"892 454 OFFCURVE",
"823 523 CURVE SMOOTH",
"594 750 LINE",
"485 694 OFFCURVE",
"374 632 OFFCURVE",
"320 522 CURVE SMOOTH",
"303 488 OFFCURVE",
"295 449 OFFCURVE",
"295 406 CURVE SMOOTH",
"295 259 OFFCURVE",
"398 176 OFFCURVE",
"512 138 CURVE SMOOTH",
"556 123 OFFCURVE",
"605 116 OFFCURVE",
"658 116 CURVE SMOOTH",
"848 116 OFFCURVE",
"961 197 OFFCURVE",
"1058 291 CURVE"
);
},
{
closed = 1;
nodes = (
"559 1340 OFFCURVE",
"472 1288 OFFCURVE",
"472 1178 CURVE SMOOTH",
"472 1087 OFFCURVE",
"517 1028 OFFCURVE",
"563 978.999 CURVE SMOOTH",
"582 959 OFFCURVE",
"602 939 OFFCURVE",
"625 918 CURVE",
"710 963 OFFCURVE",
"799 1017 OFFCURVE",
"844 1099 CURVE SMOOTH",
"858 1124 OFFCURVE",
"865 1150 OFFCURVE",
"865 1178 CURVE SMOOTH",
"865 1287 OFFCURVE",
"777 1340 OFFCURVE",
"669 1340 CURVE SMOOTH"
);
}
);
width = 1647;
}
);
unicode = 0026;
},
{
glyphname = quotesingle;
layers = (
{
layerId = "E08CDE4C-5D6C-43D8-8149-5F9E51F0B944";
name = Bold;
paths = (
{
closed = 1;
nodes = (
"212 988.999 LINE",
"176 1451 LINE",
"342 1451 LINE",
"342 988.999 LINE"
);
}
);
width = 554;
}
);
unicode = 0027;
},
{
glyphname = parenleft;
layers = (
{
layerId = "E08CDE4C-5D6C-43D8-8149-5F9E51F0B944";
name = Bold;
paths = (
{
closed = 1;
nodes = (
"578 1451 LINE",
"429 1214 OFFCURVE",
"316 944 OFFCURVE",
"316 590 CURVE SMOOTH",
"316 336 OFFCURVE",
"386 121 OFFCURVE",
"470 -60 CURVE SMOOTH",
"502 -130 OFFCURVE",
"539 -196 OFFCURVE",
"579 -259 CURVE",
"433 -259 LINE",
"319 -84 OFFCURVE",
"222 120 OFFCURVE",
"175 359 CURVE SMOOTH",
"160 434 OFFCURVE",
"153 510 OFFCURVE",
"153 587 CURVE SMOOTH",
"153 855 OFFCURVE",
"225 1066 OFFCURVE",
"316 1250 CURVE SMOOTH",
"350 1318 OFFCURVE",
"388 1385 OFFCURVE",
"430 1451 CURVE"
);
}
);
width = 628;
}
);
unicode = 0028;
},
{
glyphname = parenright;
layers = (
{
layerId = "E08CDE4C-5D6C-43D8-8149-5F9E51F0B944";
name = Bold;
paths = (
{
closed = 1;
nodes = (
"56 -259 LINE",
"167 -82 OFFCURVE",
"256 124 OFFCURVE",
"296 368 CURVE SMOOTH",
"309 445 OFFCURVE",
"315 524 OFFCURVE",
"315 604 CURVE SMOOTH",
"315 854 OFFCURVE",
"246 1065 OFFCURVE",
"164 1245 CURVE SMOOTH",
"131 1316 OFFCURVE",
"93.9999 1385 OFFCURVE",
"52 1451 CURVE",
"199 1451 LINE",
"313 1272 OFFCURVE",
"412 1069 OFFCURVE",
"458 826 CURVE SMOOTH",
"472 751 OFFCURVE",
"479 675 OFFCURVE",
"479 598 CURVE SMOOTH",
"479 234 OFFCURVE",
"349 -32 OFFCURVE",
"205 -259 CURVE"
);
}
);
width = 628;
}
);
unicode = 0029;
},
{
glyphname = asterisk;
layers = (
{
layerId = "E08CDE4C-5D6C-43D8-8149-5F9E51F0B944";
name = Bold;
paths = (
{
closed = 1;
nodes = (
"581 1153 LINE",
"816 1274 LINE",
"880 1149 LINE",
"617 1061 LINE",
"818 810 LINE",
"692 737 LINE",
"534 1003 LINE",
"381 745 LINE",
"257 820 LINE",
"448 1058 LINE",
"175 1136 LINE",
"196 1271 LINE",
"480 1148 LINE",
"467 1248 OFFCURVE",
"452 1351 OFFCURVE",
"439 1451 CURVE",
"581 1451 LINE"
);
}
);
width = 1065;
}
);
unicode = 002A;
},
{
glyphname = plus;
layers = (
{
layerId = "E08CDE4C-5D6C-43D8-8149-5F9E51F0B944";
name = Bold;
paths = (
{
closed = 1;
nodes = (
"649 624 LINE",
"649 1047 LINE",
"797 1047 LINE",
"797 624 LINE",
"1246 624 LINE",
"1246 485 LINE",
"795 485 LINE",
"795 62 LINE",
"646 62 LINE",
"646 485 LINE",
"198 485 LINE",
"198 624 LINE"
);
}
);
width = 1458;
}
);
unicode = 002B;
},
{
glyphname = comma;
layers = (
{
layerId = "E08CDE4C-5D6C-43D8-8149-5F9E51F0B944";
name = Bold;
paths = (
{
closed = 1;
nodes = (
"185 207 LINE",
"372 207 LINE",
"209 -256 LINE",
"78 -256 LINE"
);
}
);
width = 540;
}
);
unicode = 002C;
},
{
glyphname = hyphen;
layers = (
{
layerId = "E08CDE4C-5D6C-43D8-8149-5F9E51F0B944";
name = Bold;
paths = (
{
closed = 1;
nodes = (
"79 489 LINE",
"79 626 LINE",
"651 626 LINE",
"651 489 LINE"
);
}
);
width = 728;
}
);
unicode = 002D;
},
{
glyphname = period;
layers = (
{
layerId = "E08CDE4C-5D6C-43D8-8149-5F9E51F0B944";
name = Bold;
paths = (
{
closed = 1;
nodes = (
"144 172 OFFCURVE",
"198 211 OFFCURVE",
"252 211 CURVE SMOOTH",
"321 211 OFFCURVE",
"359 162 OFFCURVE",
"359 105 CURVE SMOOTH",
"359 39 OFFCURVE",
"305 0 OFFCURVE",
"251 0 CURVE SMOOTH",
"182 0 OFFCURVE",
"144 49 OFFCURVE",
"144 106 CURVE SMOOTH"
);
}
);
width = 540;
}
);
unicode = 002E;
},
{
glyphname = slash;
layers = (
{
layerId = "E08CDE4C-5D6C-43D8-8149-5F9E51F0B944";
name = Bold;
paths = (
{
closed = 1;
nodes = (
"-47 -215 LINE",
"590 1451 LINE",
"757 1451 LINE",
"116 -215 LINE"
);
}
);
width = 717;
}
);
unicode = 002F;
},
{
glyphname = zero;
layers = (
{
layerId = "E08CDE4C-5D6C-43D8-8149-5F9E51F0B944";
name = Bold;
paths = (
{
closed = 1;
nodes = (
"1012 1453 OFFCURVE",
"1115 1117 OFFCURVE",
"1115 710 CURVE SMOOTH",
"1115 325 OFFCURVE",
"985.999 -23 OFFCURVE",
"607 -23 CURVE SMOOTH",
"219 -23 OFFCURVE",
"104 319 OFFCURVE",
"104 710 CURVE SMOOTH",
"104 1103 OFFCURVE",
"222 1453 OFFCURVE",
"607 1453 CURVE SMOOTH"
);
},
{
closed = 1;
nodes = (
"341 1312 OFFCURVE",
"282 983.999 OFFCURVE",
"282 710 CURVE SMOOTH",
"282 423 OFFCURVE",
"323 119 OFFCURVE",
"607 119 CURVE SMOOTH",
"868 119 OFFCURVE",
"931 440 OFFCURVE",
"931 710 CURVE SMOOTH",
"931 995.999 OFFCURVE",
"890 1312 OFFCURVE",
"607 1312 CURVE SMOOTH"
);
}
);
width = 1219;
}
);
unicode = 0030;
},
{
glyphname = one;
layers = (
{
layerId = "E08CDE4C-5D6C-43D8-8149-5F9E51F0B944";
name = Bold;
paths = (
{
closed = 1;
nodes = (
"253 1259 LINE",
"369 1312 OFFCURVE",
"491 1385 OFFCURVE",
"559 1436 CURVE",
"724 1438 LINE",
"724 0 LINE",
"552 0 LINE",
"552 1270 LINE",
"486 1220 OFFCURVE",
"400 1172 OFFCURVE",
"294 1128 CURVE"
);
}
);
width = 1190;
}
);
unicode = 0031;
},
{
glyphname = two;
layers = (
{
layerId = "E08CDE4C-5D6C-43D8-8149-5F9E51F0B944";
name = Bold;
paths = (
{
closed = 1;
nodes = (
"395 1307 OFFCURVE",
"285 1204 OFFCURVE",
"230 1078 CURVE",
"133 1175 LINE",
"195 1342 OFFCURVE",
"357 1448 OFFCURVE",
"584 1448 CURVE SMOOTH",
"832 1448 OFFCURVE",
"1032 1323 OFFCURVE",
"1032 1078 CURVE SMOOTH",
"1032 806 OFFCURVE",
"773 590 OFFCURVE",
"623 442 CURVE SMOOTH",
"521 341 OFFCURVE",
"407 239 OFFCURVE",
"305 145 CURVE",
"1035 145 LINE",
"1035 0 LINE",
"98.9999 0 LINE",
"97.9999 147 LINE",
"255 297 OFFCURVE",
"432 456 OFFCURVE",
"583 616 CURVE SMOOTH",
"687 726 OFFCURVE",
"857 885 OFFCURVE",
"857 1071 CURVE SMOOTH",
"857 1228 OFFCURVE",
"731 1307 OFFCURVE",
"573 1307 CURVE SMOOTH"
);
}
);
width = 1248;
}
);
unicode = 0032;
},
{
glyphname = three;
layers = (
{
layerId = "E08CDE4C-5D6C-43D8-8149-5F9E51F0B944";
name = Bold;
paths = (
{
closed = 1;
nodes = (
"462 672 LINE",
"385 670 LINE",
"383 813 LINE",
"446 813 LINE SMOOTH",
"664 813 OFFCURVE",
"826 869 OFFCURVE",
"826 1085 CURVE SMOOTH",
"826 1243 OFFCURVE",
"703 1306 OFFCURVE",
"544 1306 CURVE SMOOTH",
"384 1306 OFFCURVE",
"283 1236 OFFCURVE",
"219 1128 CURVE",
"121 1217 LINE",
"181 1364 OFFCURVE",
"345 1449 OFFCURVE",
"550 1449 CURVE SMOOTH",
"793 1449 OFFCURVE",
"1010 1327 OFFCURVE",
"1010 1086 CURVE SMOOTH",
"1010 889 OFFCURVE",
"876 790 OFFCURVE",
"721 746 CURVE",
"900 710 OFFCURVE",
"1049 605 OFFCURVE",
"1049 392 CURVE SMOOTH",
"1049 116 OFFCURVE",
"796 -22 OFFCURVE",
"519 -22 CURVE SMOOTH",
"314 -22 OFFCURVE",
"145 56 OFFCURVE",
"108 224 CURVE",
"191 325 LINE",
"239 200 OFFCURVE",
"357 120 OFFCURVE",
"528 120 CURVE SMOOTH",
"714 120 OFFCURVE",
"871 211 OFFCURVE",
"871 395 CURVE SMOOTH",
"871 616 OFFCURVE",
"686 679 OFFCURVE",
"462 673 CURVE"
);
}
);
width = 1190;
}
);
unicode = 0033;
},
{
glyphname = four;
layers = (
{
layerId = "E08CDE4C-5D6C-43D8-8149-5F9E51F0B944";
name = Bold;
paths = (
{
closed = 1;
nodes = (
"726 0 LINE",
"726 351 LINE",
"25 351 LINE",
"25 475 LINE",
"690 1420 LINE",
"898 1420 LINE",
"898 483 LINE",
"1112 483 LINE",
"1112 351 LINE",
"898 351 LINE",
"898 0 LINE"
);
},
{
closed = 1;
nodes = (
"726 483 LINE",
"726 1292 LINE",
"638 1146 LINE",
"196 483 LINE"
);
}
);
width = 1189;
}
);
unicode = 0034;
},
{
glyphname = five;
layers = (
{
layerId = "E08CDE4C-5D6C-43D8-8149-5F9E51F0B944";
name = Bold;
paths = (
{
closed = 1;
nodes = (
"352 839 LINE",
"421 879 OFFCURVE",
"496 905 OFFCURVE",
"599 905 CURVE SMOOTH",
"824 905 OFFCURVE",
"971.999 793 OFFCURVE",
"1036 630 CURVE SMOOTH",
"1058 574 OFFCURVE",
"1068 514 OFFCURVE",
"1068 449 CURVE SMOOTH",
"1068 220 OFFCURVE",
"936 78 OFFCURVE",
"766 14 CURVE SMOOTH",
"702 -10 OFFCURVE",
"629 -23 OFFCURVE",
"548 -23 CURVE SMOOTH",
"357 -23 OFFCURVE",
"223 55 OFFCURVE",
"147 173 CURVE",
"228 289 LINE",
"295 190 OFFCURVE",
"396 119 OFFCURVE",
"546 119 CURVE SMOOTH",
"713 119 OFFCURVE",
"823 202 OFFCURVE",
"868 324 CURVE SMOOTH",
"883 364 OFFCURVE",
"891 407 OFFCURVE",
"891 452 CURVE SMOOTH",
"891 595 OFFCURVE",
"823 690 OFFCURVE",
"721 734 CURVE SMOOTH",
"684 750 OFFCURVE",
"641 758 OFFCURVE",
"593 758 CURVE SMOOTH",
"495 758 OFFCURVE",
"419 718 OFFCURVE",
"379 658 CURVE",
"203 652 LINE",
"203 1425 LINE",
"993.999 1425 LINE",
"993.999 1280 LINE",
"366 1280 LINE"
);
}
);
width = 1190;
}
);
unicode = 0035;
},
{
glyphname = six;
layers = (
{
layerId = "E08CDE4C-5D6C-43D8-8149-5F9E51F0B944";
name = Bold;
paths = (
{
closed = 1;
nodes = (
"853 127 OFFCURVE",
"976.999 256 OFFCURVE",
"976.999 461 CURVE SMOOTH",
"976.999 634 OFFCURVE",
"899 822 OFFCURVE",
"645 821 CURVE SMOOTH",
"432 820 OFFCURVE",
"294 670 OFFCURVE",
"294 469 CURVE SMOOTH",
"294 292 OFFCURVE",
"404 127 OFFCURVE",
"639 127 CURVE SMOOTH"
);
},
{
closed = 1;
nodes = (
"972.999 957 OFFCURVE",
"1144 737 OFFCURVE",
"1144 466 CURVE SMOOTH",
"1144 177 OFFCURVE",
"930 -22 OFFCURVE",
"641 -22 CURVE SMOOTH",
"286 -22 OFFCURVE",
"146 240 OFFCURVE",
"127 501 CURVE SMOOTH",
"98.9999 890 OFFCURVE",
"262 1391 OFFCURVE",
"874 1484 CURVE",
"910 1338 LINE",
"559 1291 OFFCURVE",
"361 1052 OFFCURVE",
"301 779 CURVE",
"366 901 OFFCURVE",
"555 957 OFFCURVE",
"665 957 CURVE SMOOTH"
);
}
);
width = 1248;
}
);
unicode = 0036;
},
{
glyphname = seven;
layers = (
{
layerId = "E08CDE4C-5D6C-43D8-8149-5F9E51F0B944";
name = Bold;
paths = (
{
closed = 1;
nodes = (
"1087 1420 LINE",
"1087 1329 LINE",
"501 0 LINE",
"315 0 LINE",
"895 1275 LINE",
"117 1275 LINE",
"117 1420 LINE"
);
}
);
width = 1196;
}
);
unicode = 0037;
},
{
glyphname = eight;
layers = (
{
layerId = "E08CDE4C-5D6C-43D8-8149-5F9E51F0B944";
name = Bold;
paths = (
{
closed = 1;
nodes = (
"262 796 OFFCURVE",
"139 898 OFFCURVE",
"139 1091 CURVE SMOOTH",
"139 1280 OFFCURVE",
"270 1384 OFFCURVE",
"419 1428 CURVE SMOOTH",
"475 1444 OFFCURVE",
"534 1453 OFFCURVE",
"598 1453 CURVE SMOOTH",
"799 1453 OFFCURVE",
"951 1376 OFFCURVE",
"1021 1244 CURVE SMOOTH",
"1045 1199 OFFCURVE",
"1057 1148 OFFCURVE",
"1057 1091 CURVE SMOOTH",
"1057 898 OFFCURVE",
"934 796 OFFCURVE",
"776 747 CURVE",
"955 694 OFFCURVE",
"1092 580 OFFCURVE",
"1092 367 CURVE SMOOTH",
"1092 230 OFFCURVE",
"1026 138 OFFCURVE",
"943 78 CURVE SMOOTH",
"859 17 OFFCURVE",
"737 -23 OFFCURVE",
"598 -23 CURVE SMOOTH",
"385 -23 OFFCURVE",
"222 62 OFFCURVE",
"145 200 CURVE SMOOTH",
"118 248 OFFCURVE",
"104 304 OFFCURVE",
"104 367 CURVE SMOOTH",
"104 580 OFFCURVE",
"241 694 OFFCURVE",
"420 747 CURVE"
);
},
{
closed = 1;
nodes = (
"740 119 OFFCURVE",
"844 172 OFFCURVE",
"891 268 CURVE SMOOTH",
"907 300 OFFCURVE",
"915 337 OFFCURVE",
"915 380 CURVE SMOOTH",
"915 567 OFFCURVE",
"755 641 OFFCURVE",
"598 673 CURVE",
"468 647 OFFCURVE",
"356 592 OFFCURVE",
"305 489 CURVE SMOOTH",
"289 457 OFFCURVE",
"281 421 OFFCURVE",
"281 380 CURVE SMOOTH",
"281 201 OFFCURVE",
"418 119 OFFCURVE",
"598 119 CURVE SMOOTH"
);
},
{
closed = 1;
nodes = (
"755 849 OFFCURVE",
"885 917 OFFCURVE",
"885 1086 CURVE SMOOTH",
"885 1242 OFFCURVE",
"754 1317 OFFCURVE",
"598 1317 CURVE SMOOTH",
"473 1317 OFFCURVE",
"378 1268 OFFCURVE",
"334 1185 CURVE SMOOTH",
"319 1156 OFFCURVE",
"311 1123 OFFCURVE",
"311 1086 CURVE SMOOTH",
"311 917 OFFCURVE",
"441 849 OFFCURVE",
"598 820 CURVE"
);
}
);
width = 1196;
}
);
unicode = 0038;
},
{
glyphname = nine;
layers = (
{
layerId = "E08CDE4C-5D6C-43D8-8149-5F9E51F0B944";
name = Bold;
paths = (
{
closed = 1;
nodes = (
"418 1334 OFFCURVE",
"289 1205 OFFCURVE",
"289 993.999 CURVE SMOOTH",
"289 821 OFFCURVE",
"373 651 OFFCURVE",
"627 651 CURVE SMOOTH",
"855 651 OFFCURVE",
"967 791 OFFCURVE",
"967 991.999 CURVE SMOOTH",
"967 1202 OFFCURVE",
"867 1334 OFFCURVE",
"632 1334 CURVE SMOOTH"
);
},
{
closed = 1;
nodes = (
"299 515 OFFCURVE",
"117 724 OFFCURVE",
"117 994.999 CURVE SMOOTH",
"117 1282 OFFCURVE",
"331 1483 OFFCURVE",
"620 1483 CURVE SMOOTH",
"974.999 1483 OFFCURVE",
"1134 1243 OFFCURVE",
"1134 990.999 CURVE SMOOTH",
"1134 865 OFFCURVE",
"1086 729 OFFCURVE",
"994.999 598 CURVE SMOOTH",
"527 -76 LINE",
"391 0 LINE",
"800 575 LINE",
"792 569 OFFCURVE",
"717 515 OFFCURVE",
"607 515 CURVE SMOOTH"
);
}
);
width = 1248;
}
);
unicode = 0039;
},
{
glyphname = colon;
layers = (
{
layerId = "E08CDE4C-5D6C-43D8-8149-5F9E51F0B944";
name = Bold;
paths = (
{
closed = 1;
nodes = (
"376 841 LINE",
"159 841 LINE",
"159 1051 LINE",
"376 1051 LINE"
);
},
{
closed = 1;
nodes = (
"376 -11 LINE",
"159 -11 LINE",
"159 199 LINE",
"376 199 LINE"
);
}
);
width = 540;
}
);
unicode = 003A;
},
{
glyphname = semicolon;
layers = (
{
layerId = "E08CDE4C-5D6C-43D8-8149-5F9E51F0B944";
name = Bold;
paths = (
{
closed = 1;
nodes = (
"206 207 LINE",
"394 207 LINE",
"231 -256 LINE",
"99.9999 -256 LINE"
);
},
{
closed = 1;
nodes = (
"376 841 LINE",
"159 841 LINE",
"206 1051 LINE",
"376 1051 LINE"
);
}
);
width = 540;
}
);
unicode = 003B;
},
{
glyphname = less;
layers = (
{
layerId = "E08CDE4C-5D6C-43D8-8149-5F9E51F0B944";
name = Bold;
paths = (
{
closed = 1;
nodes = (
"438 552 LINE",
"1223 200 LINE",
"1223 48 LINE",
"219 508 LINE",
"219 595 LINE",
"1227 1067 LINE",
"1227 914 LINE"
);
}
);
width = 1458;
}
);
unicode = 003C;
},
{
glyphname = equal;
layers = (
{
layerId = "E08CDE4C-5D6C-43D8-8149-5F9E51F0B944";
name = Bold;
paths = (
{
closed = 1;
nodes = (
"1247 420 LINE",
"1247 283 LINE",
"198 283 LINE",
"198 420 LINE"
);
},
{
closed = 1;
nodes = (
"1246 827 LINE",
"1246 689 LINE",
"197 689 LINE",
"197 827 LINE"
);
}
);
width = 1458;
}
);
unicode = 003D;
},
{
glyphname = greater;
layers = (
{
layerId = "E08CDE4C-5D6C-43D8-8149-5F9E51F0B944";
name = Bold;
paths = (
{
closed = 1;
nodes = (
"1004 555 LINE",
"220 926 LINE",
"220 1078 LINE",
"1225 594 LINE",
"1225 505 LINE",
"215 58 LINE",
"215 212 LINE"
);
}
);
width = 1458;
}
);
unicode = 003E;
},
{
glyphname = question;
layers = (
{
layerId = "E08CDE4C-5D6C-43D8-8149-5F9E51F0B944";
name = Bold;
paths = (
{
closed = 1;
nodes = (
"183 1413 LINE",
"263 1452 OFFCURVE",
"358 1478 OFFCURVE",
"464 1478 CURVE SMOOTH",
"656 1478 OFFCURVE",
"800 1411 OFFCURVE",
"866 1284 CURVE SMOOTH",
"888 1241 OFFCURVE",
"899 1191 OFFCURVE",
"899 1133 CURVE SMOOTH",
"899 1034 OFFCURVE",
"845 962 OFFCURVE",
"796 902 CURVE SMOOTH",
"714 802 OFFCURVE",
"601 717 OFFCURVE",
"532 607 CURVE SMOOTH",
"512 576 OFFCURVE",
"503 544 OFFCURVE",
"503 513 CURVE SMOOTH",
"503 482 OFFCURVE",
"506 444 OFFCURVE",
"511 418 CURVE SMOOTH",
"520 368 LINE",
"356 368 LINE",
"351 416 OFFCURVE",
"346 480 OFFCURVE",
"346 530 CURVE SMOOTH",
"346 622 OFFCURVE",
"398 687 OFFCURVE",
"446 739 CURVE SMOOTH",
"530 830 OFFCURVE",
"640 904 OFFCURVE",
"702 1014 CURVE SMOOTH",
"721 1048 OFFCURVE",
"730 1085 OFFCURVE",
"730 1125 CURVE SMOOTH",
"730 1278 OFFCURVE",
"597 1336 OFFCURVE",
"444 1336 CURVE SMOOTH",
"340 1336 OFFCURVE",
"254 1307 OFFCURVE",
"183 1267 CURVE"
);
},
{
closed = 1;
nodes = (
"546 -11 LINE",
"329 -11 LINE",
"329 199 LINE",
"546 199 LINE"
);
}
);
width = 1032;
}
);
unicode = 003F;
},
{
glyphname = at;
layers = (
{
layerId = "E08CDE4C-5D6C-43D8-8149-5F9E51F0B944";
name = Bold;
paths = (
{
closed = 1;
nodes = (
"1084 1138 OFFCURVE",
"1168 1091 OFFCURVE",
"1207 1022 CURVE",
"1225 1107 LINE",
"1371 1107 LINE",
"1314 857 LINE SMOOTH",
"1288 743 OFFCURVE",
"1266 652 OFFCURVE",
"1250 584 CURVE SMOOTH",
"1234 516 OFFCURVE",
"1226 467 OFFCURVE",
"1226 436 CURVE SMOOTH",
"1226 380 OFFCURVE",
"1249 350 OFFCURVE",
"1309 350 CURVE SMOOTH",
"1405 350 OFFCURVE",
"1474 421 OFFCURVE",
"1517 486 CURVE SMOOTH",
"1568 562 OFFCURVE",
"1607 673 OFFCURVE",
"1607 796 CURVE SMOOTH",
"1607 975.999 OFFCURVE",
"1529 1111 OFFCURVE",
"1428 1200 CURVE SMOOTH",
"1321 1294 OFFCURVE",
"1162 1357 OFFCURVE",
"966 1357 CURVE SMOOTH",
"753 1357 OFFCURVE",
"587 1270 OFFCURVE",
"476 1158 CURVE SMOOTH",
"367 1048 OFFCURVE",
"281 884 OFFCURVE",
"281 677 CURVE SMOOTH",
"281 470 OFFCURVE",
"361 310 OFFCURVE",
"471 202 CURVE SMOOTH",
"585 90 OFFCURVE",
"753 12 OFFCURVE",
"971.999 12 CURVE SMOOTH",
"1190 12 OFFCURVE",
"1362 86 OFFCURVE",
"1486 192 CURVE",
"1566 122 LINE",
"1438 -17 OFFCURVE",
"1230 -109 OFFCURVE",
"967 -109 CURVE SMOOTH",
"709 -109 OFFCURVE",
"504 -14 OFFCURVE",
"366 116 CURVE SMOOTH",
"232 243 OFFCURVE",
"130 432 OFFCURVE",
"130 679 CURVE SMOOTH",
"130 935 OFFCURVE",
"239 1119 OFFCURVE",
"374 1246 CURVE SMOOTH",
"513 1377 OFFCURVE",
"709 1476 OFFCURVE",
"970.999 1476 CURVE SMOOTH",
"1213 1476 OFFCURVE",
"1398 1396 OFFCURVE",
"1531 1283 CURVE SMOOTH",
"1658 1176 OFFCURVE",
"1760 1018 OFFCURVE",
"1760 791 CURVE SMOOTH",
"1760 622 OFFCURVE",
"1694 484 OFFCURVE",
"1612 390 CURVE SMOOTH",
"1540 307 OFFCURVE",
"1427 225 OFFCURVE",
"1288 225 CURVE SMOOTH",
"1165 225 OFFCURVE",
"1090 276 OFFCURVE",
"1071 384 CURVE",
"1013 313 OFFCURVE",
"930 257 OFFCURVE",
"814 257 CURVE SMOOTH",
"664 257 OFFCURVE",
"570 347 OFFCURVE",
"525 457 CURVE SMOOTH",
"507 501 OFFCURVE",
"498 552 OFFCURVE",
"498 610 CURVE SMOOTH",
"498 763 OFFCURVE",
"568 890 OFFCURVE",
"646 975.999 CURVE SMOOTH",
"721 1058 OFFCURVE",
"835 1138 OFFCURVE",
"977.999 1138 CURVE SMOOTH"
);
},
{
closed = 1;
nodes = (
"1141 936 OFFCURVE",
"1096 1007 OFFCURVE",
"979.999 1007 CURVE SMOOTH",
"872 1007 OFFCURVE",
"794 935 OFFCURVE",
"746 866 CURVE SMOOTH",
"697 795 OFFCURVE",
"655 693 OFFCURVE",
"655 582 CURVE SMOOTH",
"655 465 OFFCURVE",
"715 385 OFFCURVE",
"831 385 CURVE SMOOTH",
"934 385 OFFCURVE",
"1006 454 OFFCURVE",
"1052 522 CURVE SMOOTH",
"1102 596 OFFCURVE",
"1141 702 OFFCURVE",
"1141 821 CURVE SMOOTH"
);
}
);
width = 1895;
}
);
unicode = 0040;
},
{
glyphname = A;
layers = (
{
layerId = "E08CDE4C-5D6C-43D8-8149-5F9E51F0B944";
name = Bold;
paths = (
{
closed = 1;
nodes = (
"199 0 LINE",
"13 0 LINE",
"617 1456 LINE",
"802 1456 LINE",
"1407 0 LINE",
"1216 0 LINE",
"1053 397 LINE",
"355 397 LINE"
);
},
{
closed = 1;
nodes = (
"410 545 LINE",
"993.999 545 LINE",
"760 1150 LINE",
"742 1192 OFFCURVE",
"721 1252 OFFCURVE",
"707 1298 CURVE",
"692 1252 OFFCURVE",
"670 1191 OFFCURVE",
"655 1149 CURVE"
);
}
);
width = 1425;
}
);
unicode = 0041;
},
{
glyphname = B;
layers = (
{
layerId = "E08CDE4C-5D6C-43D8-8149-5F9E51F0B944";
name = Bold;
paths = (
{
closed = 1;
nodes = (
"200 0 LINE",
"200 1456 LINE",
"584 1456 LINE SMOOTH",
"959 1456 OFFCURVE",
"1142 1357 OFFCURVE",
"1142 1105 CURVE SMOOTH",
"1142 918 OFFCURVE",
"1067 823 OFFCURVE",
"877 769 CURVE",
"1117 728 OFFCURVE",
"1211 625 OFFCURVE",
"1211 403 CURVE SMOOTH",
"1211 114 OFFCURVE",
"996.999 0 OFFCURVE",
"650 0 CURVE SMOOTH"
);
},
{
closed = 1;
nodes = (
"961 1243 OFFCURVE",
"857 1308 OFFCURVE",
"584 1308 CURVE SMOOTH",
"372 1308 LINE",
"372 828 LINE",
"568 828 LINE SMOOTH",
"850 828 OFFCURVE",
"961 898 OFFCURVE",
"961 1077 CURVE SMOOTH"
);
},
{
closed = 1;
nodes = (
"1029 602 OFFCURVE",
"907 680 OFFCURVE",
"598 680 CURVE SMOOTH",
"372 680 LINE",
"372 148 LINE",
"644 148 LINE SMOOTH",
"912 148 OFFCURVE",
"1029 221 OFFCURVE",
"1029 406 CURVE SMOOTH"
);
}
);
width = 1340;
}
);
unicode = 0042;
},
{
glyphname = C;
layers = (
{
layerId = "E08CDE4C-5D6C-43D8-8149-5F9E51F0B944";
name = Bold;
paths = (
{
closed = 1;
nodes = (
"1006 123 OFFCURVE",
"1141 179 OFFCURVE",
"1242 267 CURVE",
"1299 127 LINE",
"1180 31 OFFCURVE",
"1021 -22 OFFCURVE",
"820 -22 CURVE SMOOTH",
"379 -22 OFFCURVE",
"116 287 OFFCURVE",
"116 726 CURVE SMOOTH",
"116 1168 OFFCURVE",
"394 1483 OFFCURVE",
"822 1483 CURVE SMOOTH",
"1042 1483 OFFCURVE",
"1175 1414 OFFCURVE",
"1285 1332 CURVE",
"1206 1206 LINE",
"1105 1283 OFFCURVE",
"977.999 1334 OFFCURVE",
"841 1334 CURVE SMOOTH",
"487 1334 OFFCURVE",
"299 1076 OFFCURVE",
"299 725 CURVE SMOOTH",
"299 382 OFFCURVE",
"469 123 OFFCURVE",
"825 123 CURVE SMOOTH"
);
}
);
width = 1429;
}
);
unicode = 0043;
},
{
glyphname = D;
layers = (
{
layerId = "E08CDE4C-5D6C-43D8-8149-5F9E51F0B944";
name = Bold;
paths = (
{
closed = 1;
nodes = (
"515 1456 LINE SMOOTH",
"1063 1456 OFFCURVE",
"1437 1273 OFFCURVE",
"1437 724 CURVE SMOOTH",
"1437 241 OFFCURVE",
"1102 0 OFFCURVE",
"617 0 CURVE SMOOTH",
"200 0 LINE",
"200 1456 LINE"
);
},
{
closed = 1;
nodes = (
"372 148 LINE",
"633 148 LINE SMOOTH",
"1018 148 OFFCURVE",
"1255 341 OFFCURVE",
"1255 721 CURVE SMOOTH",
"1255 1170 OFFCURVE",
"985.999 1308 OFFCURVE",
"536 1308 CURVE SMOOTH",
"372 1308 LINE"
);
}
);
width = 1553;
}
);
unicode = 0044;
},
{
glyphname = E;
layers = (
{
layerId = "E08CDE4C-5D6C-43D8-8149-5F9E51F0B944";
name = Bold;
paths = (
{
closed = 1;
nodes = (
"1117 0 LINE",
"200 0 LINE",
"200 1456 LINE",
"1067 1456 LINE",
"1067 1308 LINE",
"372 1308 LINE",
"372 820 LINE",
"1029 820 LINE",
"1029 672 LINE",
"372 672 LINE",
"372 148 LINE",
"1117 148 LINE"
);
}
);
width = 1213;
}
);
unicode = 0045;
},
{
glyphname = F;
layers = (
{
layerId = "E08CDE4C-5D6C-43D8-8149-5F9E51F0B944";
name = Bold;
paths = (
{
closed = 1;
nodes = (
"372 0 LINE",
"200 0 LINE",
"200 1456 LINE",
"1043 1456 LINE",
"1043 1308 LINE",
"372 1308 LINE",
"372 815 LINE",
"1009 815 LINE",
"1009 667 LINE",
"372 667 LINE"
);
}
);
width = 1140;
}
);
unicode = 0046;
},
{
glyphname = G;
layers = (
{
layerId = "E08CDE4C-5D6C-43D8-8149-5F9E51F0B944";
name = Bold;
paths = (
{
closed = 1;
nodes = (
"1352 81 LINE",
"1207 13 OFFCURVE",
"1048 -22 OFFCURVE",
"849 -22 CURVE SMOOTH",
"384 -22 OFFCURVE",
"116 239 OFFCURVE",
"116 701 CURVE SMOOTH",
"116 1165 OFFCURVE",
"396 1483 OFFCURVE",
"860 1483 CURVE SMOOTH",
"1071 1483 OFFCURVE",
"1211 1431 OFFCURVE",
"1327 1315 CURVE",
"1255 1198 LINE",
"1163 1286 OFFCURVE",
"1028 1334 OFFCURVE",
"856 1334 CURVE SMOOTH",
"499 1334 OFFCURVE",
"294 1069 OFFCURVE",
"294 714 CURVE SMOOTH",
"294 344 OFFCURVE",
"492 123 OFFCURVE",
"863 123 CURVE SMOOTH",
"983.999 123 OFFCURVE",
"1090 135 OFFCURVE",
"1180 171 CURVE",
"1180 608 LINE",
"819 608 LINE",
"819 757 LINE",
"1352 757 LINE"
);
}
);
width = 1530;
}
);
unicode = 0047;
},
{
glyphname = H;
layers = (
{
layerId = "E08CDE4C-5D6C-43D8-8149-5F9E51F0B944";
name = Bold;
paths = (
{
closed = 1;
nodes = (
"372 0 LINE",
"200 0 LINE",
"200 1456 LINE",
"372 1456 LINE",
"372 822 LINE",
"1174 822 LINE",
"1174 1456 LINE",
"1345 1456 LINE",
"1345 0 LINE",
"1174 0 LINE",
"1174 674 LINE",
"372 674 LINE"
);
}
);
width = 1545;
}
);
unicode = 0048;
},
{
glyphname = I;
layers = (
{
layerId = "E08CDE4C-5D6C-43D8-8149-5F9E51F0B944";
name = Bold;
paths = (
{
closed = 1;
nodes = (
"382 0 LINE",
"210 0 LINE",
"210 1456 LINE",
"382 1456 LINE"
);
}
);
width = 591;
}
);
unicode = 0049;
},
{
glyphname = J;
layers = (
{
layerId = "E08CDE4C-5D6C-43D8-8149-5F9E51F0B944";
name = Bold;
paths = (
{
closed = 1;
nodes = (
"92.9999 22 LINE",
"189 -26 OFFCURVE",
"279 -49 OFFCURVE",
"336 -49 CURVE SMOOTH",
"499 -49 OFFCURVE",
"583 68 OFFCURVE",
"583 294 CURVE SMOOTH",
"583 1314 LINE",
"164 1314 LINE",
"164 1456 LINE",
"1027 1456 LINE",
"1027 1314 LINE",
"755 1314 LINE",
"755 296 LINE SMOOTH",
"755 -39 OFFCURVE",
"618 -212 OFFCURVE",
"352 -212 CURVE SMOOTH",
"250 -212 OFFCURVE",
"131 -169 OFFCURVE",
"41 -114 CURVE"
);
}
);
width = 939;
}
);
unicode = 004A;
},
{
glyphname = K;
layers = (
{
layerId = "E08CDE4C-5D6C-43D8-8149-5F9E51F0B944";
name = Bold;
paths = (
{
closed = 1;
nodes = (
"372 0 LINE",
"200 0 LINE",
"200 1456 LINE",
"372 1456 LINE",
"372 796 LINE",
"1016 1456 LINE",
"1232 1456 LINE",
"543 778 LINE",
"1286 0 LINE",
"1050 0 LINE",
"372 725 LINE"
);
}
);
width = 1284;
}
);
unicode = 004B;
},
{
glyphname = L;
layers = (
{
layerId = "E08CDE4C-5D6C-43D8-8149-5F9E51F0B944";
name = Bold;
paths = (
{
closed = 1;
nodes = (
"1071 0 LINE",
"200 0 LINE",
"200 1456 LINE",
"372 1456 LINE",
"372 148 LINE",
"1071 148 LINE"
);
}
);
width = 1118;
}
);
unicode = 004C;
},
{
glyphname = M;
layers = (
{
layerId = "E08CDE4C-5D6C-43D8-8149-5F9E51F0B944";
name = Bold;
paths = (
{
closed = 1;
nodes = (
"200 0 LINE",
"200 1456 LINE",
"438 1456 LINE",
"913 416 LINE",
"998.999 212 LINE",
"1084 419 LINE",
"1562 1456 LINE",
"1796 1456 LINE",
"1796 0 LINE",
"1628 0 LINE",
"1628 1251 LINE",
"1560 1096 LINE",
"1060 0 LINE",
"934 0 LINE",
"430 1108 LINE",
"370 1268 LINE",
"370 0 LINE"
);
}
);
width = 1996;
}
);
unicode = 004D;
},
{
glyphname = N;
layers = (
{
layerId = "E08CDE4C-5D6C-43D8-8149-5F9E51F0B944";
name = Bold;
paths = (
{
closed = 1;
nodes = (
"200 0 LINE",
"200 1456 LINE",
"406 1456 LINE",
"1153 342 LINE",
"1231 215 LINE",
"1231 1456 LINE",
"1402 1456 LINE",
"1402 0 LINE",
"1194 0 LINE",
"444 1113 LINE",
"372 1237 LINE",
"372 0 LINE"
);
}
);
width = 1602;
}
);
unicode = 004E;
},
{
glyphname = O;
layers = (
{
layerId = "E08CDE4C-5D6C-43D8-8149-5F9E51F0B944";
name = Bold;
paths = (
{
closed = 1;
nodes = (
"1546 338 OFFCURVE",
"1304 -22 OFFCURVE",
"834 -22 CURVE SMOOTH",
"432 -22 OFFCURVE",
"116 218 OFFCURVE",
"116 730 CURVE SMOOTH",
"116 1122 OFFCURVE",
"360 1483 OFFCURVE",
"834 1483 CURVE SMOOTH",
"1233 1483 OFFCURVE",
"1546 1242 OFFCURVE",
"1546 730 CURVE SMOOTH"
);
},
{
closed = 1;
nodes = (
"300 390 OFFCURVE",
"471 123 OFFCURVE",
"834 123 CURVE SMOOTH",
"1106 123 OFFCURVE",
"1358 330 OFFCURVE",
"1358 729 CURVE SMOOTH",
"1358 1068 OFFCURVE",
"1190 1334 OFFCURVE",
"834 1334 CURVE SMOOTH",
"556 1334 OFFCURVE",
"300 1128 OFFCURVE",
"300 729 CURVE SMOOTH"
);
}
);
width = 1662;
}
);
unicode = 004F;
},
{
glyphname = P;
layers = (
{
layerId = "E08CDE4C-5D6C-43D8-8149-5F9E51F0B944";
name = Bold;
paths = (
{
closed = 1;
nodes = (
"589 1456 LINE SMOOTH",
"1021 1456 OFFCURVE",
"1197 1316 OFFCURVE",
"1197 1020 CURVE SMOOTH",
"1197 734 OFFCURVE",
"998.999 587 OFFCURVE",
"614 587 CURVE SMOOTH",
"372 587 LINE",
"372 0 LINE",
"200 0 LINE",
"200 1456 LINE"
);
},
{
closed = 1;
nodes = (
"1013 1215 OFFCURVE",
"904 1308 OFFCURVE",
"613 1308 CURVE SMOOTH",
"372 1308 LINE",
"372 736 LINE",
"633 736 LINE SMOOTH",
"884 736 OFFCURVE",
"1013 832 OFFCURVE",
"1013 1018 CURVE SMOOTH"
);
}
);
width = 1271;
}
);
unicode = 0050;
},
{
glyphname = Q;
layers = (
{
layerId = "E08CDE4C-5D6C-43D8-8149-5F9E51F0B944";
name = Bold;
paths = (
{
closed = 1;
nodes = (
"295 389 OFFCURVE",
"481 123 OFFCURVE",
"827 123 CURVE SMOOTH",
"1182 123 OFFCURVE",
"1352 382 OFFCURVE",
"1352 736 CURVE SMOOTH",
"1352 1087 OFFCURVE",
"1178 1334 OFFCURVE",
"827 1334 CURVE SMOOTH",
"481 1334 OFFCURVE",
"295 1081 OFFCURVE",
"295 736 CURVE SMOOTH"
);
},
{
closed = 1;
nodes = (
"1159 -110 OFFCURVE",
"1247 -213 OFFCURVE",
"1345 -304 CURVE",
"1233 -422 LINE",
"1116 -305 OFFCURVE",
"1007 -176 OFFCURVE",
"931 -13 CURVE",
"900 -19 OFFCURVE",
"864 -22 OFFCURVE",
"826 -22 CURVE SMOOTH",
"373 -22 OFFCURVE",
"116 282 OFFCURVE",
"116 736 CURVE SMOOTH",
"116 1183 OFFCURVE",
"389 1483 OFFCURVE",
"834 1483 CURVE SMOOTH",
"1282 1483 OFFCURVE",
"1540 1183 OFFCURVE",
"1540 736 CURVE SMOOTH",
"1540 374 OFFCURVE",
"1359 124 OFFCURVE",
"1096 20 CURVE"
);
}
);
width = 1661;
}
);
unicode = 0051;
},
{
glyphname = R;
layers = (
{
layerId = "E08CDE4C-5D6C-43D8-8149-5F9E51F0B944";
name = Bold;
paths = (
{
closed = 1;
nodes = (
"372 652 LINE",
"372 0 LINE",
"200 0 LINE",
"200 1456 LINE",
"556 1456 LINE SMOOTH",
"891 1456 OFFCURVE",
"1194 1410 OFFCURVE",
"1194 1074 CURVE SMOOTH",
"1194 867 OFFCURVE",
"1050 758 OFFCURVE",
"884 715 CURVE",
"1020 670 OFFCURVE",
"1065 546 OFFCURVE",
"1119 410 CURVE SMOOTH",
"1282 0 LINE",
"1094 0 LINE",
"941 419 LINE SMOOTH",
"888 564 OFFCURVE",
"838 652 OFFCURVE",
"642 652 CURVE SMOOTH"
);
},
{
closed = 1;
nodes = (
"1012 1261 OFFCURVE",
"852 1308 OFFCURVE",
"649 1308 CURVE SMOOTH",
"372 1308 LINE",
"372 799 LINE",
"638 799 LINE SMOOTH",
"835 799 OFFCURVE",
"1012 859 OFFCURVE",
"1012 1058 CURVE SMOOTH"
);
}
);
width = 1372;
}
);
unicode = 0052;
},
{
glyphname = S;
layers = (
{
layerId = "E08CDE4C-5D6C-43D8-8149-5F9E51F0B944";
name = Bold;
paths = (
{
closed = 1;
nodes = (
"137 902 OFFCURVE",
"224 769 OFFCURVE",
"566 671 CURVE SMOOTH",
"911 572 OFFCURVE",
"951 500 OFFCURVE",
"951 401 CURVE SMOOTH",
"951 230 OFFCURVE",
"855 123 OFFCURVE",
"649 123 CURVE SMOOTH",
"503 123 OFFCURVE",
"305 187 OFFCURVE",
"174 289 CURVE",
"146 123 LINE",
"280 35 OFFCURVE",
"486 -22 OFFCURVE",
"664 -22 CURVE SMOOTH",
"989.999 -22 OFFCURVE",
"1135 166 OFFCURVE",
"1135 395 CURVE SMOOTH",
"1135 578 OFFCURVE",
"1052 709 OFFCURVE",
"676 817 CURVE SMOOTH",
"370 905 OFFCURVE",
"318 982.999 OFFCURVE",
"324 1120 CURVE SMOOTH",
"330 1262 OFFCURVE",
"441 1334 OFFCURVE",
"656 1334 CURVE SMOOTH",
"780 1334 OFFCURVE",
"921 1288 OFFCURVE",
"1033 1218 CURVE",
"1085 1359 LINE",
"930 1456 OFFCURVE",
"773 1483 OFFCURVE",
"636 1483 CURVE SMOOTH",
"344 1483 OFFCURVE",
"145 1339 OFFCURVE",
"141 1109 CURVE SMOOTH"
);
}
);
width = 1244;
}
);
unicode = 0053;
},
{
glyphname = T;
layers = (
{
layerId = "E08CDE4C-5D6C-43D8-8149-5F9E51F0B944";
name = Bold;
paths = (
{
closed = 1;
nodes = (
"501 0 LINE",
"501 1308 LINE",
"32 1308 LINE",
"32 1456 LINE",
"1145 1456 LINE",
"1145 1308 LINE",
"673 1308 LINE",
"673 0 LINE"
);
}
);
width = 1174;
}
);
unicode = 0054;
},
{
glyphname = U;
layers = (
{
layerId = "E08CDE4C-5D6C-43D8-8149-5F9E51F0B944";
name = Bold;
paths = (
{
closed = 1;
nodes = (
"392 -22 OFFCURVE",
"191 157 OFFCURVE",
"191 541 CURVE SMOOTH",
"191 1456 LINE",
"363 1456 LINE",
"363 546 LINE SMOOTH",
"363 260 OFFCURVE",
"502 123 OFFCURVE",
"774 123 CURVE SMOOTH",
"1026 123 OFFCURVE",
"1165 279 OFFCURVE",
"1165 539 CURVE SMOOTH",
"1165 1456 LINE",
"1336 1456 LINE",
"1336 551 LINE SMOOTH",
"1334 191 OFFCURVE",
"1138 -22 OFFCURVE",
"776 -22 CURVE SMOOTH"
);
}
);
width = 1532;
}
);
unicode = 0055;
},
{
glyphname = V;
layers = (
{
layerId = "E08CDE4C-5D6C-43D8-8149-5F9E51F0B944";
name = Bold;
paths = (
{
closed = 1;
nodes = (
"201 1456 LINE",
"624 307 LINE",
"670 166 LINE",
"718 306 LINE",
"1145 1456 LINE",
"1324 1456 LINE",
"759 0.999999 LINE",
"570 0.999999 LINE",
"9 1456 LINE"
);
}
);
width = 1336;
}
);
unicode = 0056;
},
{
glyphname = W;
layers = (
{
layerId = "E08CDE4C-5D6C-43D8-8149-5F9E51F0B944";
name = Bold;
paths = (
{
closed = 1;
nodes = (
"1052 1247 LINE",
"657 0.999999 LINE",
"444 0.999999 LINE",
"21 1456 LINE",
"207 1456 LINE",
"517 349 LINE",
"555 189 LINE",
"605 349 LINE",
"967 1456 LINE",
"1148 1456 LINE",
"1507 345 LINE",
"1553 190 LINE",
"1595 349 LINE",
"1900 1456 LINE",
"2080 1456 LINE",
"1657 0 LINE",
"1445 0 LINE"
);
}
);
width = 2103;
}
);
unicode = 0057;
},
{
glyphname = X;
layers = (
{
layerId = "E08CDE4C-5D6C-43D8-8149-5F9E51F0B944";
name = Bold;
paths = (
{
closed = 1;
nodes = (
"215 0 LINE",
"11 0 LINE",
"548 741 LINE",
"47 1456 LINE",
"263 1456 LINE",
"662 854 LINE",
"1079 1456 LINE",
"1275 1456 LINE",
"764 742 LINE",
"1285 0 LINE",
"1072 0 LINE",
"646 630 LINE"
);
}
);
width = 1304;
}
);
unicode = 0058;
},
{
glyphname = Y;
layers = (
{
layerId = "E08CDE4C-5D6C-43D8-8149-5F9E51F0B944";
name = Bold;
paths = (
{
closed = 1;
nodes = (
"543 0 LINE",
"543 582 LINE",
"9.99999 1456 LINE",
"201 1456 LINE",
"632 727 LINE",
"1067 1456 LINE",
"1258 1456 LINE",
"715 585 LINE",
"715 0 LINE"
);
}
);
width = 1266;
}
);
unicode = 0059;
},
{
glyphname = Z;
layers = (
{
layerId = "E08CDE4C-5D6C-43D8-8149-5F9E51F0B944";
name = Bold;
paths = (
{
closed = 1;
nodes = (
"1146 0 LINE",
"58 0 LINE",
"58 92 LINE",
"922 1308 LINE",
"90 1308 LINE",
"90 1456 LINE",
"1154 1456 LINE",
"1154 1368 LINE",
"286 148 LINE",
"1146 148 LINE"
);
}
);
width = 1222;
}
);
unicode = 005A;
},
{
glyphname = bracketleft;
layers = (
{
layerId = "E08CDE4C-5D6C-43D8-8149-5F9E51F0B944";
name = Bold;
paths = (
{
closed = 1;
nodes = (
"548 -259 LINE",
"191 -259 LINE",
"191 1451 LINE",
"547 1451 LINE",
"547 1329 LINE",
"354 1329 LINE",
"354 -137 LINE",
"548 -137 LINE"
);
}
);
width = 628;
}
);
unicode = 005B;
},
{
glyphname = backslash;
layers = (
{
layerId = "E08CDE4C-5D6C-43D8-8149-5F9E51F0B944";
name = Bold;
paths = (
{
closed = 1;
nodes = (
"617 -119 LINE",
"-70 1451 LINE",
"97.9999 1451 LINE",
"783 -119 LINE"
);
}
);
width = 706;
}
);
unicode = 005C;
},
{
glyphname = bracketright;
layers = (
{
layerId = "E08CDE4C-5D6C-43D8-8149-5F9E51F0B944";
name = Bold;
paths = (
{
closed = 1;
nodes = (
"78 1451 LINE",
"442 1451 LINE",
"442 -259 LINE",
"87 -259 LINE",
"87 -137 LINE",
"278 -137 LINE",
"278 1329 LINE",
"88 1329 LINE"
);
}
);
width = 628;
}
);
unicode = 005D;
},
{
glyphname = asciicircum;
layers = (
{
layerId = "E08CDE4C-5D6C-43D8-8149-5F9E51F0B944";
name = Bold;
paths = (
{
closed = 1;
nodes = (
"184 550 LINE",
"665 1432 LINE",
"766 1432 LINE",
"1255 550 LINE",
"1100 550 LINE",
"714 1260 LINE",
"340 550 LINE"
);
}
);
width = 1457;
}
);
unicode = 005E;
},
{
glyphname = underscore;
layers = (
{
layerId = "E08CDE4C-5D6C-43D8-8149-5F9E51F0B944";
name = Bold;
paths = (
{
closed = 1;
nodes = (
"997.999 -273 LINE",
"-5 -273 LINE",
"-5 -145 LINE",
"997.999 -145 LINE"
);
}
);
width = 997;
}
);
unicode = 005F;
},
{
glyphname = grave;
layers = (
{
layerId = "E08CDE4C-5D6C-43D8-8149-5F9E51F0B944";
name = Bold;
paths = (
{
closed = 1;
nodes = (
"0.999999 1492 LINE",
"215 1492 LINE",
"462 1172 LINE",
"333 1172 LINE"
);
}
);
width = 593;
}
);
unicode = 0060;
},
{
glyphname = a;
lastChange = "2013-01-15 11:39:04 -0800";
layers = (
{
layerId = "E08CDE4C-5D6C-43D8-8149-5F9E51F0B944";
name = Bold;
paths = (
{
closed = 1;
nodes = (
"1062 322 LINE SMOOTH",
"1062 219 OFFCURVE",
"1110 185 OFFCURVE",
"1187 185 CURVE",
"1153 -4 LINE",
"1034 -4 OFFCURVE",
"905 41 OFFCURVE",
"871 166 CURVE",
"813 50 OFFCURVE",
"699 -22 OFFCURVE",
"533 -22 CURVE SMOOTH",
"268 -22 OFFCURVE",
"100 150 OFFCURVE",
"100 438 CURVE SMOOTH",
"100 813 OFFCURVE",
"320 1048 OFFCURVE",
"671 1048 CURVE SMOOTH",
"798 1048 OFFCURVE",
"973 1000 OFFCURVE",
"1062 947 CURVE"
);
},
{
closed = 1;
nodes = (
"848 842 LINE",
"804 863 OFFCURVE",
"741 877 OFFCURVE",
"668 877 CURVE SMOOTH",
"451 877 OFFCURVE",
"314 712 OFFCURVE",
"314 448 CURVE SMOOTH",
"314 262 OFFCURVE",
"403 146 OFFCURVE",
"544 146 CURVE SMOOTH",
"737 146 OFFCURVE",
"848 257 OFFCURVE",
"848 433 CURVE SMOOTH"
);
}
);
width = 1218;
}
);
unicode = 0061;
},
{
glyphname = b;
layers = (
{
layerId = "E08CDE4C-5D6C-43D8-8149-5F9E51F0B944";
name = Bold;
paths = (
{
closed = 1;
nodes = (
"369 -22 OFFCURVE",
"152 71 OFFCURVE",
"152 71 CURVE",
"152 1495 LINE",
"317 1525 LINE",
"317 851 LINE",
"397 999.999 OFFCURVE",
"557 1048 OFFCURVE",
"685 1048 CURVE SMOOTH",
"978.999 1048 OFFCURVE",
"1120 849 OFFCURVE",
"1120 545 CURVE SMOOTH",
"1120 215 OFFCURVE",
"929 -22 OFFCURVE",
"612 -22 CURVE SMOOTH"
);
},
{
closed = 1;
nodes = (
"317 156 LINE",
"317 156 OFFCURVE",
"461 116 OFFCURVE",
"615 116 CURVE SMOOTH",
"848 116 OFFCURVE",
"950 319 OFFCURVE",
"950 550 CURVE SMOOTH",
"950 756 OFFCURVE",
"884 907 OFFCURVE",
"680 907 CURVE SMOOTH",
"458 907 OFFCURVE",
"317 736 OFFCURVE",
"317 515 CURVE SMOOTH"
);
}
);
width = 1210;
}
);
unicode = 0062;
},
{
glyphname = c;
layers = (
{
layerId = "E08CDE4C-5D6C-43D8-8149-5F9E51F0B944";
name = Bold;
paths = (
{
closed = 1;
nodes = (
"988.999 117 LINE",
"864 20 OFFCURVE",
"750 -22 OFFCURVE",
"612 -22 CURVE SMOOTH",
"274 -22 OFFCURVE",
"90 222 OFFCURVE",
"90 503 CURVE SMOOTH",
"90 846 OFFCURVE",
"351 1048 OFFCURVE",
"608 1048 CURVE SMOOTH",
"752 1048 OFFCURVE",
"856 1008 OFFCURVE",
"956 912 CURVE",
"886 802 LINE",
"796 879 OFFCURVE",
"713 907 OFFCURVE",
"608 907 CURVE SMOOTH",
"437 907 OFFCURVE",
"260 762 OFFCURVE",
"260 508 CURVE SMOOTH",
"260 259 OFFCURVE",
"427 116 OFFCURVE",
"616 116 CURVE SMOOTH",
"724 116 OFFCURVE",
"817 157 OFFCURVE",
"928 238 CURVE"
);
}
);
width = 1019;
}
);
unicode = 0063;
},
{
glyphname = d;
layers = (
{
layerId = "E08CDE4C-5D6C-43D8-8149-5F9E51F0B944";
name = Bold;
paths = (
{
closed = 1;
nodes = (
"859 52 OFFCURVE",
"722 -22 OFFCURVE",
"561 -22 CURVE SMOOTH",
"278 -22 OFFCURVE",
"90 186 OFFCURVE",
"90 501 CURVE SMOOTH",
"90 810 OFFCURVE",
"252 1048 OFFCURVE",
"561 1048 CURVE SMOOTH",
"693 1048 OFFCURVE",
"796 1011 OFFCURVE",
"906 917 CURVE",
"906 1506 LINE",
"1071 1526 LINE",
"1071 390 LINE SMOOTH",
"1071 162 OFFCURVE",
"1114 76 OFFCURVE",
"1159 9.99999 CURVE",
"996.999 -13 LINE",
"959 32 OFFCURVE",
"923 111 OFFCURVE",
"919 177 CURVE"
);
},
{
closed = 1;
nodes = (
"260 274 OFFCURVE",
"391 116 OFFCURVE",
"579 116 CURVE SMOOTH",
"818 116 OFFCURVE",
"907 296 OFFCURVE",
"907 534 CURVE SMOOTH",
"907 744 LINE",
"832 844 OFFCURVE",
"704 907 OFFCURVE",
"585 907 CURVE SMOOTH",
"359 907 OFFCURVE",
"260 732 OFFCURVE",
"260 507 CURVE SMOOTH"
);
}
);
width = 1226;
}
);
unicode = 0064;
},
{
glyphname = e;
layers = (
{
layerId = "E08CDE4C-5D6C-43D8-8149-5F9E51F0B944";
name = Bold;
paths = (
{
closed = 1;
nodes = (
"736 116 OFFCURVE",
"859 176 OFFCURVE",
"926 252 CURVE",
"1009 146 LINE",
"909 43 OFFCURVE",
"757 -22 OFFCURVE",
"597 -22 CURVE SMOOTH",
"293 -22 OFFCURVE",
"90 187 OFFCURVE",
"90 516 CURVE SMOOTH",
"90 797 OFFCURVE",
"259 1048 OFFCURVE",
"588 1048 CURVE SMOOTH",
"804 1048 OFFCURVE",
"942 918 OFFCURVE",
"942 751 CURVE SMOOTH",
"942 506 OFFCURVE",
"651 425 OFFCURVE",
"285 371 CURVE",
"325 219 OFFCURVE",
"449 116 OFFCURVE",
"597 116 CURVE SMOOTH"
);
},
{
closed = 1;
nodes = (
"423 907 OFFCURVE",
"270 786 OFFCURVE",
"270 539 CURVE SMOOTH",
"270 525 OFFCURVE",
"271 506 OFFCURVE",
"273 490 CURVE",
"559 534 OFFCURVE",
"779 594 OFFCURVE",
"779 755 CURVE SMOOTH",
"779 846 OFFCURVE",
"710 907 OFFCURVE",
"589 907 CURVE SMOOTH"
);
}
);
width = 1070;
}
);
unicode = 0065;
},
{
glyphname = f;
layers = (
{
layerId = "E08CDE4C-5D6C-43D8-8149-5F9E51F0B944";
name = Bold;
paths = (
{
closed = 1;
nodes = (
"253 1170 LINE SMOOTH",
"253 1423 OFFCURVE",
"339 1532 OFFCURVE",
"541 1532 CURVE SMOOTH",
"595 1532 OFFCURVE",
"655 1521 OFFCURVE",
"719 1499 CURVE",
"695 1392 LINE",
"658 1401 OFFCURVE",
"620 1409 OFFCURVE",
"584 1409 CURVE SMOOTH",
"467 1409 OFFCURVE",
"417 1344 OFFCURVE",
"417 1193 CURVE SMOOTH",
"417 1026 LINE",
"665 1026 LINE",
"665 919 LINE",
"417 919 LINE",
"417 -11 LINE SMOOTH",
"417 -261 OFFCURVE",
"330 -418 OFFCURVE",
"91 -449 CURVE",
"70 -328 LINE",
"190 -299 OFFCURVE",
"253 -194 OFFCURVE",
"253 -34 CURVE SMOOTH",
"253 919 LINE",
"51 919 LINE",
"51 1026 LINE",
"253 1026 LINE"
);
}
);
width = 699;
}
);
unicode = 0066;
},
{
glyphname = g;
layers = (
{
layerId = "E08CDE4C-5D6C-43D8-8149-5F9E51F0B944";
name = Bold;
paths = (
{
closed = 1;
nodes = (
"852 872 LINE",
"798 899 OFFCURVE",
"718 907 OFFCURVE",
"662 907 CURVE SMOOTH",
"423 907 OFFCURVE",
"267 718 OFFCURVE",
"267 431 CURVE SMOOTH",
"267 243 OFFCURVE",
"372 116 OFFCURVE",
"535 116 CURVE SMOOTH",
"633 116 OFFCURVE",
"760 185 OFFCURVE",
"852 287 CURVE"
);
},
{
closed = 1;
nodes = (
"1016 104 LINE SMOOTH",
"1016 -294 OFFCURVE",
"866 -464 OFFCURVE",
"517 -464 CURVE SMOOTH",
"424 -464 OFFCURVE",
"290 -440 OFFCURVE",
"181 -403 CURVE",
"200 -250 LINE",
"292 -296 OFFCURVE",
"414 -327 OFFCURVE",
"503 -327 CURVE SMOOTH",
"747 -327 OFFCURVE",
"851 -227 OFFCURVE",
"851 6 CURVE SMOOTH",
"851 129 LINE",
"764 38 OFFCURVE",
"625 -22 OFFCURVE",
"503 -22 CURVE SMOOTH",
"262 -22 OFFCURVE",
"96.9999 155 OFFCURVE",
"96.9999 422 CURVE SMOOTH",
"96.9999 800 OFFCURVE",
"327 1048 OFFCURVE",
"664 1048 CURVE SMOOTH",
"788 1048 OFFCURVE",
"912 1016 OFFCURVE",
"1016 954 CURVE"
);
}
);
width = 1143;
}
);
unicode = 0067;
},
{
glyphname = h;
layers = (
{
layerId = "E08CDE4C-5D6C-43D8-8149-5F9E51F0B944";
name = Bold;
paths = (
{
closed = 1;
nodes = (
"316 0 LINE",
"152 0 LINE",
"152 1506 LINE",
"316 1526 LINE"
);
},
{
closed = 1;
nodes = (
"939 1048 OFFCURVE",
"1036 856 OFFCURVE",
"1033 565 CURVE SMOOTH",
"1031 357 LINE SMOOTH",
"1030 209 OFFCURVE",
"1063 127 OFFCURVE",
"1167 106 CURVE",
"1141 -25 LINE",
"944 -22 OFFCURVE",
"866 103 OFFCURVE",
"866 346 CURVE SMOOTH",
"866 352 LINE",
"868 562 LINE SMOOTH",
"868 767 OFFCURVE",
"839 908 OFFCURVE",
"628 908 CURVE SMOOTH",
"480 908 OFFCURVE",
"316 772 OFFCURVE",
"316 567 CURVE",
"315 868 LINE",
"384 983.999 OFFCURVE",
"516 1048 OFFCURVE",
"666 1048 CURVE SMOOTH"
);
}
);
width = 1224;
}
);
unicode = 0068;
},
{
glyphname = i;
layers = (
{
layerId = "E08CDE4C-5D6C-43D8-8149-5F9E51F0B944";
name = Bold;
paths = (
{
closed = 1;
nodes = (
"144 1411 OFFCURVE",
"198 1444 OFFCURVE",
"252 1444 CURVE SMOOTH",
"306 1444 OFFCURVE",
"359 1410 OFFCURVE",
"359 1344 CURVE SMOOTH",
"359 1278 OFFCURVE",
"305 1245 OFFCURVE",
"251 1245 CURVE SMOOTH",
"197 1245 OFFCURVE",
"144 1279 OFFCURVE",
"144 1345 CURVE SMOOTH"
);
},
{
closed = 1;
nodes = (
"167 1026 LINE",
"331 1026 LINE",
"331 283 LINE SMOOTH",
"331 143 OFFCURVE",
"389 118 OFFCURVE",
"457 118 CURVE SMOOTH",
"487 118 OFFCURVE",
"545 128 OFFCURVE",
"580 141 CURVE",
"600 30 LINE",
"550 9.99999 OFFCURVE",
"481 -5 OFFCURVE",
"434 -5 CURVE SMOOTH",
"292 -5 OFFCURVE",
"167 67 OFFCURVE",
"167 278 CURVE SMOOTH"
);
}
);
width = 603;
}
);
unicode = 0069;
},
{
glyphname = j;
layers = (
{
layerId = "E08CDE4C-5D6C-43D8-8149-5F9E51F0B944";
name = Bold;
paths = (
{
closed = 1;
nodes = (
"345 1444 OFFCURVE",
"398 1410 OFFCURVE",
"398 1344 CURVE SMOOTH",
"398 1278 OFFCURVE",
"344 1245 OFFCURVE",
"290 1245 CURVE SMOOTH",
"236 1245 OFFCURVE",
"183 1279 OFFCURVE",
"183 1345 CURVE SMOOTH",
"183 1411 OFFCURVE",
"237 1444 OFFCURVE",
"291 1444 CURVE SMOOTH"
);
},
{
closed = 1;
nodes = (
"133 -330 OFFCURVE",
"207 -254 OFFCURVE",
"207 -2 CURVE SMOOTH",
"207 1026 LINE",
"371 1026 LINE",
"371 4 LINE SMOOTH",
"371 -332 OFFCURVE",
"253 -465 OFFCURVE",
"64 -465 CURVE SMOOTH",
"11 -465 OFFCURVE",
"-47 -454 OFFCURVE",
"-110 -435 CURVE",
"-91 -312 LINE",
"-51 -323 OFFCURVE",
"-13 -330 OFFCURVE",
"21 -330 CURVE SMOOTH"
);
}
);
width = 539;
}
);
unicode = 006A;
},
{
glyphname = k;
layers = (
{
layerId = "E08CDE4C-5D6C-43D8-8149-5F9E51F0B944";
name = Bold;
paths = (
{
closed = 1;
nodes = (
"277 0 LINE",
"152 0 LINE",
"152 1496 LINE",
"316 1526 LINE",
"316 308 LINE",
"832 1026 LINE",
"980.999 975.999 LINE",
"694 580 LINE",
"891 270 LINE SMOOTH",
"962 158 OFFCURVE",
"1040 88 OFFCURVE",
"1113 79 CURVE",
"1044 -45 LINE",
"940 -26 OFFCURVE",
"848 55 OFFCURVE",
"763 189 CURVE SMOOTH",
"602 445 LINE"
);
}
);
width = 1107;
}
);
unicode = 006B;
},
{
glyphname = l;
layers = (
{
layerId = "E08CDE4C-5D6C-43D8-8149-5F9E51F0B944";
name = Bold;
paths = (
{
closed = 1;
nodes = (
"266 -11 OFFCURVE",
"168 126 OFFCURVE",
"168 300 CURVE SMOOTH",
"168 1496 LINE",
"332 1526 LINE",
"332 292 LINE SMOOTH",
"332 178 OFFCURVE",
"410 124 OFFCURVE",
"509 124 CURVE SMOOTH",
"556 124 OFFCURVE",
"617 137 OFFCURVE",
"665 153 CURVE",
"690 25 LINE",
"609 0 OFFCURVE",
"527 -11 OFFCURVE",
"473 -11 CURVE SMOOTH"
);
}
);
width = 686;
}
);
unicode = 006C;
},
{
glyphname = m;
lastChange = "2013-01-15 11:57:32 -0800";
layers = (
{
layerId = "E08CDE4C-5D6C-43D8-8149-5F9E51F0B944";
name = Bold;
paths = (
{
closed = 1;
nodes = (
"381 652 LINE",
"381 0 LINE",
"163 0 LINE",
"163 699 LINE",
"163 824 OFFCURVE",
"148 923 OFFCURVE",
"128 994 CURVE",
"336 1026 LINE",
"347 1001 OFFCURVE",
"368 902 OFFCURVE",
"368 865 CURVE"
);
},
{
closed = 1;
nodes = (
"991 1048 OFFCURVE",
"1097 856 OFFCURVE",
"1098 565 CURVE SMOOTH",
"1099 0 LINE",
"877 0 LINE",
"878 562 LINE",
"879 767 OFFCURVE",
"821 870 OFFCURVE",
"680 870 CURVE SMOOTH",
"582 870 OFFCURVE",
"441 830 OFFCURVE",
"381 632 CURVE",
"328 816 LINE",
"387 940 OFFCURVE",
"508 1048 OFFCURVE",
"718 1048 CURVE SMOOTH"
);
},
{
closed = 1;
nodes = (
"1706 1048 OFFCURVE",
"1814 856 OFFCURVE",
"1813 565 CURVE SMOOTH",
"1812 343 LINE",
"1811 195 OFFCURVE",
"1844 153 OFFCURVE",
"1948 132 CURVE",
"1922 -39 LINE",
"1725 -36 OFFCURVE",
"1592 49 OFFCURVE",
"1592 292 CURVE SMOOTH",
"1592 298 LINE",
"1593 562 LINE",
"1594 767 OFFCURVE",
"1536 870 OFFCURVE",
"1395 870 CURVE SMOOTH",
"1297 870 OFFCURVE",
"1156 830 OFFCURVE",
"1096 632 CURVE",
"1020 816 LINE",
"1079 940 OFFCURVE",
"1223 1048 OFFCURVE",
"1433 1048 CURVE SMOOTH"
);
}
);
width = 1958;
}
);
unicode = 006D;
},
{
glyphname = n;
lastChange = "2013-01-15 11:32:15 -0800";
layers = (
{
layerId = "E08CDE4C-5D6C-43D8-8149-5F9E51F0B944";
name = Bold;
paths = (
{
closed = 1;
nodes = (
"381 652 LINE",
"381 0 LINE",
"163 0 LINE",
"163 699 LINE SMOOTH",
"163 824 OFFCURVE",
"148 923 OFFCURVE",
"128 994 CURVE",
"336 1026 LINE",
"347 1001 OFFCURVE",
"368 902 OFFCURVE",
"368 865 CURVE"
);
},
{
closed = 1;
nodes = (
"991 1048 OFFCURVE",
"1099 856 OFFCURVE",
"1098 565 CURVE SMOOTH",
"1097 343 LINE SMOOTH",
"1096 195 OFFCURVE",
"1129 153 OFFCURVE",
"1233 132 CURVE",
"1207 -39 LINE",
"1010 -36 OFFCURVE",
"877 49 OFFCURVE",
"877 292 CURVE SMOOTH",
"877 298 LINE",
"878 562 LINE SMOOTH",
"879 767 OFFCURVE",
"821 870 OFFCURVE",
"680 870 CURVE SMOOTH",
"582 870 OFFCURVE",
"441 830 OFFCURVE",
"381 632 CURVE",
"328 816 LINE",
"387 940 OFFCURVE",
"508 1048 OFFCURVE",
"718 1048 CURVE SMOOTH"
);
}
);
width = 1246;
}
);
unicode = 006E;
},
{
glyphname = o;
lastChange = "2013-01-15 11:25:52 -0800";
layers = (
{
layerId = "E08CDE4C-5D6C-43D8-8149-5F9E51F0B944";
name = Bold;
paths = (
{
closed = 1;
nodes = (
"945 1048 OFFCURVE",
"1150 842 OFFCURVE",
"1150 513 CURVE SMOOTH",
"1150 184 OFFCURVE",
"946 -22 OFFCURVE",
"620 -22 CURVE SMOOTH",
"288 -22 OFFCURVE",
"80 184 OFFCURVE",
"80 511 CURVE SMOOTH",
"80 841 OFFCURVE",
"288 1048 OFFCURVE",
"619 1048 CURVE SMOOTH"
);
},
{
closed = 1;
nodes = (
"935 732 OFFCURVE",
"813 871 OFFCURVE",
"619 871 CURVE SMOOTH",
"420 871 OFFCURVE",
"295 731 OFFCURVE",
"295 509 CURVE SMOOTH",
"295 290 OFFCURVE",
"420 152 OFFCURVE",
"620 152 CURVE SMOOTH",
"813 152 OFFCURVE",
"935 290 OFFCURVE",
"935 511 CURVE SMOOTH"
);
}
);
width = 1230;
}
);
unicode = 006F;
},
{
glyphname = p;
layers = (
{
layerId = "E08CDE4C-5D6C-43D8-8149-5F9E51F0B944";
name = Bold;
paths = (
{
closed = 1;
nodes = (
"331 880 LINE",
"410 985.999 OFFCURVE",
"543 1048 OFFCURVE",
"676 1048 CURVE SMOOTH",
"965 1048 OFFCURVE",
"1143 849 OFFCURVE",
"1143 527 CURVE SMOOTH",
"1143 189 OFFCURVE",
"965 -22 OFFCURVE",
"676 -22 CURVE SMOOTH",
"540 -22 OFFCURVE",
"407 23 OFFCURVE",
"331 94.9999 CURVE",
"331 -409 LINE",
"167 -427 LINE",
"167 758 LINE SMOOTH",
"167 846 OFFCURVE",
"153 956 OFFCURVE",
"148 1003 CURVE",
"315 1026 LINE"
);
},
{
closed = 1;
nodes = (
"972.999 760 OFFCURVE",
"850 907 OFFCURVE",
"658 907 CURVE SMOOTH",
"457 907 OFFCURVE",
"330 750 OFFCURVE",
"330 494 CURVE SMOOTH",
"330 268 LINE",
"398 175 OFFCURVE",
"522 116 OFFCURVE",
"652 116 CURVE SMOOTH",
"848 116 OFFCURVE",
"972.999 273 OFFCURVE",
"972.999 521 CURVE SMOOTH"
);
}
);
width = 1233;
}
);
unicode = 0070;
},
{
glyphname = q;
layers = (
{
layerId = "E08CDE4C-5D6C-43D8-8149-5F9E51F0B944";
name = Bold;
paths = (
{
closed = 1;
nodes = (
"1089 1026 LINE",
"1084 991.999 OFFCURVE",
"1071 916 OFFCURVE",
"1071 813 CURVE SMOOTH",
"1071 -355 LINE",
"1111 -335 OFFCURVE",
"1323 -221 OFFCURVE",
"1323 -221 CURVE",
"1395 -343 LINE",
"1358 -363 OFFCURVE",
"1070 -515 OFFCURVE",
"1021 -539 CURVE",
"907 -426 LINE",
"907 128 LINE",
"829 33 OFFCURVE",
"711 -22 OFFCURVE",
"569 -22 CURVE SMOOTH",
"265 -22 OFFCURVE",
"90 203 OFFCURVE",
"90 506 CURVE SMOOTH",
"90 815 OFFCURVE",
"271 1048 OFFCURVE",
"581 1048 CURVE SMOOTH",
"769 1048 OFFCURVE",
"850 984.999 OFFCURVE",
"907 888 CURVE",
"922 1026 LINE"
);
},
{
closed = 1;
nodes = (
"907 543 LINE SMOOTH",
"907 759 OFFCURVE",
"802 907 OFFCURVE",
"587 907 CURVE SMOOTH",
"358 907 OFFCURVE",
"260 736 OFFCURVE",
"260 507 CURVE SMOOTH",
"260 284 OFFCURVE",
"363 116 OFFCURVE",
"586 116 CURVE SMOOTH",
"720 116 OFFCURVE",
"856 212 OFFCURVE",
"907 302 CURVE"
);
}
);
width = 1235;
}
);
unicode = 0071;
},
{
glyphname = r;
layers = (
{
layerId = "E08CDE4C-5D6C-43D8-8149-5F9E51F0B944";
name = Bold;
paths = (
{
closed = 1;
nodes = (
"761 883 LINE",
"744 889 OFFCURVE",
"701 907 OFFCURVE",
"616 907 CURVE SMOOTH",
"470 907 OFFCURVE",
"346 803 OFFCURVE",
"346 568 CURVE SMOOTH",
"346 0 LINE",
"182 0 LINE",
"182 779 LINE SMOOTH",
"182 861 OFFCURVE",
"162 955 OFFCURVE",
"156 1001 CURVE",
"320 1026 LINE",
"346 871 LINE",
"394 967.999 OFFCURVE",
"493 1048 OFFCURVE",
"621 1048 CURVE SMOOTH",
"704 1048 OFFCURVE",
"739 1038 OFFCURVE",
"775 1028 CURVE"
);
}
);
width = 795;
}
);
unicode = 0072;
},
{
glyphname = s;
layers = (
{
layerId = "E08CDE4C-5D6C-43D8-8149-5F9E51F0B944";
name = Bold;
paths = (
{
closed = 1;
nodes = (
"652 361 OFFCURVE",
"601 402 OFFCURVE",
"409 463 CURVE SMOOTH",
"193 532 OFFCURVE",
"108 612 OFFCURVE",
"108 771 CURVE SMOOTH",
"108 946 OFFCURVE",
"240 1048 OFFCURVE",
"451 1048 CURVE SMOOTH",
"577 1048 OFFCURVE",
"702 1008 OFFCURVE",
"775 967 CURVE",
"731 832 LINE",
"673 861 OFFCURVE",
"590 907 OFFCURVE",
"450 907 CURVE SMOOTH",
"334 907 OFFCURVE",
"272 862 OFFCURVE",
"272 774 CURVE SMOOTH",
"272 691 OFFCURVE",
"330 654 OFFCURVE",
"501 596 CURVE SMOOTH",
"724 520 OFFCURVE",
"811 445 OFFCURVE",
"811 284 CURVE SMOOTH",
"811 17 OFFCURVE",
"585 -22 OFFCURVE",
"456 -22 CURVE SMOOTH",
"314 -22 OFFCURVE",
"183 16 OFFCURVE",
"108 71 CURVE",
"128 222 LINE",
"199 160 OFFCURVE",
"320 116 OFFCURVE",
"444 116 CURVE SMOOTH",
"551 116 OFFCURVE",
"652 126 OFFCURVE",
"652 268 CURVE SMOOTH"
);
}
);
width = 907;
}
);
unicode = 0073;
},
{
glyphname = t;
layers = (
{
layerId = "E08CDE4C-5D6C-43D8-8149-5F9E51F0B944";
name = Bold;
paths = (
{
closed = 1;
nodes = (
"228 919 LINE",
"228 300 LINE SMOOTH",
"228 84 OFFCURVE",
"328 -8 OFFCURVE",
"560 -8 CURVE SMOOTH",
"617 -8 OFFCURVE",
"728 13 OFFCURVE",
"791 35 CURVE",
"772 152 LINE",
"725 134 OFFCURVE",
"625 113 OFFCURVE",
"579 113 CURVE SMOOTH",
"449 113 OFFCURVE",
"392 167 OFFCURVE",
"392 292 CURVE SMOOTH",
"392 919 LINE",
"729 919 LINE",
"729 1026 LINE",
"392 1026 LINE",
"392 1345 LINE",
"233 1298 LINE",
"233 1026 LINE",
"25 1026 LINE",
"25 919 LINE"
);
}
);
width = 821;
}
);
unicode = 0074;
},
{
glyphname = u;
layers = (
{
layerId = "E08CDE4C-5D6C-43D8-8149-5F9E51F0B944";
name = Bold;
paths = (
{
closed = 1;
nodes = (
"315 365 LINE SMOOTH",
"310 169 OFFCURVE",
"431 116 OFFCURVE",
"552 116 CURVE SMOOTH",
"717 116 OFFCURVE",
"855 231 OFFCURVE",
"855 427 CURVE SMOOTH",
"855 1026 LINE",
"1019 1026 LINE",
"1019 286 LINE SMOOTH",
"1019 170 OFFCURVE",
"1101 139 OFFCURVE",
"1153 139 CURVE",
"1118 -4 LINE",
"1021 -4 OFFCURVE",
"913 53 OFFCURVE",
"886 164 CURVE",
"809 40 OFFCURVE",
"685 -22 OFFCURVE",
"527 -22 CURVE SMOOTH",
"333 -22 OFFCURVE",
"142 80 OFFCURVE",
"150 365 CURVE SMOOTH",
"156 582 LINE SMOOTH",
"165 871 OFFCURVE",
"117 999.999 OFFCURVE",
"117 999.999 CURVE",
"282 1026 LINE",
"282 1026 OFFCURVE",
"330 911 OFFCURVE",
"321 595 CURVE SMOOTH"
);
}
);
width = 1201;
}
);
unicode = 0075;
},
{
glyphname = v;
layers = (
{
layerId = "E08CDE4C-5D6C-43D8-8149-5F9E51F0B944";
name = Bold;
paths = (
{
closed = 1;
nodes = (
"14 1026 LINE",
"196 1026 LINE",
"477 336 LINE SMOOTH",
"496 290 OFFCURVE",
"519 217 OFFCURVE",
"535 163 CURVE",
"566 264 OFFCURVE",
"579 309 OFFCURVE",
"591 336 CURVE",
"867 1026 LINE",
"1044 1026 LINE",
"611 0 LINE",
"443 0 LINE"
);
}
);
width = 1063;
}
);
unicode = 0076;
},
{
glyphname = w;
layers = (
{
layerId = "E08CDE4C-5D6C-43D8-8149-5F9E51F0B944";
name = Bold;
paths = (
{
closed = 1;
nodes = (
"201 1026 LINE",
"450 284 LINE SMOOTH",
"460 255 OFFCURVE",
"469 217 OFFCURVE",
"479 186 CURVE",
"489 214 OFFCURVE",
"498 249 OFFCURVE",
"510 276 CURVE",
"775 1026 LINE",
"941 1026 LINE",
"1189 286 LINE SMOOTH",
"1199 258 OFFCURVE",
"1208 219 OFFCURVE",
"1218 189 CURVE",
"1231 219 OFFCURVE",
"1240 255 OFFCURVE",
"1252 287 CURVE",
"1492 1026 LINE",
"1661 1026 LINE",
"1293 0 LINE",
"1133 0 LINE",
"852 831 LINE",
"552 0 LINE",
"390 0 LINE",
"25 1026 LINE"
);
}
);
width = 1695;
}
);
unicode = 0077;
},
{
glyphname = x;
layers = (
{
layerId = "E08CDE4C-5D6C-43D8-8149-5F9E51F0B944";
name = Bold;
paths = (
{
closed = 1;
nodes = (
"448 514 LINE",
"67 1026 LINE",
"270 1026 LINE",
"558 626 LINE",
"847 1026 LINE",
"1026 1026 LINE",
"648 518 LINE",
"1039 0 LINE",
"838 0 LINE",
"542 408 LINE",
"238 0 LINE",
"48 0 LINE"
);
}
);
width = 1087;
}
);
unicode = 0078;
},
{
glyphname = y;
layers = (
{
layerId = "E08CDE4C-5D6C-43D8-8149-5F9E51F0B944";
name = Bold;
paths = (
{
closed = 1;
nodes = (
"1033 1026 LINE",
"869 1026 LINE",
"869 496 LINE SMOOTH",
"869 308 OFFCURVE",
"756 116 OFFCURVE",
"568 116 CURVE SMOOTH",
"431 116 OFFCURVE",
"318 216 OFFCURVE",
"318 398 CURVE SMOOTH",
"321 644 LINE SMOOTH",
"321 923 OFFCURVE",
"282 1026 OFFCURVE",
"282 1026 CURVE",
"117 999.999 LINE",
"117 999.999 OFFCURVE",
"156 884 OFFCURVE",
"156 627 CURVE SMOOTH",
"153 399 LINE SMOOTH",
"145 172 OFFCURVE",
"286 -22 OFFCURVE",
"543 -22 CURVE SMOOTH",
"646 -22 OFFCURVE",
"799 23 OFFCURVE",
"869 145 CURVE",
"869 46 LINE SMOOTH",
"869 -159 OFFCURVE",
"739 -327 OFFCURVE",
"520 -327 CURVE SMOOTH",
"440 -327 OFFCURVE",
"317 -300 OFFCURVE",
"217 -250 CURVE",
"198 -403 LINE",
"290 -436 OFFCURVE",
"428 -464 OFFCURVE",
"534 -464 CURVE SMOOTH",
"798 -464 OFFCURVE",
"1033 -286 OFFCURVE",
"1033 67 CURVE SMOOTH"
);
}
);
width = 1186;
}
);
unicode = 0079;
},
{
glyphname = z;
layers = (
{
layerId = "E08CDE4C-5D6C-43D8-8149-5F9E51F0B944";
name = Bold;
paths = (
{
closed = 1;
nodes = (
"80 89 LINE",
"680 891 LINE",
"106 891 LINE",
"106 1026 LINE",
"903 1026 LINE",
"903 939 LINE",
"305 134 LINE",
"920 134 LINE",
"920 0 LINE",
"80 0 LINE"
);
}
);
width = 978;
}
);
unicode = 007A;
},
{
glyphname = braceleft;
layers = (
{
layerId = "E08CDE4C-5D6C-43D8-8149-5F9E51F0B944";
name = Bold;
paths = (
{
closed = 1;
nodes = (
"405 261 OFFCURVE",
"403 172 OFFCURVE",
"403 107 CURVE SMOOTH",
"403 -2 OFFCURVE",
"411 -95 OFFCURVE",
"488 -122 CURVE SMOOTH",
"509 -129 OFFCURVE",
"535 -133 OFFCURVE",
"566 -133 CURVE",
"566 -259 LINE",
"380 -251 OFFCURVE",
"243 -183 OFFCURVE",
"243 11 CURVE SMOOTH",
"244 274 LINE SMOOTH",
"244 422 OFFCURVE",
"222 520 OFFCURVE",
"86 534 CURVE",
"86 656 LINE",
"206 667 OFFCURVE",
"247 759 OFFCURVE",
"247 890 CURVE",
"246 932 OFFCURVE",
"245 973.999 OFFCURVE",
"245 1016 CURVE SMOOTH",
"245 1058 OFFCURVE",
"244 1101 OFFCURVE",
"243 1143 CURVE",
"243 1356 OFFCURVE",
"350 1451 OFFCURVE",
"566 1451 CURVE",
"566 1325 LINE",
"454 1322 OFFCURVE",
"409 1273 OFFCURVE",
"409 1157 CURVE SMOOTH",
"408 868 LINE SMOOTH",
"408 737 OFFCURVE",
"351 640 OFFCURVE",
"268 595 CURVE",
"360 552 OFFCURVE",
"405 455 OFFCURVE",
"405 325 CURVE SMOOTH"
);
}
);
width = 627;
}
);
unicode = 007B;
},
{
glyphname = bar;
layers = (
{
layerId = "E08CDE4C-5D6C-43D8-8149-5F9E51F0B944";
name = Bold;
paths = (
{
closed = 1;
nodes = (
"168 -491 LINE",
"168 1545 LINE",
"325 1545 LINE",
"325 -491 LINE"
);
}
);
width = 500;
}
);
unicode = 007C;
},
{
glyphname = braceright;
layers = (
{
layerId = "E08CDE4C-5D6C-43D8-8149-5F9E51F0B944";
name = Bold;
paths = (
{
closed = 1;
nodes = (
"385 759 OFFCURVE",
"427 667 OFFCURVE",
"547 656 CURVE",
"546 534 LINE",
"445 524 OFFCURVE",
"396 466 OFFCURVE",
"390 364 CURVE SMOOTH",
"388 334 OFFCURVE",
"388 305 OFFCURVE",
"388 274 CURVE SMOOTH",
"389 11 LINE SMOOTH",
"389 -183 OFFCURVE",
"252 -251 OFFCURVE",
"66 -259 CURVE",
"66 -133 LINE",
"166 -133 OFFCURVE",
"206 -96 OFFCURVE",
"221 -10 CURVE SMOOTH",
"226 21 OFFCURVE",
"229 60 OFFCURVE",
"229 107 CURVE SMOOTH",
"229 172 OFFCURVE",
"227 260 OFFCURVE",
"227 325 CURVE SMOOTH",
"227 455 OFFCURVE",
"272 552 OFFCURVE",
"364 595 CURVE",
"279 639 OFFCURVE",
"224 736 OFFCURVE",
"224 868 CURVE",
"223 1157 LINE",
"223 1273 OFFCURVE",
"178 1322 OFFCURVE",
"66 1325 CURVE",
"66 1451 LINE",
"281 1451 OFFCURVE",
"389 1356 OFFCURVE",
"389 1143 CURVE SMOOTH",
"388 1101 OFFCURVE",
"387 1058 OFFCURVE",
"387 1016 CURVE SMOOTH",
"387 973.999 OFFCURVE",
"386 932 OFFCURVE",
"385 890 CURVE SMOOTH"
);
}
);
width = 627;
}
);
unicode = 007D;
},
{
glyphname = asciitilde;
layers = (
{
layerId = "E08CDE4C-5D6C-43D8-8149-5F9E51F0B944";
name = Bold;
paths = (
{
closed = 1;
nodes = (
"552 705 OFFCURVE",
"609 683 OFFCURVE",
"658 664 CURVE SMOOTH",
"739 632 OFFCURVE",
"819 587 OFFCURVE",
"900 557 CURVE SMOOTH",
"922 549 OFFCURVE",
"941 545 OFFCURVE",
"957 545 CURVE SMOOTH",
"1057 545 OFFCURVE",
"1112 641 OFFCURVE",
"1131 723 CURVE",
"1256 684 LINE",
"1228 566 OFFCURVE",
"1167 473 OFFCURVE",
"1065 430 CURVE SMOOTH",
"1032 416 OFFCURVE",
"995.999 410 OFFCURVE",
"956 410 CURVE SMOOTH",
"904 410 OFFCURVE",
"852 433 OFFCURVE",
"810 452 CURVE SMOOTH",
"731 487 OFFCURVE",
"650 532 OFFCURVE",
"564 559 CURVE SMOOTH",
"538 567 OFFCURVE",
"515 571 OFFCURVE",
"494 571 CURVE SMOOTH",
"384 571 OFFCURVE",
"325 475 OFFCURVE",
"304 385 CURVE",
"189 440 LINE",
"213 553 OFFCURVE",
"280 641 OFFCURVE",
"377 683 CURVE SMOOTH",
"411 698 OFFCURVE",
"449 705 OFFCURVE",
"491 705 CURVE SMOOTH"
);
}
);
width = 1458;
}
);
unicode = 007E;
},
{
glyphname = Adieresis;
layers = (
{
layerId = "E08CDE4C-5D6C-43D8-8149-5F9E51F0B944";
name = Bold;
paths = (
{
closed = 1;
nodes = (
"199 0 LINE",
"13 0 LINE",
"617 1456 LINE",
"802 1456 LINE",
"1407 0 LINE",
"1216 0 LINE",
"1053 397 LINE",
"355 397 LINE"
);
},
{
closed = 1;
nodes = (
"410 545 LINE",
"993.999 545 LINE",
"760 1150 LINE",
"742 1192 OFFCURVE",
"721 1252 OFFCURVE",
"707 1298 CURVE",
"692 1252 OFFCURVE",
"670 1191 OFFCURVE",
"655 1149 CURVE"
);
},
{
closed = 1;
nodes = (
"629 1613 LINE",
"465 1613 LINE",
"465 1776 LINE",
"629 1776 LINE"
);
},
{
closed = 1;
nodes = (
"961 1613 LINE",
"797 1613 LINE",
"797 1776 LINE",
"961 1776 LINE"
);
}
);
width = 1425;
}
);
unicode = 00C4;
},
{
glyphname = Aring;
layers = (
{
layerId = "E08CDE4C-5D6C-43D8-8149-5F9E51F0B944";
name = Bold;
paths = (
{
closed = 1;
nodes = (
"199 0 LINE",
"13 0 LINE",
"617 1456 LINE",
"802 1456 LINE",
"1407 0 LINE",
"1216 0 LINE",
"1053 397 LINE",
"355 397 LINE"
);
},
{
closed = 1;
nodes = (
"410 545 LINE",
"993.999 545 LINE",
"760 1150 LINE",
"742 1192 OFFCURVE",
"721 1252 OFFCURVE",
"707 1298 CURVE",
"692 1252 OFFCURVE",
"670 1191 OFFCURVE",
"655 1149 CURVE"
);
},
{
closed = 1;
nodes = (
"772 1665 OFFCURVE",
"823 1710 OFFCURVE",
"823 1770 CURVE SMOOTH",
"823 1832 OFFCURVE",
"774 1875 OFFCURVE",
"712 1875 CURVE SMOOTH",
"652 1875 OFFCURVE",
"602 1830 OFFCURVE",
"602 1770 CURVE SMOOTH",
"602 1706 OFFCURVE",
"647 1665 OFFCURVE",
"712 1665 CURVE SMOOTH"
);
},
{
closed = 1;
nodes = (
"503 1861 OFFCURVE",
"563 1920 OFFCURVE",
"631 1946 CURVE SMOOTH",
"656 1956 OFFCURVE",
"684 1960 OFFCURVE",
"713 1960 CURVE SMOOTH",
"808 1960 OFFCURVE",
"877 1910 OFFCURVE",
"907 1844 CURVE SMOOTH",
"918 1821 OFFCURVE",
"923 1796 OFFCURVE",
"923 1770 CURVE SMOOTH",
"923 1679 OFFCURVE",
"861 1620 OFFCURVE",
"794 1594 CURVE SMOOTH",
"769 1584 OFFCURVE",
"742 1579 OFFCURVE",
"714 1579 CURVE SMOOTH",
"619 1579 OFFCURVE",
"550 1629 OFFCURVE",
"519 1694 CURVE SMOOTH",
"508 1717 OFFCURVE",
"503 1742 OFFCURVE",
"503 1769 CURVE SMOOTH"
);
}
);
width = 1425;
}
);
unicode = 00C5;
},
{
glyphname = Ccedilla;
layers = (
{
layerId = "E08CDE4C-5D6C-43D8-8149-5F9E51F0B944";
name = Bold;
paths = (
{
closed = 1;
nodes = (
"1006 123 OFFCURVE",
"1141 179 OFFCURVE",
"1242 267 CURVE",
"1299 127 LINE",
"1180 31 OFFCURVE",
"1021 -22 OFFCURVE",
"820 -22 CURVE SMOOTH",
"379 -22 OFFCURVE",
"116 287 OFFCURVE",
"116 726 CURVE SMOOTH",
"116 1168 OFFCURVE",
"394 1483 OFFCURVE",
"822 1483 CURVE SMOOTH",
"1042 1483 OFFCURVE",
"1175 1414 OFFCURVE",
"1285 1332 CURVE",
"1206 1206 LINE",
"1105 1283 OFFCURVE",
"977.999 1334 OFFCURVE",
"841 1334 CURVE SMOOTH",
"487 1334 OFFCURVE",
"299 1076 OFFCURVE",
"299 725 CURVE SMOOTH",
"299 382 OFFCURVE",
"469 123 OFFCURVE",
"825 123 CURVE SMOOTH"
);
},
{
closed = 1;
nodes = (
"753 -396 OFFCURVE",
"692 -385 OFFCURVE",
"638 -374 CURVE",
"646 -289 LINE",
"696 -301 OFFCURVE",
"743 -313 OFFCURVE",
"797 -313 CURVE SMOOTH",
"863 -313 OFFCURVE",
"911 -297 OFFCURVE",
"911 -241 CURVE SMOOTH",
"911 -182 OFFCURVE",
"862 -168 OFFCURVE",
"802 -168 CURVE SMOOTH",
"793 -168 OFFCURVE",
"776 -170 OFFCURVE",
"765 -171 CURVE SMOOTH",
"733 -173 LINE",
"766 17 LINE",
"863 17 LINE",
"845 -90 LINE",
"854 -90 LINE",
"958 -95 OFFCURVE",
"1054 -131 OFFCURVE",
"1054 -239 CURVE SMOOTH",
"1054 -359 OFFCURVE",
"934 -396 OFFCURVE",
"813 -396 CURVE SMOOTH"
);
}
);
width = 1429;
}
);
unicode = 00C7;
},
{
glyphname = Eacute;
layers = (
{
layerId = "E08CDE4C-5D6C-43D8-8149-5F9E51F0B944";
name = Bold;
paths = (
{
closed = 1;
nodes = (
"1117 0 LINE",
"200 0 LINE",
"200 1456 LINE",
"1067 1456 LINE",
"1067 1308 LINE",
"372 1308 LINE",
"372 820 LINE",
"1029 820 LINE",
"1029 672 LINE",
"372 672 LINE",
"372 148 LINE",
"1117 148 LINE"
);
},
{
closed = 1;
nodes = (
"814 1922 LINE",
"1026 1922 LINE",
"718 1602 LINE",
"588 1602 LINE"
);
}
);
width = 1213;
}
);
unicode = 00C9;
},
{
glyphname = Ntilde;
layers = (
{
layerId = "E08CDE4C-5D6C-43D8-8149-5F9E51F0B944";
name = Bold;
paths = (
{
closed = 1;
nodes = (
"200 0 LINE",
"200 1456 LINE",
"406 1456 LINE",
"1153 342 LINE",
"1231 215 LINE",
"1231 1456 LINE",
"1402 1456 LINE",
"1402 0 LINE",
"1194 0 LINE",
"444 1113 LINE",
"372 1237 LINE",
"372 0 LINE"
);
},
{
closed = 1;
nodes = (
"980.999 1775 OFFCURVE",
"1008 1814 OFFCURVE",
"1015 1865 CURVE",
"1123 1865 LINE",
"1110 1752 OFFCURVE",
"1052 1650 OFFCURVE",
"928 1650 CURVE SMOOTH",
"832 1650 OFFCURVE",
"770 1718 OFFCURVE",
"675 1718 CURVE SMOOTH",
"621 1718 OFFCURVE",
"591 1690 OFFCURVE",
"584 1633 CURVE",
"479 1633 LINE",
"489 1749 OFFCURVE",
"554 1843 OFFCURVE",
"678 1843 CURVE SMOOTH",
"754 1843 OFFCURVE",
"811 1807 OFFCURVE",
"869 1786 CURVE SMOOTH",
"889 1779 OFFCURVE",
"909 1775 OFFCURVE",
"928 1775 CURVE SMOOTH"
);
}
);
width = 1602;
}
);
unicode = 00D1;
},
{
glyphname = Odieresis;
layers = (
{
layerId = "E08CDE4C-5D6C-43D8-8149-5F9E51F0B944";
name = Bold;
paths = (
{
closed = 1;
nodes = (
"1546 338 OFFCURVE",
"1304 -22 OFFCURVE",
"834 -22 CURVE SMOOTH",
"432 -22 OFFCURVE",
"116 218 OFFCURVE",
"116 730 CURVE SMOOTH",
"116 1122 OFFCURVE",
"360 1483 OFFCURVE",
"834 1483 CURVE SMOOTH",
"1233 1483 OFFCURVE",
"1546 1242 OFFCURVE",
"1546 730 CURVE SMOOTH"
);
},
{
closed = 1;
nodes = (
"300 390 OFFCURVE",
"471 123 OFFCURVE",
"834 123 CURVE SMOOTH",
"1106 123 OFFCURVE",
"1358 330 OFFCURVE",
"1358 729 CURVE SMOOTH",
"1358 1068 OFFCURVE",
"1190 1334 OFFCURVE",
"834 1334 CURVE SMOOTH",
"556 1334 OFFCURVE",
"300 1128 OFFCURVE",
"300 729 CURVE SMOOTH"
);
},
{
closed = 1;
nodes = (
"747 1613 LINE",
"583 1613 LINE",
"583 1776 LINE",
"747 1776 LINE"
);
},
{
closed = 1;
nodes = (
"1079 1613 LINE",
"915 1613 LINE",
"915 1776 LINE",
"1079 1776 LINE"
);
}
);
width = 1662;
}
);
unicode = 00D6;
},
{
glyphname = Udieresis;
layers = (
{
layerId = "E08CDE4C-5D6C-43D8-8149-5F9E51F0B944";
name = Bold;
paths = (
{
closed = 1;
nodes = (
"392 -22 OFFCURVE",
"191 157 OFFCURVE",
"191 541 CURVE SMOOTH",
"191 1456 LINE",
"363 1456 LINE",
"363 546 LINE SMOOTH",
"363 260 OFFCURVE",
"502 123 OFFCURVE",
"774 123 CURVE SMOOTH",
"1026 123 OFFCURVE",
"1165 279 OFFCURVE",
"1165 539 CURVE SMOOTH",
"1165 1456 LINE",
"1336 1456 LINE",
"1336 551 LINE SMOOTH",
"1334 191 OFFCURVE",
"1138 -22 OFFCURVE",
"776 -22 CURVE SMOOTH"
);
},
{
closed = 1;
nodes = (
"682 1613 LINE",
"518 1613 LINE",
"518 1776 LINE",
"682 1776 LINE"
);
},
{
closed = 1;
nodes = (
"1014 1613 LINE",
"850 1613 LINE",
"850 1776 LINE",
"1014 1776 LINE"
);
}
);
width = 1532;
}
);
unicode = 00DC;
},
{
glyphname = aacute;
layers = (
{
layerId = "E08CDE4C-5D6C-43D8-8149-5F9E51F0B944";
name = Bold;
paths = (
{
closed = 1;
nodes = (
"1022 286 LINE SMOOTH",
"1022 170 OFFCURVE",
"1095 139 OFFCURVE",
"1147 139 CURVE",
"1113 -4 LINE",
"1026 -4 OFFCURVE",
"908 46 OFFCURVE",
"881 166 CURVE",
"788 13 OFFCURVE",
"641 -22 OFFCURVE",
"519 -22 CURVE SMOOTH",
"278 -22 OFFCURVE",
"114 161 OFFCURVE",
"114 438 CURVE SMOOTH",
"114 806 OFFCURVE",
"339 1048 OFFCURVE",
"671 1048 CURVE SMOOTH",
"795 1048 OFFCURVE",
"918 1024 OFFCURVE",
"1022 962 CURVE"
);
},
{
closed = 1;
nodes = (
"858 872 LINE",
"803 899 OFFCURVE",
"724 907 OFFCURVE",
"668 907 CURVE SMOOTH",
"438 907 OFFCURVE",
"284 725 OFFCURVE",
"284 448 CURVE SMOOTH",
"284 249 OFFCURVE",
"388 116 OFFCURVE",
"544 116 CURVE SMOOTH",
"702 116 OFFCURVE",
"858 226 OFFCURVE",
"858 403 CURVE SMOOTH"
);
},
{
closed = 1;
nodes = (
"788 1492 LINE",
"999.999 1492 LINE",
"692 1172 LINE",
"562 1172 LINE"
);
}
);
width = 1218;
}
);
unicode = 00E1;
},
{
glyphname = agrave;
layers = (
{
layerId = "E08CDE4C-5D6C-43D8-8149-5F9E51F0B944";
name = Bold;
paths = (
{
closed = 1;
nodes = (
"1022 286 LINE SMOOTH",
"1022 170 OFFCURVE",
"1095 139 OFFCURVE",
"1147 139 CURVE",
"1113 -4 LINE",
"1026 -4 OFFCURVE",
"908 46 OFFCURVE",
"881 166 CURVE",
"788 13 OFFCURVE",
"641 -22 OFFCURVE",
"519 -22 CURVE SMOOTH",
"278 -22 OFFCURVE",
"114 161 OFFCURVE",
"114 438 CURVE SMOOTH",
"114 806 OFFCURVE",
"339 1048 OFFCURVE",
"671 1048 CURVE SMOOTH",
"795 1048 OFFCURVE",
"918 1024 OFFCURVE",
"1022 962 CURVE"
);
},
{
closed = 1;
nodes = (
"858 872 LINE",
"803 899 OFFCURVE",
"724 907 OFFCURVE",
"668 907 CURVE SMOOTH",
"438 907 OFFCURVE",
"284 725 OFFCURVE",
"284 448 CURVE SMOOTH",
"284 249 OFFCURVE",
"388 116 OFFCURVE",
"544 116 CURVE SMOOTH",
"702 116 OFFCURVE",
"858 226 OFFCURVE",
"858 403 CURVE SMOOTH"
);
},
{
closed = 1;
nodes = (
"276 1492 LINE",
"490 1492 LINE",
"737 1172 LINE",
"608 1172 LINE"
);
}
);
width = 1218;
}
);
unicode = 00E0;
},
{
glyphname = acircumflex;
layers = (
{
layerId = "E08CDE4C-5D6C-43D8-8149-5F9E51F0B944";
name = Bold;
paths = (
{
closed = 1;
nodes = (
"1022 286 LINE SMOOTH",
"1022 170 OFFCURVE",
"1095 139 OFFCURVE",
"1147 139 CURVE",
"1113 -4 LINE",
"1026 -4 OFFCURVE",
"908 46 OFFCURVE",
"881 166 CURVE",
"788 13 OFFCURVE",
"641 -22 OFFCURVE",
"519 -22 CURVE SMOOTH",
"278 -22 OFFCURVE",
"114 161 OFFCURVE",
"114 438 CURVE SMOOTH",
"114 806 OFFCURVE",
"339 1048 OFFCURVE",
"671 1048 CURVE SMOOTH",
"795 1048 OFFCURVE",
"918 1024 OFFCURVE",
"1022 962 CURVE"
);
},
{
closed = 1;
nodes = (
"858 872 LINE",
"803 899 OFFCURVE",
"724 907 OFFCURVE",
"668 907 CURVE SMOOTH",
"438 907 OFFCURVE",
"284 725 OFFCURVE",
"284 448 CURVE SMOOTH",
"284 249 OFFCURVE",
"388 116 OFFCURVE",
"544 116 CURVE SMOOTH",
"702 116 OFFCURVE",
"858 226 OFFCURVE",
"858 403 CURVE SMOOTH"
);
},
{
closed = 1;
nodes = (
"336 1170 LINE",
"564 1494 LINE",
"721 1494 LINE",
"950 1170 LINE",
"818 1170 LINE",
"640 1386 LINE",
"462 1170 LINE"
);
}
);
width = 1218;
}
);
unicode = 00E2;
},
{
glyphname = adieresis;
layers = (
{
layerId = "E08CDE4C-5D6C-43D8-8149-5F9E51F0B944";
name = Bold;
paths = (
{
closed = 1;
nodes = (
"1022 286 LINE SMOOTH",
"1022 170 OFFCURVE",
"1095 139 OFFCURVE",
"1147 139 CURVE",
"1113 -4 LINE",
"1026 -4 OFFCURVE",
"908 46 OFFCURVE",
"881 166 CURVE",
"788 13 OFFCURVE",
"641 -22 OFFCURVE",
"519 -22 CURVE SMOOTH",
"278 -22 OFFCURVE",
"114 161 OFFCURVE",
"114 438 CURVE SMOOTH",
"114 806 OFFCURVE",
"339 1048 OFFCURVE",
"671 1048 CURVE SMOOTH",
"795 1048 OFFCURVE",
"918 1024 OFFCURVE",
"1022 962 CURVE"
);
},
{
closed = 1;
nodes = (
"858 872 LINE",
"803 899 OFFCURVE",
"724 907 OFFCURVE",
"668 907 CURVE SMOOTH",
"438 907 OFFCURVE",
"284 725 OFFCURVE",
"284 448 CURVE SMOOTH",
"284 249 OFFCURVE",
"388 116 OFFCURVE",
"544 116 CURVE SMOOTH",
"702 116 OFFCURVE",
"858 226 OFFCURVE",
"858 403 CURVE SMOOTH"
);
},
{
closed = 1;
nodes = (
"559 1183 LINE",
"395 1183 LINE",
"395 1346 LINE",
"559 1346 LINE"
);
},
{
closed = 1;
nodes = (
"891 1183 LINE",
"727 1183 LINE",
"727 1346 LINE",
"891 1346 LINE"
);
}
);
width = 1218;
}
);
unicode = 00E4;
},
{
glyphname = atilde;
layers = (
{
layerId = "E08CDE4C-5D6C-43D8-8149-5F9E51F0B944";
name = Bold;
paths = (
{
closed = 1;
nodes = (
"1022 286 LINE SMOOTH",
"1022 170 OFFCURVE",
"1095 139 OFFCURVE",
"1147 139 CURVE",
"1113 -4 LINE",
"1026 -4 OFFCURVE",
"908 46 OFFCURVE",
"881 166 CURVE",
"788 13 OFFCURVE",
"641 -22 OFFCURVE",
"519 -22 CURVE SMOOTH",
"278 -22 OFFCURVE",
"114 161 OFFCURVE",
"114 438 CURVE SMOOTH",
"114 806 OFFCURVE",
"339 1048 OFFCURVE",
"671 1048 CURVE SMOOTH",
"795 1048 OFFCURVE",
"918 1024 OFFCURVE",
"1022 962 CURVE"
);
},
{
closed = 1;
nodes = (
"858 872 LINE",
"803 899 OFFCURVE",
"724 907 OFFCURVE",
"668 907 CURVE SMOOTH",
"438 907 OFFCURVE",
"284 725 OFFCURVE",
"284 448 CURVE SMOOTH",
"284 249 OFFCURVE",
"388 116 OFFCURVE",
"544 116 CURVE SMOOTH",
"702 116 OFFCURVE",
"858 226 OFFCURVE",
"858 403 CURVE SMOOTH"
);
},
{
closed = 1;
nodes = (
"823 1345 OFFCURVE",
"850 1384 OFFCURVE",
"857 1435 CURVE",
"965 1435 LINE",
"952 1322 OFFCURVE",
"894 1220 OFFCURVE",
"770 1220 CURVE SMOOTH",
"674 1220 OFFCURVE",
"612 1288 OFFCURVE",
"517 1288 CURVE SMOOTH",
"463 1288 OFFCURVE",
"433 1260 OFFCURVE",
"426 1203 CURVE",
"321 1203 LINE",
"331 1319 OFFCURVE",
"396 1413 OFFCURVE",
"520 1413 CURVE SMOOTH",
"596 1413 OFFCURVE",
"653 1377 OFFCURVE",
"711 1356 CURVE SMOOTH",
"731 1349 OFFCURVE",
"751 1345 OFFCURVE",
"770 1345 CURVE SMOOTH"
);
}
);
width = 1218;
}
);
unicode = 00E3;
},
{
glyphname = aring;
layers = (
{
layerId = "E08CDE4C-5D6C-43D8-8149-5F9E51F0B944";
name = Bold;
paths = (
{
closed = 1;
nodes = (
"1022 286 LINE SMOOTH",
"1022 170 OFFCURVE",
"1095 139 OFFCURVE",
"1147 139 CURVE",
"1113 -4 LINE",
"1026 -4 OFFCURVE",
"908 46 OFFCURVE",
"881 166 CURVE",
"788 13 OFFCURVE",
"641 -22 OFFCURVE",
"519 -22 CURVE SMOOTH",
"278 -22 OFFCURVE",
"114 161 OFFCURVE",
"114 438 CURVE SMOOTH",
"114 806 OFFCURVE",
"339 1048 OFFCURVE",
"671 1048 CURVE SMOOTH",
"795 1048 OFFCURVE",
"918 1024 OFFCURVE",
"1022 962 CURVE"
);
},
{
closed = 1;
nodes = (
"858 872 LINE",
"803 899 OFFCURVE",
"724 907 OFFCURVE",
"668 907 CURVE SMOOTH",
"438 907 OFFCURVE",
"284 725 OFFCURVE",
"284 448 CURVE SMOOTH",
"284 249 OFFCURVE",
"388 116 OFFCURVE",
"544 116 CURVE SMOOTH",
"702 116 OFFCURVE",
"858 226 OFFCURVE",
"858 403 CURVE SMOOTH"
);
},
{
closed = 1;
nodes = (
"702 1235 OFFCURVE",
"753 1280 OFFCURVE",
"753 1340 CURVE SMOOTH",
"753 1402 OFFCURVE",
"704 1445 OFFCURVE",
"642 1445 CURVE SMOOTH",
"582 1445 OFFCURVE",
"532 1400 OFFCURVE",
"532 1340 CURVE SMOOTH",
"532 1276 OFFCURVE",
"577 1235 OFFCURVE",
"642 1235 CURVE SMOOTH"
);
},
{
closed = 1;
nodes = (
"433 1431 OFFCURVE",
"493 1490 OFFCURVE",
"561 1516 CURVE SMOOTH",
"586 1526 OFFCURVE",
"614 1530 OFFCURVE",
"643 1530 CURVE SMOOTH",
"738 1530 OFFCURVE",
"807 1480 OFFCURVE",
"837 1414 CURVE SMOOTH",
"848 1391 OFFCURVE",
"853 1366 OFFCURVE",
"853 1340 CURVE SMOOTH",
"853 1249 OFFCURVE",
"791 1190 OFFCURVE",
"724 1164 CURVE SMOOTH",
"699 1154 OFFCURVE",
"672 1149 OFFCURVE",
"644 1149 CURVE SMOOTH",
"549 1149 OFFCURVE",
"480 1199 OFFCURVE",
"449 1264 CURVE SMOOTH",
"438 1287 OFFCURVE",
"433 1312 OFFCURVE",
"433 1339 CURVE SMOOTH"
);
}
);
width = 1218;
}
);
unicode = 00E5;
},
{
glyphname = ccedilla;
layers = (
{
layerId = "E08CDE4C-5D6C-43D8-8149-5F9E51F0B944";
name = Bold;
paths = (
{
closed = 1;
nodes = (
"988.999 117 LINE",
"864 20 OFFCURVE",
"750 -22 OFFCURVE",
"612 -22 CURVE SMOOTH",
"274 -22 OFFCURVE",
"90 222 OFFCURVE",
"90 503 CURVE SMOOTH",
"90 846 OFFCURVE",
"351 1048 OFFCURVE",
"608 1048 CURVE SMOOTH",
"752 1048 OFFCURVE",
"856 1008 OFFCURVE",
"956 912 CURVE",
"886 802 LINE",
"796 879 OFFCURVE",
"713 907 OFFCURVE",
"608 907 CURVE SMOOTH",
"437 907 OFFCURVE",
"260 762 OFFCURVE",
"260 508 CURVE SMOOTH",
"260 259 OFFCURVE",
"427 116 OFFCURVE",
"616 116 CURVE SMOOTH",
"724 116 OFFCURVE",
"817 157 OFFCURVE",
"928 238 CURVE"
);
},
{
closed = 1;
nodes = (
"559 -396 OFFCURVE",
"498 -385 OFFCURVE",
"444 -374 CURVE",
"452 -289 LINE",
"502 -301 OFFCURVE",
"549 -313 OFFCURVE",
"603 -313 CURVE SMOOTH",
"669 -313 OFFCURVE",
"717 -297 OFFCURVE",
"717 -241 CURVE SMOOTH",
"717 -182 OFFCURVE",
"668 -168 OFFCURVE",
"608 -168 CURVE SMOOTH",
"599 -168 OFFCURVE",
"582 -170 OFFCURVE",
"571 -171 CURVE SMOOTH",
"539 -173 LINE",
"572 17 LINE",
"669 17 LINE",
"651 -90 LINE",
"660 -90 LINE",
"764 -95 OFFCURVE",
"860 -131 OFFCURVE",
"860 -239 CURVE SMOOTH",
"860 -359 OFFCURVE",
"740 -396 OFFCURVE",
"619 -396 CURVE SMOOTH"
);
}
);
width = 1025;
}
);
unicode = 00E7;
},
{
glyphname = eacute;
layers = (
{
layerId = "E08CDE4C-5D6C-43D8-8149-5F9E51F0B944";
name = Bold;
paths = (
{
closed = 1;
nodes = (
"753 1498 LINE",
"965 1498 LINE",
"657 1178 LINE",
"527 1178 LINE"
);
},
{
closed = 1;
nodes = (
"736 116 OFFCURVE",
"859 176 OFFCURVE",
"926 252 CURVE",
"1009 146 LINE",
"909 43 OFFCURVE",
"757 -22 OFFCURVE",
"597 -22 CURVE SMOOTH",
"293 -22 OFFCURVE",
"90 187 OFFCURVE",
"90 516 CURVE SMOOTH",
"90 797 OFFCURVE",
"259 1048 OFFCURVE",
"588 1048 CURVE SMOOTH",
"804 1048 OFFCURVE",
"942 918 OFFCURVE",
"942 751 CURVE SMOOTH",
"942 506 OFFCURVE",
"651 425 OFFCURVE",
"285 371 CURVE",
"325 219 OFFCURVE",
"449 116 OFFCURVE",
"597 116 CURVE SMOOTH"
);
},
{
closed = 1;
nodes = (
"423 907 OFFCURVE",
"270 786 OFFCURVE",
"270 539 CURVE SMOOTH",
"270 525 OFFCURVE",
"271 506 OFFCURVE",
"273 490 CURVE",
"559 534 OFFCURVE",
"779 594 OFFCURVE",
"779 755 CURVE SMOOTH",
"779 846 OFFCURVE",
"710 907 OFFCURVE",
"589 907 CURVE SMOOTH"
);
}
);
width = 1074;
}
);
unicode = 00E9;
},
{
glyphname = egrave;
layers = (
{
layerId = "E08CDE4C-5D6C-43D8-8149-5F9E51F0B944";
name = Bold;
paths = (
{
closed = 1;
nodes = (
"736 116 OFFCURVE",
"859 176 OFFCURVE",
"926 252 CURVE",
"1009 146 LINE",
"909 43 OFFCURVE",
"757 -22 OFFCURVE",
"597 -22 CURVE SMOOTH",
"293 -22 OFFCURVE",
"90 187 OFFCURVE",
"90 516 CURVE SMOOTH",
"90 797 OFFCURVE",
"259 1048 OFFCURVE",
"588 1048 CURVE SMOOTH",
"804 1048 OFFCURVE",
"942 918 OFFCURVE",
"942 751 CURVE SMOOTH",
"942 506 OFFCURVE",
"651 425 OFFCURVE",
"285 371 CURVE",
"325 219 OFFCURVE",
"449 116 OFFCURVE",
"597 116 CURVE SMOOTH"
);
},
{
closed = 1;
nodes = (
"423 907 OFFCURVE",
"270 786 OFFCURVE",
"270 539 CURVE SMOOTH",
"270 525 OFFCURVE",
"271 506 OFFCURVE",
"273 490 CURVE",
"559 534 OFFCURVE",
"779 594 OFFCURVE",
"779 755 CURVE SMOOTH",
"779 846 OFFCURVE",
"710 907 OFFCURVE",
"589 907 CURVE SMOOTH"
);
},
{
closed = 1;
nodes = (
"199 1492 LINE",
"413 1492 LINE",
"660 1172 LINE",
"531 1172 LINE"
);
}
);
width = 1074;
}
);
unicode = 00E8;
},
{
glyphname = ecircumflex;
layers = (
{
layerId = "E08CDE4C-5D6C-43D8-8149-5F9E51F0B944";
name = Bold;
paths = (
{
closed = 1;
nodes = (
"285 1178 LINE",
"513 1502 LINE",
"670 1502 LINE",
"899 1178 LINE",
"767 1178 LINE",
"589 1394 LINE",
"411 1178 LINE"
);
},
{
closed = 1;
nodes = (
"736 116 OFFCURVE",
"859 176 OFFCURVE",
"926 252 CURVE",
"1009 146 LINE",
"909 43 OFFCURVE",
"757 -22 OFFCURVE",
"597 -22 CURVE SMOOTH",
"293 -22 OFFCURVE",
"90 187 OFFCURVE",
"90 516 CURVE SMOOTH",
"90 797 OFFCURVE",
"259 1048 OFFCURVE",
"588 1048 CURVE SMOOTH",
"804 1048 OFFCURVE",
"942 918 OFFCURVE",
"942 751 CURVE SMOOTH",
"942 506 OFFCURVE",
"651 425 OFFCURVE",
"285 371 CURVE",
"325 219 OFFCURVE",
"449 116 OFFCURVE",
"597 116 CURVE SMOOTH"
);
},
{
closed = 1;
nodes = (
"423 907 OFFCURVE",
"270 786 OFFCURVE",
"270 539 CURVE SMOOTH",
"270 525 OFFCURVE",
"271 506 OFFCURVE",
"273 490 CURVE",
"559 534 OFFCURVE",
"779 594 OFFCURVE",
"779 755 CURVE SMOOTH",
"779 846 OFFCURVE",
"710 907 OFFCURVE",
"589 907 CURVE SMOOTH"
);
}
);
width = 1074;
}
);
unicode = 00EA;
},
{
glyphname = edieresis;
layers = (
{
layerId = "E08CDE4C-5D6C-43D8-8149-5F9E51F0B944";
name = Bold;
paths = (
{
closed = 1;
nodes = (
"508 1178 LINE",
"344 1178 LINE",
"344 1341 LINE",
"508 1341 LINE"
);
},
{
closed = 1;
nodes = (
"840 1178 LINE",
"676 1178 LINE",
"676 1341 LINE",
"840 1341 LINE"
);
},
{
closed = 1;
nodes = (
"736 116 OFFCURVE",
"859 176 OFFCURVE",
"926 252 CURVE",
"1009 146 LINE",
"909 43 OFFCURVE",
"757 -22 OFFCURVE",
"597 -22 CURVE SMOOTH",
"293 -22 OFFCURVE",
"90 187 OFFCURVE",
"90 516 CURVE SMOOTH",
"90 797 OFFCURVE",
"259 1048 OFFCURVE",
"588 1048 CURVE SMOOTH",
"804 1048 OFFCURVE",
"942 918 OFFCURVE",
"942 751 CURVE SMOOTH",
"942 506 OFFCURVE",
"651 425 OFFCURVE",
"285 371 CURVE",
"325 219 OFFCURVE",
"449 116 OFFCURVE",
"597 116 CURVE SMOOTH"
);
},
{
closed = 1;
nodes = (
"423 907 OFFCURVE",
"270 786 OFFCURVE",
"270 539 CURVE SMOOTH",
"270 525 OFFCURVE",
"271 506 OFFCURVE",
"273 490 CURVE",
"559 534 OFFCURVE",
"779 594 OFFCURVE",
"779 755 CURVE SMOOTH",
"779 846 OFFCURVE",
"710 907 OFFCURVE",
"589 907 CURVE SMOOTH"
);
}
);
width = 1074;
}
);
unicode = 00EB;
},
{
glyphname = iacute;
layers = (
{
layerId = "E08CDE4C-5D6C-43D8-8149-5F9E51F0B944";
name = Bold;
paths = (
{
closed = 1;
nodes = (
"411 1493 LINE",
"623 1493 LINE",
"315 1173 LINE",
"185 1173 LINE"
);
},
{
closed = 1;
nodes = (
"167 1026 LINE",
"332 1026 LINE",
"332 283 LINE SMOOTH",
"332 143 OFFCURVE",
"389 118 OFFCURVE",
"457 118 CURVE SMOOTH",
"487 118 OFFCURVE",
"545 128 OFFCURVE",
"580 141 CURVE",
"600 30 LINE",
"550 9.99999 OFFCURVE",
"481 -5 OFFCURVE",
"434 -5 CURVE SMOOTH",
"292 -5 OFFCURVE",
"167 67 OFFCURVE",
"167 278 CURVE SMOOTH"
);
}
);
width = 503;
}
);
unicode = 00ED;
},
{
glyphname = igrave;
layers = (
{
layerId = "E08CDE4C-5D6C-43D8-8149-5F9E51F0B944";
name = Bold;
paths = (
{
closed = 1;
nodes = (
"167 1026 LINE",
"332 1026 LINE",
"332 283 LINE SMOOTH",
"332 143 OFFCURVE",
"389 118 OFFCURVE",
"457 118 CURVE SMOOTH",
"487 118 OFFCURVE",
"545 128 OFFCURVE",
"580 141 CURVE",
"600 30 LINE",
"550 9.99999 OFFCURVE",
"481 -5 OFFCURVE",
"434 -5 CURVE SMOOTH",
"292 -5 OFFCURVE",
"167 67 OFFCURVE",
"167 278 CURVE SMOOTH"
);
},
{
closed = 1;
nodes = (
"-115 1492 LINE",
"98.9999 1492 LINE",
"346 1172 LINE",
"217 1172 LINE"
);
}
);
width = 503;
}
);
unicode = 00EC;
},
{
glyphname = icircumflex;
layers = (
{
layerId = "E08CDE4C-5D6C-43D8-8149-5F9E51F0B944";
name = Bold;
paths = (
{
closed = 1;
nodes = (
"-57 1173 LINE",
"171 1497 LINE",
"328 1497 LINE",
"557 1173 LINE",
"425 1173 LINE",
"247 1389 LINE",
"69 1173 LINE"
);
},
{
closed = 1;
nodes = (
"167 1026 LINE",
"332 1026 LINE",
"332 283 LINE SMOOTH",
"332 143 OFFCURVE",
"389 118 OFFCURVE",
"457 118 CURVE SMOOTH",
"487 118 OFFCURVE",
"545 128 OFFCURVE",
"580 141 CURVE",
"600 30 LINE",
"550 9.99999 OFFCURVE",
"481 -5 OFFCURVE",
"434 -5 CURVE SMOOTH",
"292 -5 OFFCURVE",
"167 67 OFFCURVE",
"167 278 CURVE SMOOTH"
);
}
);
width = 503;
}
);
unicode = 00EE;
},
{
glyphname = idieresis;
layers = (
{
layerId = "E08CDE4C-5D6C-43D8-8149-5F9E51F0B944";
name = Bold;
paths = (
{
closed = 1;
nodes = (
"166 1173 LINE",
"2 1173 LINE",
"2 1336 LINE",
"166 1336 LINE"
);
},
{
closed = 1;
nodes = (
"498 1173 LINE",
"334 1173 LINE",
"334 1336 LINE",
"498 1336 LINE"
);
},
{
closed = 1;
nodes = (
"167 1026 LINE",
"332 1026 LINE",
"332 283 LINE SMOOTH",
"332 143 OFFCURVE",
"389 118 OFFCURVE",
"457 118 CURVE SMOOTH",
"487 118 OFFCURVE",
"545 128 OFFCURVE",
"580 141 CURVE",
"600 30 LINE",
"550 9.99999 OFFCURVE",
"481 -5 OFFCURVE",
"434 -5 CURVE SMOOTH",
"292 -5 OFFCURVE",
"167 67 OFFCURVE",
"167 278 CURVE SMOOTH"
);
}
);
width = 503;
}
);
unicode = 00EF;
},
{
glyphname = ntilde;
layers = (
{
layerId = "E08CDE4C-5D6C-43D8-8149-5F9E51F0B944";
name = Bold;
paths = (
{
closed = 1;
nodes = (
"340 652 LINE",
"340 0 LINE",
"176 0 LINE",
"176 699 LINE SMOOTH",
"176 824 OFFCURVE",
"161 923 OFFCURVE",
"141 993.999 CURVE",
"296 1026 LINE",
"307 1001 OFFCURVE",
"328 902 OFFCURVE",
"328 865 CURVE"
);
},
{
closed = 1;
nodes = (
"961 1048 OFFCURVE",
"1058 856 OFFCURVE",
"1055 565 CURVE SMOOTH",
"1053 343 LINE SMOOTH",
"1052 195 OFFCURVE",
"1085 113 OFFCURVE",
"1189 92 CURVE",
"1163 -39 LINE",
"966 -36 OFFCURVE",
"888 89 OFFCURVE",
"888 332 CURVE SMOOTH",
"888 338 LINE",
"890 562 LINE SMOOTH",
"890 767 OFFCURVE",
"861 907 OFFCURVE",
"650 907 CURVE SMOOTH",
"512 907 OFFCURVE",
"339 811 OFFCURVE",
"339 532 CURVE",
"328 866 LINE",
"397 981.999 OFFCURVE",
"538 1048 OFFCURVE",
"688 1048 CURVE SMOOTH"
);
},
{
closed = 1;
nodes = (
"854 1345 OFFCURVE",
"881 1384 OFFCURVE",
"888 1435 CURVE",
"995.999 1435 LINE",
"982.999 1322 OFFCURVE",
"925 1220 OFFCURVE",
"801 1220 CURVE SMOOTH",
"705 1220 OFFCURVE",
"643 1288 OFFCURVE",
"548 1288 CURVE SMOOTH",
"494 1288 OFFCURVE",
"464 1260 OFFCURVE",
"457 1203 CURVE",
"352 1203 LINE",
"362 1319 OFFCURVE",
"427 1413 OFFCURVE",
"551 1413 CURVE SMOOTH",
"627 1413 OFFCURVE",
"684 1377 OFFCURVE",
"742 1356 CURVE SMOOTH",
"762 1349 OFFCURVE",
"782 1345 OFFCURVE",
"801 1345 CURVE SMOOTH"
);
}
);
width = 1246;
}
);
unicode = 00F1;
},
{
glyphname = oacute;
layers = (
{
layerId = "E08CDE4C-5D6C-43D8-8149-5F9E51F0B944";
name = Bold;
paths = (
{
closed = 1;
nodes = (
"785 1493 LINE",
"996.999 1493 LINE",
"689 1173 LINE",
"559 1173 LINE"
);
},
{
closed = 1;
nodes = (
"972.999 1048 OFFCURVE",
"1140 814 OFFCURVE",
"1140 513 CURVE SMOOTH",
"1140 142 OFFCURVE",
"905 -22 OFFCURVE",
"620 -22 CURVE SMOOTH",
"262 -22 OFFCURVE",
"90 212 OFFCURVE",
"90 511 CURVE SMOOTH",
"90 885 OFFCURVE",
"331 1048 OFFCURVE",
"619 1048 CURVE SMOOTH"
);
},
{
closed = 1;
nodes = (
"969.999 782 OFFCURVE",
"815 907 OFFCURVE",
"619 907 CURVE SMOOTH",
"375 907 OFFCURVE",
"260 727 OFFCURVE",
"260 509 CURVE SMOOTH",
"260 242 OFFCURVE",
"420 116 OFFCURVE",
"620 116 CURVE SMOOTH",
"859 116 OFFCURVE",
"969.999 297 OFFCURVE",
"969.999 511 CURVE SMOOTH"
);
}
);
width = 1230;
}
);
unicode = 00F3;
},
{
glyphname = ograve;
layers = (
{
layerId = "E08CDE4C-5D6C-43D8-8149-5F9E51F0B944";
name = Bold;
paths = (
{
closed = 1;
nodes = (
"228 1493 LINE",
"442 1493 LINE",
"689 1173 LINE",
"560 1173 LINE"
);
},
{
closed = 1;
nodes = (
"972.999 1048 OFFCURVE",
"1140 814 OFFCURVE",
"1140 513 CURVE SMOOTH",
"1140 142 OFFCURVE",
"905 -22 OFFCURVE",
"620 -22 CURVE SMOOTH",
"262 -22 OFFCURVE",
"90 212 OFFCURVE",
"90 511 CURVE SMOOTH",
"90 885 OFFCURVE",
"331 1048 OFFCURVE",
"619 1048 CURVE SMOOTH"
);
},
{
closed = 1;
nodes = (
"969.999 782 OFFCURVE",
"815 907 OFFCURVE",
"619 907 CURVE SMOOTH",
"375 907 OFFCURVE",
"260 727 OFFCURVE",
"260 509 CURVE SMOOTH",
"260 242 OFFCURVE",
"420 116 OFFCURVE",
"620 116 CURVE SMOOTH",
"859 116 OFFCURVE",
"969.999 297 OFFCURVE",
"969.999 511 CURVE SMOOTH"
);
}
);
width = 1230;
}
);
unicode = 00F2;
},
{
glyphname = ocircumflex;
layers = (
{
layerId = "E08CDE4C-5D6C-43D8-8149-5F9E51F0B944";
name = Bold;
paths = (
{
closed = 1;
nodes = (
"317 1173 LINE",
"545 1497 LINE",
"702 1497 LINE",
"931 1173 LINE",
"799 1173 LINE",
"621 1389 LINE",
"443 1173 LINE"
);
},
{
closed = 1;
nodes = (
"972.999 1048 OFFCURVE",
"1140 814 OFFCURVE",
"1140 513 CURVE SMOOTH",
"1140 142 OFFCURVE",
"905 -22 OFFCURVE",
"620 -22 CURVE SMOOTH",
"262 -22 OFFCURVE",
"90 212 OFFCURVE",
"90 511 CURVE SMOOTH",
"90 885 OFFCURVE",
"331 1048 OFFCURVE",
"619 1048 CURVE SMOOTH"
);
},
{
closed = 1;
nodes = (
"969.999 782 OFFCURVE",
"815 907 OFFCURVE",
"619 907 CURVE SMOOTH",
"375 907 OFFCURVE",
"260 727 OFFCURVE",
"260 509 CURVE SMOOTH",
"260 242 OFFCURVE",
"420 116 OFFCURVE",
"620 116 CURVE SMOOTH",
"859 116 OFFCURVE",
"969.999 297 OFFCURVE",
"969.999 511 CURVE SMOOTH"
);
}
);
width = 1230;
}
);
unicode = 00F4;
},
{
glyphname = odieresis;
layers = (
{
layerId = "E08CDE4C-5D6C-43D8-8149-5F9E51F0B944";
name = Bold;
paths = (
{
closed = 1;
nodes = (
"540 1173 LINE",
"376 1173 LINE",
"376 1336 LINE",
"540 1336 LINE"
);
},
{
closed = 1;
nodes = (
"872 1173 LINE",
"708 1173 LINE",
"708 1336 LINE",
"872 1336 LINE"
);
},
{
closed = 1;
nodes = (
"972.999 1048 OFFCURVE",
"1140 814 OFFCURVE",
"1140 513 CURVE SMOOTH",
"1140 142 OFFCURVE",
"905 -22 OFFCURVE",
"620 -22 CURVE SMOOTH",
"262 -22 OFFCURVE",
"90 212 OFFCURVE",
"90 511 CURVE SMOOTH",
"90 885 OFFCURVE",
"331 1048 OFFCURVE",
"619 1048 CURVE SMOOTH"
);
},
{
closed = 1;
nodes = (
"969.999 782 OFFCURVE",
"815 907 OFFCURVE",
"619 907 CURVE SMOOTH",
"375 907 OFFCURVE",
"260 727 OFFCURVE",
"260 509 CURVE SMOOTH",
"260 242 OFFCURVE",
"420 116 OFFCURVE",
"620 116 CURVE SMOOTH",
"859 116 OFFCURVE",
"969.999 297 OFFCURVE",
"969.999 511 CURVE SMOOTH"
);
}
);
width = 1230;
}
);
unicode = 00F6;
},
{
glyphname = otilde;
layers = (
{
layerId = "E08CDE4C-5D6C-43D8-8149-5F9E51F0B944";
name = Bold;
paths = (
{
closed = 1;
nodes = (
"972.999 1048 OFFCURVE",
"1140 814 OFFCURVE",
"1140 513 CURVE SMOOTH",
"1140 142 OFFCURVE",
"905 -22 OFFCURVE",
"620 -22 CURVE SMOOTH",
"262 -22 OFFCURVE",
"90 212 OFFCURVE",
"90 511 CURVE SMOOTH",
"90 885 OFFCURVE",
"331 1048 OFFCURVE",
"619 1048 CURVE SMOOTH"
);
},
{
closed = 1;
nodes = (
"969.999 782 OFFCURVE",
"815 907 OFFCURVE",
"619 907 CURVE SMOOTH",
"375 907 OFFCURVE",
"260 727 OFFCURVE",
"260 509 CURVE SMOOTH",
"260 242 OFFCURVE",
"420 116 OFFCURVE",
"620 116 CURVE SMOOTH",
"859 116 OFFCURVE",
"969.999 297 OFFCURVE",
"969.999 511 CURVE SMOOTH"
);
},
{
closed = 1;
nodes = (
"799 1345 OFFCURVE",
"826 1384 OFFCURVE",
"833 1435 CURVE",
"941 1435 LINE",
"928 1322 OFFCURVE",
"870 1220 OFFCURVE",
"746 1220 CURVE SMOOTH",
"650 1220 OFFCURVE",
"588 1288 OFFCURVE",
"493 1288 CURVE SMOOTH",
"439 1288 OFFCURVE",
"409 1260 OFFCURVE",
"402 1203 CURVE",
"297 1203 LINE",
"307 1319 OFFCURVE",
"372 1413 OFFCURVE",
"496 1413 CURVE SMOOTH",
"572 1413 OFFCURVE",
"629 1377 OFFCURVE",
"687 1356 CURVE SMOOTH",
"707 1349 OFFCURVE",
"727 1345 OFFCURVE",
"746 1345 CURVE SMOOTH"
);
}
);
width = 1230;
}
);
unicode = 00F5;
},
{
glyphname = uacute;
layers = (
{
layerId = "E08CDE4C-5D6C-43D8-8149-5F9E51F0B944";
name = Bold;
paths = (
{
closed = 1;
nodes = (
"752 1493 LINE",
"964 1493 LINE",
"656 1173 LINE",
"526 1173 LINE"
);
},
{
closed = 1;
nodes = (
"315 365 LINE SMOOTH",
"310 169 OFFCURVE",
"431 116 OFFCURVE",
"552 116 CURVE SMOOTH",
"717 116 OFFCURVE",
"855 231 OFFCURVE",
"855 427 CURVE SMOOTH",
"855 1026 LINE",
"1019 1026 LINE",
"1019 286 LINE SMOOTH",
"1019 170 OFFCURVE",
"1101 139 OFFCURVE",
"1153 139 CURVE",
"1118 -4 LINE",
"1021 -4 OFFCURVE",
"913 53 OFFCURVE",
"886 164 CURVE",
"809 40 OFFCURVE",
"685 -22 OFFCURVE",
"527 -22 CURVE SMOOTH",
"333 -22 OFFCURVE",
"142 80 OFFCURVE",
"150 365 CURVE SMOOTH",
"156 582 LINE SMOOTH",
"165 871 OFFCURVE",
"117 999.999 OFFCURVE",
"117 999.999 CURVE",
"282 1026 LINE",
"282 1026 OFFCURVE",
"330 911 OFFCURVE",
"321 595 CURVE SMOOTH"
);
}
);
width = 1201;
}
);
unicode = 00FA;
},
{
glyphname = ugrave;
layers = (
{
layerId = "E08CDE4C-5D6C-43D8-8149-5F9E51F0B944";
name = Bold;
paths = (
{
closed = 1;
nodes = (
"194 1493 LINE",
"408 1493 LINE",
"655 1173 LINE",
"526 1173 LINE"
);
},
{
closed = 1;
nodes = (
"315 365 LINE SMOOTH",
"310 169 OFFCURVE",
"431 116 OFFCURVE",
"552 116 CURVE SMOOTH",
"717 116 OFFCURVE",
"855 231 OFFCURVE",
"855 427 CURVE SMOOTH",
"855 1026 LINE",
"1019 1026 LINE",
"1019 286 LINE SMOOTH",
"1019 170 OFFCURVE",
"1101 139 OFFCURVE",
"1153 139 CURVE",
"1118 -4 LINE",
"1021 -4 OFFCURVE",
"913 53 OFFCURVE",
"886 164 CURVE",
"809 40 OFFCURVE",
"685 -22 OFFCURVE",
"527 -22 CURVE SMOOTH",
"333 -22 OFFCURVE",
"142 80 OFFCURVE",
"150 365 CURVE SMOOTH",
"156 582 LINE SMOOTH",
"165 871 OFFCURVE",
"117 999.999 OFFCURVE",
"117 999.999 CURVE",
"282 1026 LINE",
"282 1026 OFFCURVE",
"330 911 OFFCURVE",
"321 595 CURVE SMOOTH"
);
}
);
width = 1201;
}
);
unicode = 00F9;
},
{
glyphname = ucircumflex;
layers = (
{
layerId = "E08CDE4C-5D6C-43D8-8149-5F9E51F0B944";
name = Bold;
paths = (
{
closed = 1;
nodes = (
"284 1173 LINE",
"512 1497 LINE",
"669 1497 LINE",
"898 1173 LINE",
"766 1173 LINE",
"588 1389 LINE",
"410 1173 LINE"
);
},
{
closed = 1;
nodes = (
"315 365 LINE SMOOTH",
"310 169 OFFCURVE",
"431 116 OFFCURVE",
"552 116 CURVE SMOOTH",
"717 116 OFFCURVE",
"855 231 OFFCURVE",
"855 427 CURVE SMOOTH",
"855 1026 LINE",
"1019 1026 LINE",
"1019 286 LINE SMOOTH",
"1019 170 OFFCURVE",
"1101 139 OFFCURVE",
"1153 139 CURVE",
"1118 -4 LINE",
"1021 -4 OFFCURVE",
"913 53 OFFCURVE",
"886 164 CURVE",
"809 40 OFFCURVE",
"685 -22 OFFCURVE",
"527 -22 CURVE SMOOTH",
"333 -22 OFFCURVE",
"142 80 OFFCURVE",
"150 365 CURVE SMOOTH",
"156 582 LINE SMOOTH",
"165 871 OFFCURVE",
"117 999.999 OFFCURVE",
"117 999.999 CURVE",
"282 1026 LINE",
"282 1026 OFFCURVE",
"330 911 OFFCURVE",
"321 595 CURVE SMOOTH"
);
}
);
width = 1201;
}
);
unicode = 00FB;
},
{
glyphname = udieresis;
layers = (
{
layerId = "E08CDE4C-5D6C-43D8-8149-5F9E51F0B944";
name = Bold;
paths = (
{
closed = 1;
nodes = (
"507 1173 LINE",
"343 1173 LINE",
"343 1336 LINE",
"507 1336 LINE"
);
},
{
closed = 1;
nodes = (
"839 1173 LINE",
"675 1173 LINE",
"675 1336 LINE",
"839 1336 LINE"
);
},
{
closed = 1;
nodes = (
"315 365 LINE SMOOTH",
"310 169 OFFCURVE",
"431 116 OFFCURVE",
"552 116 CURVE SMOOTH",
"717 116 OFFCURVE",
"855 231 OFFCURVE",
"855 427 CURVE SMOOTH",
"855 1026 LINE",
"1019 1026 LINE",
"1019 286 LINE SMOOTH",
"1019 170 OFFCURVE",
"1101 139 OFFCURVE",
"1153 139 CURVE",
"1118 -4 LINE",
"1021 -4 OFFCURVE",
"913 53 OFFCURVE",
"886 164 CURVE",
"809 40 OFFCURVE",
"685 -22 OFFCURVE",
"527 -22 CURVE SMOOTH",
"333 -22 OFFCURVE",
"142 80 OFFCURVE",
"150 365 CURVE SMOOTH",
"156 582 LINE SMOOTH",
"165 871 OFFCURVE",
"117 999.999 OFFCURVE",
"117 999.999 CURVE",
"282 1026 LINE",
"282 1026 OFFCURVE",
"330 911 OFFCURVE",
"321 595 CURVE SMOOTH"
);
}
);
width = 1201;
}
);
unicode = 00FC;
},
{
glyphname = dagger;
layers = (
{
layerId = "E08CDE4C-5D6C-43D8-8149-5F9E51F0B944";
name = Bold;
paths = (
{
closed = 1;
nodes = (
"433 934 LINE",
"107 934 LINE",
"107 1066 LINE",
"433 1066 LINE",
"433 1451 LINE",
"575 1451 LINE",
"575 1066 LINE",
"919 1066 LINE",
"919 934 LINE",
"561 934 LINE",
"561 113 LINE",
"433 113 LINE"
);
}
);
width = 1022;
}
);
unicode = 2020;
},
{
glyphname = degree;
layers = (
{
layerId = "E08CDE4C-5D6C-43D8-8149-5F9E51F0B944";
name = Bold;
paths = (
{
closed = 1;
nodes = (
"327 1328 OFFCURVE",
"265 1282 OFFCURVE",
"236 1222 CURVE SMOOTH",
"226 1200 OFFCURVE",
"220 1176 OFFCURVE",
"220 1151 CURVE SMOOTH",
"220 1064 OFFCURVE",
"275 1010 OFFCURVE",
"338 984.999 CURVE SMOOTH",
"361 975.999 OFFCURVE",
"387 970.999 OFFCURVE",
"414 970.999 CURVE SMOOTH",
"502 970.999 OFFCURVE",
"565 1019 OFFCURVE",
"593 1080 CURVE SMOOTH",
"603 1102 OFFCURVE",
"608 1126 OFFCURVE",
"608 1151 CURVE SMOOTH",
"608 1237 OFFCURVE",
"551 1290 OFFCURVE",
"488 1314 CURVE SMOOTH",
"464 1323 OFFCURVE",
"440 1328 OFFCURVE",
"414 1328 CURVE SMOOTH"
);
},
{
closed = 1;
nodes = (
"271 855 OFFCURVE",
"167 937 OFFCURVE",
"120 1036 CURVE SMOOTH",
"103 1072 OFFCURVE",
"94.9999 1109 OFFCURVE",
"94.9999 1150 CURVE SMOOTH",
"94.9999 1289 OFFCURVE",
"189 1380 OFFCURVE",
"291 1421 CURVE SMOOTH",
"330 1436 OFFCURVE",
"371 1444 OFFCURVE",
"414 1444 CURVE SMOOTH",
"558 1444 OFFCURVE",
"661 1363 OFFCURVE",
"708 1264 CURVE SMOOTH",
"725 1228 OFFCURVE",
"733 1191 OFFCURVE",
"733 1150 CURVE SMOOTH",
"733 1010 OFFCURVE",
"638 919 OFFCURVE",
"536 878 CURVE SMOOTH",
"497 862 OFFCURVE",
"457 855 OFFCURVE",
"414 855 CURVE SMOOTH"
);
}
);
width = 844;
}
);
unicode = 00B0;
},
{
glyphname = cent;
layers = (
{
layerId = "E08CDE4C-5D6C-43D8-8149-5F9E51F0B944";
name = Bold;
paths = (
{
closed = 1;
nodes = (
"975.999 87 LINE",
"849 11 OFFCURVE",
"723 -23 OFFCURVE",
"609 -23 CURVE SMOOTH",
"315 -23 OFFCURVE",
"93.9999 193 OFFCURVE",
"93.9999 503 CURVE SMOOTH",
"93.9999 824 OFFCURVE",
"289 1051 OFFCURVE",
"610 1051 CURVE SMOOTH",
"769 1051 OFFCURVE",
"892 1002 OFFCURVE",
"960 912 CURVE",
"883 801 LINE",
"826 872 OFFCURVE",
"738 909 OFFCURVE",
"619 909 CURVE SMOOTH",
"389 909 OFFCURVE",
"267 737 OFFCURVE",
"267 508 CURVE SMOOTH",
"267 258 OFFCURVE",
"412 117 OFFCURVE",
"616 117 CURVE SMOOTH",
"714 117 OFFCURVE",
"825 146 OFFCURVE",
"940 225 CURVE"
);
},
{
closed = 1;
nodes = (
"666 -235 LINE",
"553 -235 LINE",
"553 1281 LINE",
"666 1281 LINE"
);
}
);
width = 1189;
}
);
unicode = 00A2;
},
{
glyphname = sterling;
layers = (
{
layerId = "E08CDE4C-5D6C-43D8-8149-5F9E51F0B944";
name = Bold;
paths = (
{
closed = 1;
nodes = (
"296 832 LINE",
"295 842 OFFCURVE",
"294 851 OFFCURVE",
"294 861 CURVE SMOOTH",
"294 1211 OFFCURVE",
"380 1448 OFFCURVE",
"733 1448 CURVE SMOOTH",
"876 1448 OFFCURVE",
"984.999 1418 OFFCURVE",
"1062 1357 CURVE",
"1010 1237 LINE",
"940 1280 OFFCURVE",
"847 1307 OFFCURVE",
"736 1307 CURVE SMOOTH",
"528 1307 OFFCURVE",
"463 1156 OFFCURVE",
"463 947 CURVE SMOOTH",
"466 832 LINE",
"798 832 LINE",
"798 690 LINE",
"468 690 LINE",
"468 641 LINE SMOOTH",
"468 476 OFFCURVE",
"466 305 OFFCURVE",
"411 194 CURVE SMOOTH",
"400 171 OFFCURVE",
"386 154 OFFCURVE",
"370 141 CURVE",
"1081 141 LINE",
"1081 0 LINE",
"115 0 LINE",
"114 138 LINE",
"218 199 OFFCURVE",
"297 272 OFFCURVE",
"297 440 CURVE SMOOTH",
"297 690 LINE",
"114 690 LINE",
"114 832 LINE"
);
}
);
width = 1189;
}
);
unicode = 00A3;
},
{
glyphname = section;
layers = (
{
layerId = "E08CDE4C-5D6C-43D8-8149-5F9E51F0B944";
name = Bold;
paths = (
{
closed = 1;
nodes = (
"289 1027 OFFCURVE",
"221 1090 OFFCURVE",
"221 1217 CURVE SMOOTH",
"221 1416 OFFCURVE",
"403 1493 OFFCURVE",
"603 1493 CURVE SMOOTH",
"696 1493 OFFCURVE",
"757 1475 OFFCURVE",
"832 1452 CURVE",
"834 1304 LINE",
"774 1332 OFFCURVE",
"692 1356 OFFCURVE",
"608 1356 CURVE SMOOTH",
"499 1356 OFFCURVE",
"393 1328 OFFCURVE",
"393 1221 CURVE SMOOTH",
"393 1140 OFFCURVE",
"448 1104 OFFCURVE",
"506 1072 CURVE SMOOTH",
"636 1001 OFFCURVE",
"812 957 OFFCURVE",
"886 832 CURVE SMOOTH",
"902 804 OFFCURVE",
"911 772 OFFCURVE",
"911 737 CURVE SMOOTH",
"911 606 OFFCURVE",
"808 531 OFFCURVE",
"725 480 CURVE",
"810 437 OFFCURVE",
"888 378 OFFCURVE",
"888 252 CURVE SMOOTH",
"888 146 OFFCURVE",
"831 76 OFFCURVE",
"765 30 CURVE SMOOTH",
"696 -18 OFFCURVE",
"595 -48 OFFCURVE",
"482 -48 CURVE SMOOTH",
"380 -48 OFFCURVE",
"288 -27 OFFCURVE",
"212 4 CURVE",
"210 153 LINE",
"293 116 OFFCURVE",
"373 89 OFFCURVE",
"477 89 CURVE SMOOTH",
"578 89 OFFCURVE",
"663 119 OFFCURVE",
"699 182 CURVE SMOOTH",
"710 201 OFFCURVE",
"715 221 OFFCURVE",
"715 243 CURVE SMOOTH",
"715 322 OFFCURVE",
"652 352 OFFCURVE",
"594 379 CURVE SMOOTH",
"568 391 OFFCURVE",
"538 404 OFFCURVE",
"505 418 CURVE SMOOTH",
"421 454 LINE SMOOTH",
"327 494 OFFCURVE",
"240 547 OFFCURVE",
"202 640 CURVE SMOOTH",
"191 667 OFFCURVE",
"185 697 OFFCURVE",
"185 729 CURVE SMOOTH",
"185 859 OFFCURVE",
"286 931 OFFCURVE",
"374 974.999 CURVE"
);
},
{
closed = 1;
nodes = (
"640 578 OFFCURVE",
"693 615 OFFCURVE",
"720 668 CURVE SMOOTH",
"729 685 OFFCURVE",
"733 703 OFFCURVE",
"733 723 CURVE SMOOTH",
"733 846 OFFCURVE",
"575 868 OFFCURVE",
"495 912 CURVE",
"435 880 OFFCURVE",
"362 831 OFFCURVE",
"362 741 CURVE SMOOTH",
"362 653 OFFCURVE",
"434 616 OFFCURVE",
"498 587 CURVE SMOOTH",
"526 574 OFFCURVE",
"557 561 OFFCURVE",
"591 547 CURVE"
);
}
);
width = 1097;
}
);
unicode = 00A7;
},
{
glyphname = bullet;
layers = (
{
layerId = "E08CDE4C-5D6C-43D8-8149-5F9E51F0B944";
name = Bold;
paths = (
{
closed = 1;
nodes = (
"833 604 OFFCURVE",
"786 528 OFFCURVE",
"732 478 CURVE SMOOTH",
"677 426 OFFCURVE",
"594 385 OFFCURVE",
"493 385 CURVE SMOOTH",
"340 385 OFFCURVE",
"232 469 OFFCURVE",
"183 575 CURVE SMOOTH",
"166 612 OFFCURVE",
"157 652 OFFCURVE",
"157 694 CURVE SMOOTH",
"157 842 OFFCURVE",
"259 941 OFFCURVE",
"368 984.999 CURVE SMOOTH",
"409 1002 OFFCURVE",
"453 1010 OFFCURVE",
"498 1010 CURVE SMOOTH",
"650 1010 OFFCURVE",
"757 925 OFFCURVE",
"806 820 CURVE SMOOTH",
"824 782 OFFCURVE",
"833 743 OFFCURVE",
"833 701 CURVE SMOOTH"
);
}
);
width = 988;
}
);
unicode = 2022;
},
{
glyphname = paragraph;
layers = (
{
layerId = "E08CDE4C-5D6C-43D8-8149-5F9E51F0B944";
name = Bold;
paths = (
{
closed = 1;
nodes = (
"442 -148 LINE",
"442 786 LINE",
"286 788 OFFCURVE",
"182 877 OFFCURVE",
"134 989.999 CURVE SMOOTH",
"116 1032 OFFCURVE",
"107 1079 OFFCURVE",
"107 1130 CURVE SMOOTH",
"107 1394 OFFCURVE",
"359 1451 OFFCURVE",
"623 1451 CURVE SMOOTH",
"1009 1451 LINE",
"1009 1327 LINE",
"922 1327 LINE",
"922 -148 LINE",
"793 -148 LINE",
"793 1327 LINE",
"585 1327 LINE",
"585 -148 LINE"
);
}
);
width = 1214;
}
);
unicode = 00B6;
},
{
glyphname = germandbls;
layers = (
{
layerId = "E08CDE4C-5D6C-43D8-8149-5F9E51F0B944";
name = Bold;
paths = (
{
closed = 1;
nodes = (
"340 217 OFFCURVE",
"341 101 OFFCURVE",
"341 0 CURVE",
"176 0 LINE",
"174 1071 LINE",
"174 1282 OFFCURVE",
"267 1420 OFFCURVE",
"420 1480 CURVE SMOOTH",
"474 1501 OFFCURVE",
"535 1511 OFFCURVE",
"604 1511 CURVE SMOOTH",
"788 1511 OFFCURVE",
"925 1440 OFFCURVE",
"983.999 1316 CURVE SMOOTH",
"1002 1277 OFFCURVE",
"1011 1236 OFFCURVE",
"1011 1192 CURVE SMOOTH",
"1011 1093 OFFCURVE",
"955 1020 OFFCURVE",
"903 967.999 CURVE SMOOTH",
"852 916 OFFCURVE",
"788 868 OFFCURVE",
"719 838 CURVE SMOOTH",
"710 834 OFFCURVE",
"693 827 OFFCURVE",
"693 816 CURVE SMOOTH",
"693 810 OFFCURVE",
"703 804 OFFCURVE",
"722 798 CURVE SMOOTH",
"896 747 OFFCURVE",
"1054 661 OFFCURVE",
"1133 514 CURVE SMOOTH",
"1160 464 OFFCURVE",
"1173 407 OFFCURVE",
"1173 341 CURVE SMOOTH",
"1173 164 OFFCURVE",
"1064 52 OFFCURVE",
"934 3 CURVE SMOOTH",
"888 -14 OFFCURVE",
"841 -23 OFFCURVE",
"792 -23 CURVE SMOOTH",
"648 -23 OFFCURVE",
"543 47 OFFCURVE",
"471 138 CURVE",
"536 243 LINE",
"597 173 OFFCURVE",
"679 109 OFFCURVE",
"788 109 CURVE SMOOTH",
"911 109 OFFCURVE",
"985.999 197 OFFCURVE",
"985.999 322 CURVE SMOOTH",
"985.999 437 OFFCURVE",
"924 512 OFFCURVE",
"858 570 CURVE SMOOTH",
"777 641 OFFCURVE",
"672 699 OFFCURVE",
"572 756 CURVE",
"588 892 LINE",
"681 934 OFFCURVE",
"763 1001 OFFCURVE",
"804 1095 CURVE SMOOTH",
"817 1125 OFFCURVE",
"823 1157 OFFCURVE",
"823 1191 CURVE SMOOTH",
"823 1318 OFFCURVE",
"731 1382 OFFCURVE",
"603 1382 CURVE SMOOTH",
"413 1382 OFFCURVE",
"337 1228 OFFCURVE",
"337 1038 CURVE SMOOTH",
"337 937 OFFCURVE",
"338 820 OFFCURVE",
"338 711 CURVE SMOOTH",
"338 587 OFFCURVE",
"340 450 OFFCURVE",
"340 326 CURVE SMOOTH"
);
}
);
width = 1257;
}
);
unicode = 00DF;
},
{
glyphname = registered;
layers = (
{
layerId = "E08CDE4C-5D6C-43D8-8149-5F9E51F0B944";
name = Bold;
paths = (
{
closed = 1;
nodes = (
"745 664 LINE",
"745 273 LINE",
"597 273 LINE",
"597 1192 LINE",
"870 1192 LINE SMOOTH",
"1016 1192 OFFCURVE",
"1124 1170 OFFCURVE",
"1195 1126 CURVE SMOOTH",
"1266 1082 OFFCURVE",
"1301 1018 OFFCURVE",
"1301 935 CURVE SMOOTH",
"1301 775 OFFCURVE",
"1182 700 OFFCURVE",
"1036 681 CURVE",
"1113 609 OFFCURVE",
"1170 515 OFFCURVE",
"1231 418 CURVE SMOOTH",
"1258 375 OFFCURVE",
"1287 327 OFFCURVE",
"1320 273 CURVE",
"1152 273 LINE",
"1029 485 LINE SMOOTH",
"986.999 557 OFFCURVE",
"943 625 OFFCURVE",
"882 664 CURVE"
);
},
{
closed = 1;
nodes = (
"868 783 LINE SMOOTH",
"1006 783 OFFCURVE",
"1146 784 OFFCURVE",
"1146 920 CURVE SMOOTH",
"1146 1071 OFFCURVE",
"1019 1072 OFFCURVE",
"866 1072 CURVE SMOOTH",
"742 1072 LINE",
"743 783 LINE"
);
},
{
closed = 1;
nodes = (
"1126 85 OFFCURVE",
"1284 165 OFFCURVE",
"1396 270 CURVE SMOOTH",
"1505 372 OFFCURVE",
"1590 519 OFFCURVE",
"1590 724 CURVE SMOOTH",
"1590 924 OFFCURVE",
"1503 1077 OFFCURVE",
"1394 1180 CURVE SMOOTH",
"1283 1285 OFFCURVE",
"1116 1366 OFFCURVE",
"909 1366 CURVE SMOOTH",
"703 1366 OFFCURVE",
"537 1287 OFFCURVE",
"426 1182 CURVE SMOOTH",
"317 1079 OFFCURVE",
"230 926 OFFCURVE",
"230 727 CURVE SMOOTH",
"230 527 OFFCURVE",
"317 373 OFFCURVE",
"426 270 CURVE SMOOTH",
"538 164 OFFCURVE",
"705 85 OFFCURVE",
"913 85 CURVE SMOOTH"
);
},
{
closed = 1;
nodes = (
"662 -32 OFFCURVE",
"473 67 OFFCURVE",
"340 192 CURVE SMOOTH",
"246 280 OFFCURVE",
"173 391 OFFCURVE",
"132 526 CURVE SMOOTH",
"113 590 OFFCURVE",
"103 657 OFFCURVE",
"103 726 CURVE SMOOTH",
"103 967 OFFCURVE",
"213 1139 OFFCURVE",
"341 1260 CURVE SMOOTH",
"474 1385 OFFCURVE",
"659 1483 OFFCURVE",
"908 1483 CURVE SMOOTH",
"1160 1483 OFFCURVE",
"1347 1383 OFFCURVE",
"1480 1258 CURVE SMOOTH",
"1573 1170 OFFCURVE",
"1647 1059 OFFCURVE",
"1688 924 CURVE SMOOTH",
"1707 860 OFFCURVE",
"1717 794 OFFCURVE",
"1717 725 CURVE SMOOTH",
"1717 485 OFFCURVE",
"1608 313 OFFCURVE",
"1480 192 CURVE SMOOTH",
"1348 67 OFFCURVE",
"1163 -32 OFFCURVE",
"914 -32 CURVE SMOOTH"
);
}
);
width = 1829;
}
);
unicode = 00AE;
},
{
glyphname = copyright;
layers = (
{
layerId = "E08CDE4C-5D6C-43D8-8149-5F9E51F0B944";
name = Bold;
paths = (
{
closed = 1;
nodes = (
"1073 380 OFFCURVE",
"1150 411 OFFCURVE",
"1210 460 CURVE",
"1249 339 LINE",
"1163 279 OFFCURVE",
"1060 249 OFFCURVE",
"940 249 CURVE SMOOTH",
"713 249 OFFCURVE",
"563 378 OFFCURVE",
"496 542 CURVE SMOOTH",
"472 600 OFFCURVE",
"460 662 OFFCURVE",
"460 729 CURVE SMOOTH",
"460 959 OFFCURVE",
"583 1106 OFFCURVE",
"750 1172 CURVE SMOOTH",
"810 1196 OFFCURVE",
"877 1208 OFFCURVE",
"951 1208 CURVE SMOOTH",
"1066 1208 OFFCURVE",
"1164 1174 OFFCURVE",
"1245 1105 CURVE",
"1214 984.999 LINE",
"1141 1048 OFFCURVE",
"1051 1080 OFFCURVE",
"944 1080 CURVE SMOOTH",
"782 1080 OFFCURVE",
"680 988.999 OFFCURVE",
"636 868 CURVE SMOOTH",
"621 826 OFFCURVE",
"613 781 OFFCURVE",
"613 733 CURVE SMOOTH",
"613 566 OFFCURVE",
"695 458 OFFCURVE",
"816 408 CURVE SMOOTH",
"861 390 OFFCURVE",
"913 380 OFFCURVE",
"971.999 380 CURVE SMOOTH"
);
},
{
closed = 1;
nodes = (
"230 527 OFFCURVE",
"317 373 OFFCURVE",
"426 270 CURVE SMOOTH",
"538 164 OFFCURVE",
"705 85 OFFCURVE",
"913 85 CURVE SMOOTH",
"1120 85 OFFCURVE",
"1284 165 OFFCURVE",
"1395 270 CURVE SMOOTH",
"1503 372 OFFCURVE",
"1590 525 OFFCURVE",
"1590 724 CURVE SMOOTH",
"1590 924 OFFCURVE",
"1503 1077 OFFCURVE",
"1394 1180 CURVE SMOOTH",
"1283 1285 OFFCURVE",
"1116 1366 OFFCURVE",
"909 1366 CURVE SMOOTH",
"703 1366 OFFCURVE",
"537 1286 OFFCURVE",
"426 1182 CURVE SMOOTH",
"317 1080 OFFCURVE",
"230 926 OFFCURVE",
"230 727 CURVE SMOOTH"
);
},
{
closed = 1;
nodes = (
"662 -32 OFFCURVE",
"473 67 OFFCURVE",
"340 192 CURVE SMOOTH",
"246 280 OFFCURVE",
"173 391 OFFCURVE",
"132 526 CURVE SMOOTH",
"113 590 OFFCURVE",
"103 657 OFFCURVE",
"103 726 CURVE SMOOTH",
"103 967 OFFCURVE",
"213 1139 OFFCURVE",
"341 1260 CURVE SMOOTH",
"474 1385 OFFCURVE",
"659 1483 OFFCURVE",
"908 1483 CURVE SMOOTH",
"1160 1483 OFFCURVE",
"1347 1383 OFFCURVE",
"1480 1258 CURVE SMOOTH",
"1573 1170 OFFCURVE",
"1647 1059 OFFCURVE",
"1688 924 CURVE SMOOTH",
"1707 860 OFFCURVE",
"1717 794 OFFCURVE",
"1717 725 CURVE SMOOTH",
"1717 485 OFFCURVE",
"1608 313 OFFCURVE",
"1480 192 CURVE SMOOTH",
"1348 67 OFFCURVE",
"1163 -32 OFFCURVE",
"914 -32 CURVE SMOOTH"
);
}
);
width = 1829;
}
);
unicode = 00A9;
},
{
glyphname = trademark;
layers = (
{
layerId = "E08CDE4C-5D6C-43D8-8149-5F9E51F0B944";
name = Bold;
paths = (
{
closed = 1;
nodes = (
"1009 1451 LINE",
"1245 900 LINE",
"1495 1451 LINE",
"1675 1451 LINE",
"1675 686 LINE",
"1553 686 LINE",
"1553 1281 LINE",
"1279 686 LINE",
"1199 686 LINE",
"940 1280 LINE",
"940 686 LINE",
"819 686 LINE",
"819 1451 LINE"
);
},
{
closed = 1;
nodes = (
"707 1451 LINE",
"707 1350 LINE",
"447 1350 LINE",
"447 686 LINE",
"323 686 LINE",
"323 1350 LINE",
"70 1350 LINE",
"70 1451 LINE"
);
}
);
width = 1869;
}
);
unicode = 2122;
},
{
glyphname = acute;
layers = (
{
layerId = "E08CDE4C-5D6C-43D8-8149-5F9E51F0B944";
name = Bold;
paths = (
{
closed = 1;
nodes = (
"401 1492 LINE",
"613 1492 LINE",
"305 1172 LINE",
"175 1172 LINE"
);
}
);
width = 607;
}
);
unicode = 00B4;
},
{
glyphname = dieresis;
layers = (
{
layerId = "E08CDE4C-5D6C-43D8-8149-5F9E51F0B944";
name = Bold;
paths = (
{
closed = 1;
nodes = (
"285 1183 LINE",
"121 1183 LINE",
"121 1346 LINE",
"285 1346 LINE"
);
},
{
closed = 1;
nodes = (
"617 1183 LINE",
"453 1183 LINE",
"453 1346 LINE",
"617 1346 LINE"
);
}
);
width = 743;
}
);
unicode = 00A8;
},
{
glyphname = notequal;
layers = (
{
layerId = "E08CDE4C-5D6C-43D8-8149-5F9E51F0B944";
name = Bold;
paths = (
{
closed = 1;
nodes = (
"988.999 1105 LINE",
"862 849 LINE",
"1172 849 LINE",
"1182 728 LINE",
"804 728 LINE",
"656 445 LINE",
"1173 445 LINE",
"1182 325 LINE",
"597 325 LINE",
"457 46 LINE",
"335 64 LINE",
"463 325 LINE",
"170 325 LINE",
"161 445 LINE",
"524 445 LINE",
"671 728 LINE",
"170 728 LINE",
"160 849 LINE",
"728 849 LINE",
"864 1123 LINE"
);
}
);
width = 1351;
}
);
unicode = 2260;
},
{
glyphname = AE;
layers = (
{
layerId = "E08CDE4C-5D6C-43D8-8149-5F9E51F0B944";
name = Bold;
paths = (
{
closed = 1;
nodes = (
"944 1308 LINE",
"506 546 LINE",
"1054 546 LINE",
"993.999 1308 LINE"
);
},
{
closed = 1;
nodes = (
"836 1456 LINE",
"1878 1456 LINE",
"1878 1308 LINE",
"1159 1308 LINE",
"1197 820 LINE",
"1837 820 LINE",
"1837 672 LINE",
"1216 672 LINE",
"1257 148 LINE",
"1901 148 LINE",
"1901 0 LINE",
"1104 0 LINE",
"1073 398 LINE",
"427 398 LINE",
"201 0 LINE",
"5 0 LINE"
);
}
);
width = 2028;
}
);
unicode = 00C6;
},
{
glyphname = Oslash;
layers = (
{
layerId = "E08CDE4C-5D6C-43D8-8149-5F9E51F0B944";
name = Bold;
paths = (
{
closed = 1;
nodes = (
"521 -165 LINE",
"400 -121 LINE",
"1137 1625 LINE",
"1262 1581 LINE"
);
},
{
closed = 1;
nodes = (
"1546 338 OFFCURVE",
"1304 -22 OFFCURVE",
"834 -22 CURVE SMOOTH",
"432 -22 OFFCURVE",
"116 218 OFFCURVE",
"116 730 CURVE SMOOTH",
"116 1122 OFFCURVE",
"360 1483 OFFCURVE",
"834 1483 CURVE SMOOTH",
"1233 1483 OFFCURVE",
"1546 1242 OFFCURVE",
"1546 730 CURVE SMOOTH"
);
},
{
closed = 1;
nodes = (
"300 390 OFFCURVE",
"471 123 OFFCURVE",
"834 123 CURVE SMOOTH",
"1106 123 OFFCURVE",
"1358 330 OFFCURVE",
"1358 729 CURVE SMOOTH",
"1358 1068 OFFCURVE",
"1190 1334 OFFCURVE",
"834 1334 CURVE SMOOTH",
"556 1334 OFFCURVE",
"300 1128 OFFCURVE",
"300 729 CURVE SMOOTH"
);
}
);
width = 1663;
}
);
unicode = 00D8;
},
{
glyphname = infinity;
layers = (
{
layerId = "E08CDE4C-5D6C-43D8-8149-5F9E51F0B944";
name = Bold;
paths = (
{
closed = 1;
nodes = (
"1414 355 OFFCURVE",
"1482 466 OFFCURVE",
"1482 618 CURVE SMOOTH",
"1482 717 OFFCURVE",
"1420 782 OFFCURVE",
"1348 812 CURVE SMOOTH",
"1320 823 OFFCURVE",
"1291 829 OFFCURVE",
"1258 829 CURVE SMOOTH",
"1182 829 OFFCURVE",
"1122 793 OFFCURVE",
"1075 756 CURVE SMOOTH",
"1019 712 OFFCURVE",
"969.999 652 OFFCURVE",
"929 592 CURVE",
"981.999 523 OFFCURVE",
"1031 463 OFFCURVE",
"1095 415 CURVE SMOOTH",
"1141 380 OFFCURVE",
"1190 355 OFFCURVE",
"1263 355 CURVE SMOOTH"
);
},
{
closed = 1;
nodes = (
"226 485 OFFCURVE",
"290 410 OFFCURVE",
"366 375 CURVE SMOOTH",
"395 362 OFFCURVE",
"427 355 OFFCURVE",
"463 355 CURVE SMOOTH",
"538 355 OFFCURVE",
"594 388 OFFCURVE",
"640 424 CURVE SMOOTH",
"697 468 OFFCURVE",
"747 529 OFFCURVE",
"791 589 CURVE",
"729 679 OFFCURVE",
"658 768 OFFCURVE",
"552 810 CURVE SMOOTH",
"521 822 OFFCURVE",
"488 829 OFFCURVE",
"453 829 CURVE SMOOTH",
"341 829 OFFCURVE",
"272 766 OFFCURVE",
"242 683 CURVE SMOOTH",
"232 654 OFFCURVE",
"226 624 OFFCURVE",
"226 592 CURVE SMOOTH"
);
},
{
closed = 1;
nodes = (
"1621 425 OFFCURVE",
"1522 311 OFFCURVE",
"1398 262 CURVE SMOOTH",
"1354 245 OFFCURVE",
"1308 236 OFFCURVE",
"1260 236 CURVE SMOOTH",
"1186 236 OFFCURVE",
"1117 257 OFFCURVE",
"1054 299 CURVE SMOOTH",
"990.999 341 OFFCURVE",
"926 404 OFFCURVE",
"860 488 CURVE",
"785 391 OFFCURVE",
"698 297 OFFCURVE",
"574 254 CURVE SMOOTH",
"538 242 OFFCURVE",
"500 236 OFFCURVE",
"460 236 CURVE SMOOTH",
"285 236 OFFCURVE",
"172 339 OFFCURVE",
"122 467 CURVE SMOOTH",
"104 512 OFFCURVE",
"95.9999 561 OFFCURVE",
"95.9999 612 CURVE SMOOTH",
"95.9999 715 OFFCURVE",
"146 795 OFFCURVE",
"204 847 CURVE SMOOTH",
"262 900 OFFCURVE",
"350 944 OFFCURVE",
"455 944 CURVE SMOOTH",
"600 944 OFFCURVE",
"696 873 OFFCURVE",
"772 796 CURVE SMOOTH",
"803 765 OFFCURVE",
"833 730 OFFCURVE",
"862 692 CURVE",
"936 789 OFFCURVE",
"1019 884 OFFCURVE",
"1144 926 CURVE SMOOTH",
"1180 938 OFFCURVE",
"1219 944 OFFCURVE",
"1262 944 CURVE SMOOTH",
"1434 944 OFFCURVE",
"1547 859 OFFCURVE",
"1596 735 CURVE SMOOTH",
"1613 692 OFFCURVE",
"1621 646 OFFCURVE",
"1621 595 CURVE SMOOTH"
);
}
);
width = 1724;
}
);
unicode = 221E;
},
{
glyphname = plusminus;
layers = (
{
layerId = "E08CDE4C-5D6C-43D8-8149-5F9E51F0B944";
name = Bold;
paths = (
{
closed = 1;
nodes = (
"200 0 LINE",
"200 138 LINE",
"1249 138 LINE",
"1249 0 LINE"
);
},
{
closed = 1;
nodes = (
"645 733 LINE",
"645 1107 LINE",
"794 1107 LINE",
"794 733 LINE",
"1245 733 LINE",
"1245 595 LINE",
"798 595 LINE",
"798 223 LINE",
"647 223 LINE",
"647 595 LINE",
"200 595 LINE",
"188 733 LINE"
);
}
);
width = 1458;
}
);
unicode = 00B1;
},
{
glyphname = lessequal;
layers = (
{
layerId = "E08CDE4C-5D6C-43D8-8149-5F9E51F0B944";
name = Bold;
paths = (
{
closed = 1;
nodes = (
"1146 216 LINE",
"197 666 LINE",
"197 747 LINE",
"1146 1219 LINE",
"1146 1079 LINE",
"372 710 LINE",
"1146 357 LINE"
);
},
{
closed = 1;
nodes = (
"1175 9 LINE",
"161 9 LINE",
"161 131 LINE",
"1175 131 LINE"
);
}
);
width = 1351;
}
);
unicode = 2264;
},
{
glyphname = greaterequal;
layers = (
{
layerId = "E08CDE4C-5D6C-43D8-8149-5F9E51F0B944";
name = Bold;
paths = (
{
closed = 1;
nodes = (
"1171 9 LINE",
"161 9 LINE",
"161 131 LINE",
"1171 131 LINE"
);
},
{
closed = 1;
nodes = (
"196 1221 LINE",
"1152 748 LINE",
"1152 668 LINE",
"192 218 LINE",
"192 359 LINE",
"973.999 707 LINE",
"196 1081 LINE"
);
}
);
width = 1350;
}
);
unicode = 2265;
},
{
glyphname = yen;
layers = (
{
layerId = "E08CDE4C-5D6C-43D8-8149-5F9E51F0B944";
name = Bold;
paths = (
{
closed = 1;
nodes = (
"680 0 LINE",
"508 0 LINE",
"508 283 LINE",
"109 283 LINE",
"97.9999 423 LINE",
"506 423 LINE",
"506 574 LINE",
"103 574 LINE",
"103 716 LINE",
"471 716 LINE",
"26 1420 LINE",
"231 1420 LINE",
"354 1212 OFFCURVE",
"481 1007 OFFCURVE",
"601 796 CURVE",
"727 1002 OFFCURVE",
"849 1212 OFFCURVE",
"972.999 1420 CURVE",
"1159 1420 LINE",
"704 716 LINE",
"1068 716 LINE",
"1068 574 LINE",
"677 574 LINE",
"677 423 LINE",
"1071 423 LINE",
"1071 283 LINE",
"680 283 LINE"
);
}
);
width = 1189;
}
);
unicode = 00A5;
},
{
glyphname = partialdiff;
layers = (
{
layerId = "E08CDE4C-5D6C-43D8-8149-5F9E51F0B944";
name = Bold;
paths = (
{
closed = 1;
nodes = (
"618 111 OFFCURVE",
"700 190 OFFCURVE",
"755 271 CURVE SMOOTH",
"821 369 OFFCURVE",
"868 507 OFFCURVE",
"885 655 CURVE",
"853 744 OFFCURVE",
"792 817 OFFCURVE",
"705 852 CURVE SMOOTH",
"676 864 OFFCURVE",
"644 869 OFFCURVE",
"609 869 CURVE SMOOTH",
"494 869 OFFCURVE",
"409 804 OFFCURVE",
"355 734 CURVE SMOOTH",
"296 658 OFFCURVE",
"252 547 OFFCURVE",
"252 417 CURVE SMOOTH",
"252 280 OFFCURVE",
"302 178 OFFCURVE",
"394 133 CURVE SMOOTH",
"424 118 OFFCURVE",
"458 111 OFFCURVE",
"495 111 CURVE SMOOTH"
);
},
{
closed = 1;
nodes = (
"451 1399 OFFCURVE",
"361 1351 OFFCURVE",
"291 1304 CURVE",
"280 1442 LINE",
"355 1492 OFFCURVE",
"466 1533 OFFCURVE",
"588 1533 CURVE SMOOTH",
"853 1533 OFFCURVE",
"982.999 1373 OFFCURVE",
"1040 1156 CURVE SMOOTH",
"1063 1070 OFFCURVE",
"1074 968.999 OFFCURVE",
"1074 852 CURVE SMOOTH",
"1074 611 OFFCURVE",
"1020 407 OFFCURVE",
"931 252 CURVE SMOOTH",
"870 146 OFFCURVE",
"786 60 OFFCURVE",
"672 11 CURVE SMOOTH",
"618 -12 OFFCURVE",
"557 -24 OFFCURVE",
"492 -24 CURVE SMOOTH",
"284 -24 OFFCURVE",
"160 87 OFFCURVE",
"109 245 CURVE SMOOTH",
"92 299 OFFCURVE",
"83 357 OFFCURVE",
"83 420 CURVE SMOOTH",
"83 681 OFFCURVE",
"213 870 OFFCURVE",
"390 957 CURVE SMOOTH",
"451 986.999 OFFCURVE",
"516 1002 OFFCURVE",
"586 1002 CURVE SMOOTH",
"736 1002 OFFCURVE",
"832 927 OFFCURVE",
"902 836 CURVE",
"902 856 OFFCURVE",
"903 890 OFFCURVE",
"903 911 CURVE SMOOTH",
"903 1123 OFFCURVE",
"842 1293 OFFCURVE",
"706 1366 CURVE SMOOTH",
"664 1388 OFFCURVE",
"618 1399 OFFCURVE",
"565 1399 CURVE SMOOTH"
);
}
);
width = 1167;
}
);
unicode = 2202;
},
{
glyphname = summation;
layers = (
{
layerId = "E08CDE4C-5D6C-43D8-8149-5F9E51F0B944";
name = Bold;
paths = (
{
closed = 1;
nodes = (
"1220 -329 LINE",
"57 -329 LINE",
"57 -239 LINE",
"697 552 LINE",
"79 1328 LINE",
"79 1423 LINE",
"1175 1423 LINE",
"1175 1281 LINE",
"325 1281 LINE",
"898 561 LINE",
"294 -181 LINE",
"1220 -181 LINE"
);
}
);
width = 1264;
}
);
unicode = 2211;
},
{
glyphname = product;
layers = (
{
layerId = "E08CDE4C-5D6C-43D8-8149-5F9E51F0B944";
name = Bold;
paths = (
{
closed = 1;
nodes = (
"1440 1278 LINE",
"1327 1278 LINE",
"1327 -329 LINE",
"1149 -329 LINE",
"1149 1278 LINE",
"426 1278 LINE",
"426 -329 LINE",
"251 -329 LINE",
"251 1278 LINE",
"126 1278 LINE",
"110 1423 LINE",
"1456 1423 LINE"
);
}
);
width = 1568;
}
);
unicode = 220F;
},
{
glyphname = pi;
layers = (
{
layerId = "E08CDE4C-5D6C-43D8-8149-5F9E51F0B944";
name = Bold;
paths = (
{
closed = 1;
nodes = (
"17 976.999 LINE",
"95.9999 1037 OFFCURVE",
"227 1040 OFFCURVE",
"369 1040 CURVE SMOOTH",
"1214 1040 LINE",
"1214 907 LINE",
"1010 907 LINE",
"1010 288 LINE SMOOTH",
"1010 206 OFFCURVE",
"1024 147 OFFCURVE",
"1108 147 CURVE SMOOTH",
"1133 147 OFFCURVE",
"1159 151 OFFCURVE",
"1188 160 CURVE",
"1186 130 LINE SMOOTH",
"1185 120 OFFCURVE",
"1185 110 OFFCURVE",
"1185 99.9999 CURVE SMOOTH",
"1185 65 OFFCURVE",
"1188 35 OFFCURVE",
"1198 6 CURVE",
"1153 -2 OFFCURVE",
"1108 -8 OFFCURVE",
"1061 -8 CURVE SMOOTH",
"888 -8 OFFCURVE",
"851 104 OFFCURVE",
"851 279 CURVE SMOOTH",
"851 907 LINE",
"480 907 LINE",
"458 619 OFFCURVE",
"439 335 OFFCURVE",
"374 88 CURVE SMOOTH",
"364 51 OFFCURVE",
"353 21 OFFCURVE",
"341 0 CURVE",
"172 0 LINE",
"232 105 OFFCURVE",
"257 263 OFFCURVE",
"276 411 CURVE SMOOTH",
"296 567 OFFCURVE",
"306 739 OFFCURVE",
"311 907 CURVE",
"194 904 OFFCURVE",
"111 887 OFFCURVE",
"34 846 CURVE"
);
}
);
width = 1288;
}
);
unicode = 03C0;
},
{
glyphname = integral;
layers = (
{
layerId = "E08CDE4C-5D6C-43D8-8149-5F9E51F0B944";
name = Bold;
paths = (
{
closed = 1;
nodes = (
"368 -264 OFFCURVE",
"393 -183 OFFCURVE",
"393 -47 CURVE SMOOTH",
"393 1255 LINE SMOOTH",
"393 1477 OFFCURVE",
"469 1631 OFFCURVE",
"692 1631 CURVE SMOOTH",
"747 1631 OFFCURVE",
"784 1620 OFFCURVE",
"828 1610 CURVE",
"830 1481 LINE",
"804 1491 OFFCURVE",
"757 1496 OFFCURVE",
"720 1496 CURVE SMOOTH",
"584 1496 OFFCURVE",
"557 1415 OFFCURVE",
"557 1279 CURVE SMOOTH",
"557 -23 LINE SMOOTH",
"557 -245 OFFCURVE",
"483 -399 OFFCURVE",
"260 -399 CURVE SMOOTH",
"201 -399 OFFCURVE",
"172 -391 OFFCURVE",
"124 -378 CURVE",
"122 -249 LINE",
"148 -259 OFFCURVE",
"195 -264 OFFCURVE",
"232 -264 CURVE SMOOTH"
);
}
);
width = 702;
}
);
unicode = 222B;
},
{
glyphname = ordfeminine;
layers = (
{
layerId = "E08CDE4C-5D6C-43D8-8149-5F9E51F0B944";
name = Bold;
paths = (
{
closed = 1;
nodes = (
"537 860 LINE",
"492 805 OFFCURVE",
"417 768 OFFCURVE",
"317 768 CURVE SMOOTH",
"205 768 OFFCURVE",
"122 814 OFFCURVE",
"85 890 CURVE SMOOTH",
"72 916 OFFCURVE",
"66 944 OFFCURVE",
"66 974.999 CURVE SMOOTH",
"66 1112 OFFCURVE",
"189 1174 OFFCURVE",
"309 1192 CURVE SMOOTH",
"383 1202 OFFCURVE",
"462 1201 OFFCURVE",
"536 1211 CURVE",
"536 1219 LINE SMOOTH",
"536 1329 OFFCURVE",
"498 1369 OFFCURVE",
"388 1369 CURVE SMOOTH",
"289 1369 OFFCURVE",
"222 1340 OFFCURVE",
"178 1275 CURVE",
"111 1350 LINE",
"162 1436 OFFCURVE",
"262 1477 OFFCURVE",
"394 1477 CURVE SMOOTH",
"558 1477 OFFCURVE",
"669 1400 OFFCURVE",
"669 1235 CURVE SMOOTH",
"667 914 LINE SMOOTH",
"667 870 OFFCURVE",
"669 846 OFFCURVE",
"674 786 CURVE",
"543 786 LINE"
);
},
{
closed = 1;
nodes = (
"202 899 OFFCURVE",
"260 871 OFFCURVE",
"338 871 CURVE SMOOTH",
"468 871 OFFCURVE",
"530 962 OFFCURVE",
"536 1085 CURVE",
"536 1110 LINE",
"424 1088 OFFCURVE",
"202 1115 OFFCURVE",
"202 976.999 CURVE SMOOTH"
);
}
);
width = 745;
}
);
unicode = 00AA;
},
{
glyphname = ordmasculine;
layers = (
{
layerId = "E08CDE4C-5D6C-43D8-8149-5F9E51F0B944";
name = Bold;
paths = (
{
closed = 1;
nodes = (
"591 1476 OFFCURVE",
"705 1390 OFFCURVE",
"751 1260 CURVE SMOOTH",
"766 1217 OFFCURVE",
"774 1171 OFFCURVE",
"774 1121 CURVE SMOOTH",
"774 954 OFFCURVE",
"690 845 OFFCURVE",
"570 795 CURVE SMOOTH",
"526 776 OFFCURVE",
"474 767 OFFCURVE",
"416 767 CURVE SMOOTH",
"191 767 OFFCURVE",
"53 901 OFFCURVE",
"53 1124 CURVE SMOOTH",
"53 1291 OFFCURVE",
"140 1398 OFFCURVE",
"261 1448 CURVE SMOOTH",
"306 1466 OFFCURVE",
"357 1476 OFFCURVE",
"415 1476 CURVE SMOOTH"
);
},
{
closed = 1;
nodes = (
"636 1264 OFFCURVE",
"558 1369 OFFCURVE",
"413 1369 CURVE SMOOTH",
"271 1369 OFFCURVE",
"193 1264 OFFCURVE",
"193 1123 CURVE SMOOTH",
"193 976.999 OFFCURVE",
"269 875 OFFCURVE",
"416 875 CURVE SMOOTH",
"557 875 OFFCURVE",
"636 978.999 OFFCURVE",
"636 1119 CURVE SMOOTH"
);
}
);
width = 824;
}
);
unicode = 00BA;
},
{
glyphname = ae;
layers = (
{
layerId = "E08CDE4C-5D6C-43D8-8149-5F9E51F0B944";
name = Bold;
paths = (
{
closed = 1;
nodes = (
"391 917 OFFCURVE",
"298 864 OFFCURVE",
"238 763 CURVE",
"148 856 LINE",
"217 984.999 OFFCURVE",
"353 1053 OFFCURVE",
"550 1053 CURVE SMOOTH",
"669 1053 OFFCURVE",
"769 1007 OFFCURVE",
"830 944 CURVE SMOOTH",
"854 919 OFFCURVE",
"869 890 OFFCURVE",
"878 856 CURVE",
"944 970.999 OFFCURVE",
"1064 1053 OFFCURVE",
"1231 1053 CURVE SMOOTH",
"1553 1053 OFFCURVE",
"1697 845 OFFCURVE",
"1697 524 CURVE SMOOTH",
"1697 479 LINE",
"942 479 LINE",
"942 475 OFFCURVE",
"941 468 OFFCURVE",
"941 463 CURVE SMOOTH",
"941 253 OFFCURVE",
"1029 113 OFFCURVE",
"1242 113 CURVE SMOOTH",
"1397 113 OFFCURVE",
"1511 193 OFFCURVE",
"1577 292 CURVE",
"1664 206 LINE",
"1582 65 OFFCURVE",
"1446 -25 OFFCURVE",
"1232 -25 CURVE SMOOTH",
"1044 -25 OFFCURVE",
"919 71 OFFCURVE",
"854 197 CURVE",
"776 72 OFFCURVE",
"641 -28 OFFCURVE",
"441 -28 CURVE SMOOTH",
"277 -28 OFFCURVE",
"160 39 OFFCURVE",
"108 152 CURVE SMOOTH",
"90 190 OFFCURVE",
"81 234 OFFCURVE",
"81 282 CURVE SMOOTH",
"81 611 OFFCURVE",
"443 615 OFFCURVE",
"771 615 CURVE",
"771 628 LINE SMOOTH",
"771 793 OFFCURVE",
"706 917 OFFCURVE",
"540 917 CURVE SMOOTH"
);
},
{
closed = 1;
nodes = (
"250 163 OFFCURVE",
"347 109 OFFCURVE",
"474 109 CURVE SMOOTH",
"694 109 OFFCURVE",
"773 262 OFFCURVE",
"773 479 CURVE",
"627 476 LINE SMOOTH",
"486 472 OFFCURVE",
"349 463 OFFCURVE",
"282 387 CURVE SMOOTH",
"261 363 OFFCURVE",
"250 331 OFFCURVE",
"250 290 CURVE SMOOTH"
);
},
{
closed = 1;
nodes = (
"1524 616 LINE",
"1507 790 OFFCURVE",
"1440 917 OFFCURVE",
"1250 917 CURVE SMOOTH",
"1105 917 OFFCURVE",
"1015 833 OFFCURVE",
"970.999 730 CURVE SMOOTH",
"956 694 OFFCURVE",
"946 656 OFFCURVE",
"943 616 CURVE"
);
}
);
width = 1807;
}
);
unicode = 00E6;
},
{
glyphname = oslash;
layers = (
{
layerId = "E08CDE4C-5D6C-43D8-8149-5F9E51F0B944";
name = Bold;
paths = (
{
closed = 1;
nodes = (
"884 1277 LINE",
"986.999 1245 LINE",
"346 -261 LINE",
"247 -229 LINE"
);
},
{
closed = 1;
nodes = (
"972.999 1048 OFFCURVE",
"1140 814 OFFCURVE",
"1140 513 CURVE SMOOTH",
"1140 142 OFFCURVE",
"905 -22 OFFCURVE",
"620 -22 CURVE SMOOTH",
"262 -22 OFFCURVE",
"90 212 OFFCURVE",
"90 511 CURVE SMOOTH",
"90 885 OFFCURVE",
"331 1048 OFFCURVE",
"619 1048 CURVE SMOOTH"
);
},
{
closed = 1;
nodes = (
"969.999 782 OFFCURVE",
"815 907 OFFCURVE",
"619 907 CURVE SMOOTH",
"375 907 OFFCURVE",
"260 727 OFFCURVE",
"260 509 CURVE SMOOTH",
"260 242 OFFCURVE",
"420 116 OFFCURVE",
"620 116 CURVE SMOOTH",
"859 116 OFFCURVE",
"969.999 297 OFFCURVE",
"969.999 511 CURVE SMOOTH"
);
}
);
width = 1238;
}
);
unicode = 00F8;
},
{
glyphname = questiondown;
layers = (
{
layerId = "E08CDE4C-5D6C-43D8-8149-5F9E51F0B944";
name = Bold;
paths = (
{
closed = 1;
nodes = (
"899 54 LINE",
"819 15 OFFCURVE",
"724 -11 OFFCURVE",
"618 -11 CURVE SMOOTH",
"426 -11 OFFCURVE",
"282 56 OFFCURVE",
"216 183 CURVE SMOOTH",
"194 226 OFFCURVE",
"183 276 OFFCURVE",
"183 334 CURVE SMOOTH",
"183 433 OFFCURVE",
"237 505 OFFCURVE",
"286 565 CURVE SMOOTH",
"368 665 OFFCURVE",
"481 750 OFFCURVE",
"550 860 CURVE SMOOTH",
"570 891 OFFCURVE",
"579 923 OFFCURVE",
"579 954 CURVE SMOOTH",
"579 984.999 OFFCURVE",
"576 1023 OFFCURVE",
"571 1049 CURVE SMOOTH",
"562 1099 LINE",
"726 1099 LINE",
"731 1051 OFFCURVE",
"736 986.999 OFFCURVE",
"736 937 CURVE SMOOTH",
"736 845 OFFCURVE",
"684 780 OFFCURVE",
"636 728 CURVE SMOOTH",
"552 637 OFFCURVE",
"442 563 OFFCURVE",
"380 453 CURVE SMOOTH",
"361 419 OFFCURVE",
"352 382 OFFCURVE",
"352 342 CURVE SMOOTH",
"352 189 OFFCURVE",
"485 131 OFFCURVE",
"638 131 CURVE SMOOTH",
"742 131 OFFCURVE",
"828 160 OFFCURVE",
"899 200 CURVE"
);
},
{
closed = 1;
nodes = (
"536 1478 LINE",
"753 1478 LINE",
"753 1268 LINE",
"536 1268 LINE"
);
}
);
width = 1032;
}
);
unicode = 00BF;
},
{
glyphname = exclamdown;
layers = (
{
layerId = "E08CDE4C-5D6C-43D8-8149-5F9E51F0B944";
name = Bold;
paths = (
{
closed = 1;
nodes = (
"260 1090 LINE",
"474 1090 LINE",
"474 884 LINE",
"260 884 LINE"
);
},
{
closed = 1;
nodes = (
"426 -384 LINE",
"260 -384 LINE",
"260 694 LINE",
"426 694 LINE"
);
}
);
width = 737;
}
);
unicode = 00A1;
},
{
glyphname = logicalnot;
layers = (
{
layerId = "E08CDE4C-5D6C-43D8-8149-5F9E51F0B944";
name = Bold;
paths = (
{
closed = 1;
nodes = (
"1098 238 LINE",
"1098 659 LINE",
"200 659 LINE",
"200 798 LINE",
"1248 798 LINE",
"1248 238 LINE"
);
}
);
width = 1458;
}
);
unicode = 00AC;
},
{
glyphname = radical;
layers = (
{
layerId = "E08CDE4C-5D6C-43D8-8149-5F9E51F0B944";
name = Bold;
paths = (
{
closed = 1;
nodes = (
"1212 1596 LINE",
"746 -153 LINE",
"611 -153 LINE",
"279 690 LINE",
"107 662 LINE",
"87 774 LINE",
"382 825 LINE",
"611 214 LINE",
"669 41 LINE",
"709 217 LINE",
"1082 1596 LINE"
);
}
);
width = 1314;
}
);
unicode = 221A;
},
{
glyphname = florin;
layers = (
{
layerId = "E08CDE4C-5D6C-43D8-8149-5F9E51F0B944";
name = Bold;
paths = (
{
closed = 1;
nodes = (
"999.999 1272 LINE",
"967 1285 OFFCURVE",
"931 1294 OFFCURVE",
"891 1294 CURVE SMOOTH",
"776 1294 OFFCURVE",
"736 1236 OFFCURVE",
"718 1139 CURVE SMOOTH",
"682 943 LINE",
"882 943 LINE",
"872 803 LINE",
"659 803 LINE",
"532 120 LINE SMOOTH",
"499 -52 OFFCURVE",
"457 -218 OFFCURVE",
"330 -295 CURVE SMOOTH",
"290 -320 OFFCURVE",
"238 -332 OFFCURVE",
"177 -332 CURVE SMOOTH",
"146 -332 OFFCURVE",
"111 -327 OFFCURVE",
"73 -316 CURVE",
"85 -178 LINE",
"112 -189 OFFCURVE",
"138 -194 OFFCURVE",
"163 -194 CURVE SMOOTH",
"275 -194 OFFCURVE",
"312 -84 OFFCURVE",
"334 7 CURVE SMOOTH",
"397 260 OFFCURVE",
"436 538 OFFCURVE",
"487 803 CURVE",
"332 803 LINE",
"342 943 LINE",
"511 943 LINE",
"534 1094 LINE SMOOTH",
"560 1288 OFFCURVE",
"643 1436 OFFCURVE",
"865 1436 CURVE SMOOTH",
"915 1436 OFFCURVE",
"964 1428 OFFCURVE",
"1008 1417 CURVE"
);
}
);
width = 1190;
}
);
unicode = 0192;
},
{
glyphname = approxequal;
layers = (
{
layerId = "E08CDE4C-5D6C-43D8-8149-5F9E51F0B944";
name = Bold;
paths = (
{
closed = 1;
nodes = (
"1004 380 OFFCURVE",
"1046 463 OFFCURVE",
"1077 546 CURVE",
"1187 518 LINE",
"1154 375 OFFCURVE",
"1072 262 OFFCURVE",
"898 262 CURVE SMOOTH",
"819 262 OFFCURVE",
"762 289 OFFCURVE",
"707 317 CURVE SMOOTH",
"657 343 OFFCURVE",
"588 385 OFFCURVE",
"536 407 CURVE SMOOTH",
"506 420 OFFCURVE",
"477 426 OFFCURVE",
"449 426 CURVE SMOOTH",
"342 426 OFFCURVE",
"294 349 OFFCURVE",
"268 261 CURVE",
"154 289 LINE",
"189 433 OFFCURVE",
"283 546 OFFCURVE",
"452 546 CURVE SMOOTH",
"550 546 OFFCURVE",
"635 500 OFFCURVE",
"702 463 CURVE SMOOTH",
"740 442 OFFCURVE",
"776 423 OFFCURVE",
"810 406 CURVE SMOOTH",
"844 389 OFFCURVE",
"875 380 OFFCURVE",
"904 380 CURVE SMOOTH"
);
},
{
closed = 1;
nodes = (
"1003 752 OFFCURVE",
"1045 832 OFFCURVE",
"1075 918 CURVE",
"1185 890 LINE",
"1155 745 OFFCURVE",
"1069 634 OFFCURVE",
"896 634 CURVE SMOOTH",
"816 634 OFFCURVE",
"761 660 OFFCURVE",
"704 689 CURVE SMOOTH",
"653 715 OFFCURVE",
"584 757 OFFCURVE",
"532 780 CURVE SMOOTH",
"503 793 OFFCURVE",
"474 799 OFFCURVE",
"446 799 CURVE SMOOTH",
"340 799 OFFCURVE",
"293 721 OFFCURVE",
"267 634 CURVE",
"152 661 LINE",
"185 808 OFFCURVE",
"279 917 OFFCURVE",
"450 917 CURVE SMOOTH",
"597 917 OFFCURVE",
"706 816 OFFCURVE",
"814 772 CURVE SMOOTH",
"846 759 OFFCURVE",
"875 752 OFFCURVE",
"902 752 CURVE SMOOTH"
);
}
);
width = 1351;
}
);
unicode = 2248;
},
{
glyphname = Delta;
layers = (
{
layerId = "E08CDE4C-5D6C-43D8-8149-5F9E51F0B944";
name = Bold;
paths = (
{
closed = 1;
nodes = (
"1263 0 LINE",
"40 0 LINE",
"40 80 LINE",
"561 1429 LINE",
"743 1429 LINE",
"1263 80 LINE"
);
},
{
closed = 1;
nodes = (
"1033 162 LINE",
"681 1111 LINE",
"647 1218 LINE",
"615 1111 LINE",
"269 162 LINE"
);
}
);
width = 1314;
}
);
unicode = 0394;
},
{
glyphname = guillemotleft;
layers = (
{
layerId = "E08CDE4C-5D6C-43D8-8149-5F9E51F0B944";
name = Bold;
paths = (
{
closed = 1;
nodes = (
"521 914 LINE",
"681 914 LINE",
"416 541 LINE",
"672 171 LINE",
"515 171 LINE",
"246 541 LINE"
);
},
{
closed = 1;
nodes = (
"890 914 LINE",
"1049 914 LINE",
"786 541 LINE",
"1042 171 LINE",
"885 171 LINE",
"616 541 LINE"
);
}
);
width = 1156;
}
);
unicode = 00AB;
},
{
glyphname = guillemotright;
layers = (
{
layerId = "E08CDE4C-5D6C-43D8-8149-5F9E51F0B944";
name = Bold;
paths = (
{
closed = 1;
nodes = (
"720 171 LINE",
"563 171 LINE",
"824 542 LINE",
"570 914 LINE",
"726 914 LINE",
"995.999 542 LINE"
);
},
{
closed = 1;
nodes = (
"325 171 LINE",
"165 171 LINE",
"430 542 LINE",
"172 914 LINE",
"330 914 LINE",
"600 542 LINE"
);
}
);
width = 1156;
}
);
unicode = 00BB;
},
{
glyphname = ellipsis;
layers = (
{
layerId = "E08CDE4C-5D6C-43D8-8149-5F9E51F0B944";
name = Bold;
paths = (
{
closed = 1;
nodes = (
"376 -11 LINE",
"159 -11 LINE",
"159 199 LINE",
"376 199 LINE"
);
},
{
closed = 1;
nodes = (
"916 -11 LINE",
"699 -11 LINE",
"699 199 LINE",
"916 199 LINE"
);
},
{
closed = 1;
nodes = (
"1456 -11 LINE",
"1239 -11 LINE",
"1239 199 LINE",
"1456 199 LINE"
);
}
);
width = 1620;
}
);
unicode = 2026;
},
{
glyphname = Agrave;
layers = (
{
layerId = "E08CDE4C-5D6C-43D8-8149-5F9E51F0B944";
name = Bold;
paths = (
{
closed = 1;
nodes = (
"199 0 LINE",
"13 0 LINE",
"617 1456 LINE",
"802 1456 LINE",
"1407 0 LINE",
"1216 0 LINE",
"1053 397 LINE",
"355 397 LINE"
);
},
{
closed = 1;
nodes = (
"410 545 LINE",
"993.999 545 LINE",
"760 1150 LINE",
"742 1192 OFFCURVE",
"721 1252 OFFCURVE",
"707 1298 CURVE",
"692 1252 OFFCURVE",
"670 1191 OFFCURVE",
"655 1149 CURVE"
);
},
{
closed = 1;
nodes = (
"346 1922 LINE",
"560 1922 LINE",
"807 1602 LINE",
"678 1602 LINE"
);
}
);
width = 1425;
}
);
unicode = 00C0;
},
{
glyphname = Atilde;
layers = (
{
layerId = "E08CDE4C-5D6C-43D8-8149-5F9E51F0B944";
name = Bold;
paths = (
{
closed = 1;
nodes = (
"199 0 LINE",
"13 0 LINE",
"617 1456 LINE",
"802 1456 LINE",
"1407 0 LINE",
"1216 0 LINE",
"1053 397 LINE",
"355 397 LINE"
);
},
{
closed = 1;
nodes = (
"410 545 LINE",
"993.999 545 LINE",
"760 1150 LINE",
"742 1192 OFFCURVE",
"721 1252 OFFCURVE",
"707 1298 CURVE",
"692 1252 OFFCURVE",
"670 1191 OFFCURVE",
"655 1149 CURVE"
);
},
{
closed = 1;
nodes = (
"893 1775 OFFCURVE",
"920 1814 OFFCURVE",
"927 1865 CURVE",
"1035 1865 LINE",
"1022 1752 OFFCURVE",
"964 1650 OFFCURVE",
"840 1650 CURVE SMOOTH",
"744 1650 OFFCURVE",
"682 1718 OFFCURVE",
"587 1718 CURVE SMOOTH",
"533 1718 OFFCURVE",
"503 1690 OFFCURVE",
"496 1633 CURVE",
"391 1633 LINE",
"401 1749 OFFCURVE",
"466 1843 OFFCURVE",
"590 1843 CURVE SMOOTH",
"666 1843 OFFCURVE",
"723 1807 OFFCURVE",
"781 1786 CURVE SMOOTH",
"801 1779 OFFCURVE",
"821 1775 OFFCURVE",
"840 1775 CURVE SMOOTH"
);
}
);
width = 1425;
}
);
unicode = 00C3;
},
{
glyphname = Otilde;
layers = (
{
layerId = "E08CDE4C-5D6C-43D8-8149-5F9E51F0B944";
name = Bold;
paths = (
{
closed = 1;
nodes = (
"1546 338 OFFCURVE",
"1304 -22 OFFCURVE",
"834 -22 CURVE SMOOTH",
"432 -22 OFFCURVE",
"116 218 OFFCURVE",
"116 730 CURVE SMOOTH",
"116 1122 OFFCURVE",
"360 1483 OFFCURVE",
"834 1483 CURVE SMOOTH",
"1233 1483 OFFCURVE",
"1546 1242 OFFCURVE",
"1546 730 CURVE SMOOTH"
);
},
{
closed = 1;
nodes = (
"300 390 OFFCURVE",
"471 123 OFFCURVE",
"834 123 CURVE SMOOTH",
"1106 123 OFFCURVE",
"1358 330 OFFCURVE",
"1358 729 CURVE SMOOTH",
"1358 1068 OFFCURVE",
"1190 1334 OFFCURVE",
"834 1334 CURVE SMOOTH",
"556 1334 OFFCURVE",
"300 1128 OFFCURVE",
"300 729 CURVE SMOOTH"
);
},
{
closed = 1;
nodes = (
"1011 1775 OFFCURVE",
"1038 1814 OFFCURVE",
"1045 1865 CURVE",
"1153 1865 LINE",
"1140 1752 OFFCURVE",
"1082 1650 OFFCURVE",
"958 1650 CURVE SMOOTH",
"862 1650 OFFCURVE",
"800 1718 OFFCURVE",
"705 1718 CURVE SMOOTH",
"651 1718 OFFCURVE",
"621 1690 OFFCURVE",
"614 1633 CURVE",
"509 1633 LINE",
"519 1749 OFFCURVE",
"584 1843 OFFCURVE",
"708 1843 CURVE SMOOTH",
"784 1843 OFFCURVE",
"841 1807 OFFCURVE",
"899 1786 CURVE SMOOTH",
"919 1779 OFFCURVE",
"939 1775 OFFCURVE",
"958 1775 CURVE SMOOTH"
);
}
);
width = 1662;
}
);
unicode = 00D5;
},
{
glyphname = OE;
layers = (
{
layerId = "E08CDE4C-5D6C-43D8-8149-5F9E51F0B944";
name = Bold;
paths = (
{
closed = 1;
nodes = (
"967.999 1483 OFFCURVE",
"1069 1439 OFFCURVE",
"1151 1381 CURVE",
"1151 1456 LINE",
"1954 1456 LINE",
"1954 1308 LINE",
"1323 1308 LINE",
"1323 820 LINE",
"1916 820 LINE",
"1916 672 LINE",
"1323 672 LINE",
"1323 148 LINE",
"1984 148 LINE",
"1984 0 LINE",
"1151 0 LINE",
"1151 105 LINE",
"1070 32 OFFCURVE",
"969.999 -23 OFFCURVE",
"829 -23 CURVE SMOOTH",
"476 -23 OFFCURVE",
"256 154 OFFCURVE",
"163 418 CURVE SMOOTH",
"130 511 OFFCURVE",
"114 614 OFFCURVE",
"114 729 CURVE SMOOTH",
"114 1083 OFFCURVE",
"280 1320 OFFCURVE",
"532 1426 CURVE SMOOTH",
"621 1464 OFFCURVE",
"723 1483 OFFCURVE",
"837 1483 CURVE SMOOTH"
);
},
{
closed = 1;
nodes = (
"1151 1219 LINE",
"1072 1288 OFFCURVE",
"971.999 1335 OFFCURVE",
"830 1335 CURVE SMOOTH",
"646 1335 OFFCURVE",
"518 1256 OFFCURVE",
"434 1151 CURVE SMOOTH",
"352 1049 OFFCURVE",
"298 901 OFFCURVE",
"298 725 CURVE SMOOTH",
"298 452 OFFCURVE",
"409 260 OFFCURVE",
"597 172 CURVE SMOOTH",
"663 141 OFFCURVE",
"740 125 OFFCURVE",
"827 125 CURVE SMOOTH",
"972.999 125 OFFCURVE",
"1075 186 OFFCURVE",
"1151 265 CURVE"
);
}
);
width = 2099;
}
);
unicode = 0152;
},
{
glyphname = oe;
layers = (
{
layerId = "E08CDE4C-5D6C-43D8-8149-5F9E51F0B944";
name = Bold;
paths = (
{
closed = 1;
nodes = (
"1726 1053 OFFCURVE",
"1868 835 OFFCURVE",
"1868 525 CURVE SMOOTH",
"1868 472 LINE",
"1113 470 LINE",
"1113 450 LINE SMOOTH",
"1117 296 OFFCURVE",
"1181 185 OFFCURVE",
"1290 135 CURVE SMOOTH",
"1328 118 OFFCURVE",
"1371 109 OFFCURVE",
"1421 109 CURVE SMOOTH",
"1574 109 OFFCURVE",
"1685 192 OFFCURVE",
"1748 292 CURVE",
"1836 206 LINE",
"1757 63 OFFCURVE",
"1616 -28 OFFCURVE",
"1410 -28 CURVE SMOOTH",
"1213 -28 OFFCURVE",
"1082 62 OFFCURVE",
"1022 209 CURVE",
"961 57 OFFCURVE",
"821 -28 OFFCURVE",
"610 -28 CURVE SMOOTH",
"354 -28 OFFCURVE",
"195 110 OFFCURVE",
"127 300 CURVE SMOOTH",
"104 365 OFFCURVE",
"92 435 OFFCURVE",
"92 509 CURVE SMOOTH",
"92 761 OFFCURVE",
"217 932 OFFCURVE",
"396 1010 CURVE SMOOTH",
"462 1039 OFFCURVE",
"536 1053 OFFCURVE",
"620 1053 CURVE SMOOTH",
"830 1053 OFFCURVE",
"952 964 OFFCURVE",
"1027 821 CURVE",
"1095 963 OFFCURVE",
"1216 1053 OFFCURVE",
"1417 1053 CURVE SMOOTH"
);
},
{
closed = 1;
nodes = (
"1695 609 LINE",
"1695 793 OFFCURVE",
"1607 917 OFFCURVE",
"1423 917 CURVE SMOOTH",
"1277 917 OFFCURVE",
"1183 830 OFFCURVE",
"1140 725 CURVE SMOOTH",
"1125 688 OFFCURVE",
"1116 649 OFFCURVE",
"1113 609 CURVE"
);
},
{
closed = 1;
nodes = (
"945 745 OFFCURVE",
"846 917 OFFCURVE",
"612 917 CURVE SMOOTH",
"433 917 OFFCURVE",
"330 802 OFFCURVE",
"288 663 CURVE SMOOTH",
"273 614 OFFCURVE",
"265 562 OFFCURVE",
"265 507 CURVE SMOOTH",
"265 327 OFFCURVE",
"338 200 OFFCURVE",
"462 141 CURVE SMOOTH",
"506 120 OFFCURVE",
"559 109 OFFCURVE",
"620 109 CURVE SMOOTH",
"845 109 OFFCURVE",
"945 287 OFFCURVE",
"945 511 CURVE SMOOTH"
);
}
);
width = 1970;
}
);
unicode = 0153;
},
{
glyphname = endash;
layers = (
{
layerId = "E08CDE4C-5D6C-43D8-8149-5F9E51F0B944";
name = Bold;
paths = (
{
closed = 1;
nodes = (
"1084 489 LINE",
"-6 489 LINE",
"-6 626 LINE",
"1084 626 LINE"
);
}
);
width = 1085;
}
);
unicode = 2013;
},
{
glyphname = emdash;
layers = (
{
layerId = "E08CDE4C-5D6C-43D8-8149-5F9E51F0B944";
name = Bold;
paths = (
{
closed = 1;
nodes = (
"2160 489 LINE",
"-3 489 LINE",
"-3 626 LINE",
"2160 626 LINE"
);
}
);
width = 2171;
}
);
unicode = 2014;
},
{
glyphname = quotedblleft;
layers = (
{
layerId = "E08CDE4C-5D6C-43D8-8149-5F9E51F0B944";
name = Bold;
paths = (
{
closed = 1;
nodes = (
"361 1023 LINE",
"179 1023 LINE",
"333 1463 LINE",
"466 1463 LINE"
);
},
{
closed = 1;
nodes = (
"711 1023 LINE",
"528 1023 LINE",
"682 1463 LINE",
"815 1463 LINE"
);
}
);
width = 1024;
}
);
unicode = 201C;
},
{
glyphname = quotedblright;
layers = (
{
layerId = "E08CDE4C-5D6C-43D8-8149-5F9E51F0B944";
name = Bold;
paths = (
{
closed = 1;
nodes = (
"312 1463 LINE",
"494 1463 LINE",
"341 1023 LINE",
"208 1023 LINE"
);
},
{
closed = 1;
nodes = (
"639 1463 LINE",
"821 1463 LINE",
"667 1023 LINE",
"534 1023 LINE"
);
}
);
width = 1024;
}
);
unicode = 201D;
},
{
glyphname = quoteleft;
layers = (
{
layerId = "E08CDE4C-5D6C-43D8-8149-5F9E51F0B944";
name = Bold;
paths = (
{
closed = 1;
nodes = (
"312 1023 LINE",
"130 1023 LINE",
"284 1463 LINE",
"416 1463 LINE"
);
}
);
width = 553;
}
);
unicode = 2018;
},
{
glyphname = quoteright;
layers = (
{
layerId = "E08CDE4C-5D6C-43D8-8149-5F9E51F0B944";
name = Bold;
paths = (
{
closed = 1;
nodes = (
"245 1463 LINE",
"426 1463 LINE",
"272 1023 LINE",
"140 1023 LINE"
);
}
);
width = 553;
}
);
unicode = 2019;
},
{
glyphname = divide;
layers = (
{
layerId = "E08CDE4C-5D6C-43D8-8149-5F9E51F0B944";
name = Bold;
paths = (
{
closed = 1;
nodes = (
"198 485 LINE",
"198 624 LINE",
"1246 624 LINE",
"1246 485 LINE"
);
},
{
closed = 1;
nodes = (
"836 873 LINE",
"619 873 LINE",
"619 1083 LINE",
"836 1083 LINE"
);
},
{
closed = 1;
nodes = (
"836 21 LINE",
"619 21 LINE",
"619 231 LINE",
"836 231 LINE"
);
}
);
width = 1458;
}
);
unicode = 00F7;
},
{
glyphname = lozenge;
layers = (
{
layerId = "E08CDE4C-5D6C-43D8-8149-5F9E51F0B944";
name = Bold;
paths = (
{
closed = 1;
nodes = (
"731 307 OFFCURVE",
"858 506 OFFCURVE",
"978.999 711 CURVE",
"861 916 OFFCURVE",
"739 1116 OFFCURVE",
"625 1324 CURVE",
"510 1114 OFFCURVE",
"382 917 OFFCURVE",
"261 713 CURVE",
"379 508 OFFCURVE",
"500 306 OFFCURVE",
"615 97.9999 CURVE"
);
},
{
closed = 1;
nodes = (
"1130 712 LINE",
"668 -45 LINE",
"562 -45 LINE",
"112 711 LINE",
"570 1470 LINE",
"677 1470 LINE"
);
}
);
width = 1248;
}
);
unicode = 25CA;
},
{
glyphname = ydieresis;
layers = (
{
layerId = "E08CDE4C-5D6C-43D8-8149-5F9E51F0B944";
name = Bold;
paths = (
{
closed = 1;
nodes = (
"516 1173 LINE",
"352 1173 LINE",
"352 1336 LINE",
"516 1336 LINE"
);
},
{
closed = 1;
nodes = (
"848 1173 LINE",
"684 1173 LINE",
"684 1336 LINE",
"848 1336 LINE"
);
},
{
closed = 1;
nodes = (
"1033 1026 LINE",
"869 1026 LINE",
"869 496 LINE SMOOTH",
"869 308 OFFCURVE",
"756 116 OFFCURVE",
"568 116 CURVE SMOOTH",
"431 116 OFFCURVE",
"318 216 OFFCURVE",
"318 398 CURVE SMOOTH",
"321 644 LINE SMOOTH",
"321 923 OFFCURVE",
"282 1026 OFFCURVE",
"282 1026 CURVE",
"117 999.999 LINE",
"117 999.999 OFFCURVE",
"156 884 OFFCURVE",
"156 627 CURVE SMOOTH",
"153 399 LINE SMOOTH",
"145 172 OFFCURVE",
"286 -22 OFFCURVE",
"543 -22 CURVE SMOOTH",
"646 -22 OFFCURVE",
"799 23 OFFCURVE",
"869 145 CURVE",
"869 46 LINE SMOOTH",
"869 -159 OFFCURVE",
"739 -327 OFFCURVE",
"520 -327 CURVE SMOOTH",
"440 -327 OFFCURVE",
"317 -300 OFFCURVE",
"217 -250 CURVE",
"198 -403 LINE",
"290 -436 OFFCURVE",
"428 -464 OFFCURVE",
"534 -464 CURVE SMOOTH",
"798 -464 OFFCURVE",
"1033 -286 OFFCURVE",
"1033 67 CURVE SMOOTH"
);
}
);
width = 1186;
}
);
unicode = 00FF;
},
{
glyphname = Ydieresis;
layers = (
{
layerId = "E08CDE4C-5D6C-43D8-8149-5F9E51F0B944";
name = Bold;
paths = (
{
closed = 1;
nodes = (
"543 0 LINE",
"543 582 LINE",
"9.99999 1456 LINE",
"201 1456 LINE",
"632 727 LINE",
"1067 1456 LINE",
"1258 1456 LINE",
"715 585 LINE",
"715 0 LINE"
);
},
{
closed = 1;
nodes = (
"549 1613 LINE",
"385 1613 LINE",
"385 1776 LINE",
"549 1776 LINE"
);
},
{
closed = 1;
nodes = (
"881 1613 LINE",
"717 1613 LINE",
"717 1776 LINE",
"881 1776 LINE"
);
}
);
width = 1266;
}
);
unicode = 0178;
},
{
glyphname = fraction;
layers = (
{
layerId = "E08CDE4C-5D6C-43D8-8149-5F9E51F0B944";
name = Bold;
paths = (
{
closed = 1;
nodes = (
"717 1436 LINE",
"-186 0 LINE",
"-337 0 LINE",
"568 1436 LINE"
);
}
);
width = 368;
}
);
unicode = 2044;
},
{
glyphname = currency;
layers = (
{
layerId = "E08CDE4C-5D6C-43D8-8149-5F9E51F0B944";
name = Bold;
paths = (
{
closed = 1;
nodes = (
"962 864 OFFCURVE",
"789 1043 OFFCURVE",
"576 1048 CURVE SMOOTH",
"363 1053 OFFCURVE",
"175 874 OFFCURVE",
"175 661 CURVE SMOOTH",
"175 448 OFFCURVE",
"353 274 OFFCURVE",
"566 274 CURVE SMOOTH",
"779 274 OFFCURVE",
"952 439 OFFCURVE",
"957 651 CURVE SMOOTH"
);
},
{
closed = 1;
nodes = (
"395 351 OFFCURVE",
"263 489 OFFCURVE",
"263 658 CURVE SMOOTH",
"263 827 OFFCURVE",
"403 968.999 OFFCURVE",
"572 965 CURVE SMOOTH",
"740 961 OFFCURVE",
"869 820 OFFCURVE",
"865 651 CURVE SMOOTH",
"861 482 OFFCURVE",
"733 351 OFFCURVE",
"564 351 CURVE SMOOTH"
);
},
{
closed = 1;
nodes = (
"106 1065 LINE",
"301 877 LINE",
"342 913 LINE",
"145 1104 LINE"
);
},
{
closed = 1;
nodes = (
"800 397 LINE",
"993.999 210 LINE",
"1031 246 LINE",
"836 434 LINE"
);
},
{
closed = 1;
nodes = (
"975.999 1120 LINE",
"788 924 LINE",
"828 887 LINE",
"1016 1081 LINE"
);
},
{
closed = 1;
nodes = (
"311 429 LINE",
"121 232 LINE",
"157 195 LINE",
"344 389 LINE"
);
}
);
width = 1238;
}
);
unicode = 00A4;
},
{
glyphname = guilsinglleft;
layers = (
{
layerId = "E08CDE4C-5D6C-43D8-8149-5F9E51F0B944";
name = Bold;
paths = (
{
closed = 1;
nodes = (
"379 914 LINE",
"538 914 LINE",
"275 541 LINE",
"530 171 LINE",
"374 171 LINE",
"105 541 LINE"
);
}
);
width = 642;
}
);
unicode = 2039;
},
{
glyphname = guilsinglright;
layers = (
{
layerId = "E08CDE4C-5D6C-43D8-8149-5F9E51F0B944";
name = Bold;
paths = (
{
closed = 1;
nodes = (
"260 171 LINE",
"103 171 LINE",
"365 542 LINE",
"111 914 LINE",
"266 914 LINE",
"537 542 LINE"
);
}
);
width = 642;
}
);
unicode = 203A;
},
{
glyphname = daggerdbl;
layers = (
{
layerId = "E08CDE4C-5D6C-43D8-8149-5F9E51F0B944";
name = Bold;
paths = (
{
closed = 1;
nodes = (
"442 982.999 LINE",
"104 982.999 LINE",
"104 1115 LINE",
"448 1115 LINE",
"422 1451 LINE",
"593 1451 LINE",
"572 1115 LINE",
"916 1115 LINE",
"916 982.999 LINE",
"565 982.999 LINE",
"565 562 LINE",
"909 562 LINE",
"909 435 LINE",
"565 435 LINE",
"591 113 LINE",
"420 113 LINE",
"442 435 LINE",
"97.9999 435 LINE",
"97.9999 562 LINE",
"442 562 LINE"
);
}
);
width = 1022;
}
);
unicode = 2021;
},
{
glyphname = periodcentered;
layers = (
{
layerId = "E08CDE4C-5D6C-43D8-8149-5F9E51F0B944";
name = Bold;
paths = (
{
closed = 1;
nodes = (
"293 513 LINE",
"76 513 LINE",
"76 723 LINE",
"293 723 LINE"
);
}
);
width = 444;
}
);
unicode = 00B7;
},
{
glyphname = quotesinglbase;
layers = (
{
layerId = "E08CDE4C-5D6C-43D8-8149-5F9E51F0B944";
name = Bold;
paths = (
{
closed = 1;
nodes = (
"231 201 LINE",
"412 201 LINE",
"258 -238 LINE",
"125 -238 LINE"
);
}
);
width = 553;
}
);
unicode = 201A;
},
{
glyphname = quotedblbase;
layers = (
{
layerId = "E08CDE4C-5D6C-43D8-8149-5F9E51F0B944";
name = Bold;
paths = (
{
closed = 1;
nodes = (
"283 201 LINE",
"465 201 LINE",
"312 -238 LINE",
"178 -238 LINE"
);
},
{
closed = 1;
nodes = (
"641 201 LINE",
"824 201 LINE",
"670 -238 LINE",
"537 -238 LINE"
);
}
);
width = 1024;
}
);
unicode = 201E;
},
{
glyphname = perthousand;
layers = (
{
layerId = "E08CDE4C-5D6C-43D8-8149-5F9E51F0B944";
name = Bold;
paths = (
{
closed = 1;
nodes = (
"2156 461 OFFCURVE",
"2096 567 OFFCURVE",
"1962 567 CURVE SMOOTH",
"1829 567 OFFCURVE",
"1768 461 OFFCURVE",
"1768 328 CURVE SMOOTH",
"1768 192 OFFCURVE",
"1828 86 OFFCURVE",
"1963 86 CURVE SMOOTH",
"2095 86 OFFCURVE",
"2156 195 OFFCURVE",
"2156 327 CURVE SMOOTH"
);
},
{
closed = 1;
nodes = (
"2184 681 OFFCURVE",
"2299 545 OFFCURVE",
"2299 325 CURVE SMOOTH",
"2299 161 OFFCURVE",
"2220 49 OFFCURVE",
"2103 0 CURVE SMOOTH",
"2061 -18 OFFCURVE",
"2013 -27 OFFCURVE",
"1959 -27 CURVE SMOOTH",
"1742 -27 OFFCURVE",
"1623 112 OFFCURVE",
"1623 328 CURVE SMOOTH",
"1623 494 OFFCURVE",
"1699 604 OFFCURVE",
"1818 654 CURVE SMOOTH",
"1860 672 OFFCURVE",
"1909 681 OFFCURVE",
"1964 681 CURVE SMOOTH"
);
},
{
closed = 1;
nodes = (
"632 1447 OFFCURVE",
"749 1312 OFFCURVE",
"749 1092 CURVE SMOOTH",
"749 928 OFFCURVE",
"670 815 OFFCURVE",
"553 766 CURVE SMOOTH",
"511 748 OFFCURVE",
"463 740 OFFCURVE",
"410 740 CURVE SMOOTH",
"192 740 OFFCURVE",
"73 878 OFFCURVE",
"73 1095 CURVE SMOOTH",
"73 1260 OFFCURVE",
"150 1371 OFFCURVE",
"268 1420 CURVE SMOOTH",
"310 1438 OFFCURVE",
"358 1447 OFFCURVE",
"412 1447 CURVE SMOOTH"
);
},
{
closed = 1;
nodes = (
"1395 681 OFFCURVE",
"1511 544 OFFCURVE",
"1511 325 CURVE SMOOTH",
"1511 160 OFFCURVE",
"1434 50 OFFCURVE",
"1316 0 CURVE SMOOTH",
"1274 -18 OFFCURVE",
"1226 -27 OFFCURVE",
"1172 -27 CURVE SMOOTH",
"954 -27 OFFCURVE",
"835 111 OFFCURVE",
"835 328 CURVE SMOOTH",
"835 494 OFFCURVE",
"911 604 OFFCURVE",
"1030 654 CURVE SMOOTH",
"1072 672 OFFCURVE",
"1121 681 OFFCURVE",
"1176 681 CURVE SMOOTH"
);
},
{
closed = 1;
nodes = (
"1367 463 OFFCURVE",
"1309 567 OFFCURVE",
"1174 567 CURVE SMOOTH",
"1041 567 OFFCURVE",
"979.999 461 OFFCURVE",
"979.999 328 CURVE SMOOTH",
"979.999 192 OFFCURVE",
"1040 86 OFFCURVE",
"1175 86 CURVE SMOOTH",
"1306 86 OFFCURVE",
"1367 196 OFFCURVE",
"1367 327 CURVE SMOOTH"
);
},
{
closed = 1;
nodes = (
"604 1228 OFFCURVE",
"545 1335 OFFCURVE",
"411 1335 CURVE SMOOTH",
"280 1335 OFFCURVE",
"219 1227 OFFCURVE",
"219 1096 CURVE SMOOTH",
"219 960 OFFCURVE",
"278 853 OFFCURVE",
"414 853 CURVE SMOOTH",
"545 853 OFFCURVE",
"604 963 OFFCURVE",
"604 1093 CURVE SMOOTH"
);
},
{
closed = 1;
nodes = (
"245 -21 LINE",
"1183 1436 LINE",
"1332 1436 LINE",
"398 -21 LINE"
);
}
);
width = 2386;
}
);
unicode = 2030;
},
{
glyphname = Acircumflex;
layers = (
{
layerId = "E08CDE4C-5D6C-43D8-8149-5F9E51F0B944";
name = Bold;
paths = (
{
closed = 1;
nodes = (
"199 0 LINE",
"13 0 LINE",
"617 1456 LINE",
"802 1456 LINE",
"1407 0 LINE",
"1216 0 LINE",
"1053 397 LINE",
"355 397 LINE"
);
},
{
closed = 1;
nodes = (
"410 545 LINE",
"993.999 545 LINE",
"760 1150 LINE",
"742 1192 OFFCURVE",
"721 1252 OFFCURVE",
"707 1298 CURVE",
"692 1252 OFFCURVE",
"670 1191 OFFCURVE",
"655 1149 CURVE"
);
},
{
closed = 1;
nodes = (
"406 1600 LINE",
"634 1924 LINE",
"791 1924 LINE",
"1020 1600 LINE",
"888 1600 LINE",
"710 1816 LINE",
"532 1600 LINE"
);
}
);
width = 1425;
}
);
unicode = 00C2;
},
{
glyphname = Ecircumflex;
layers = (
{
layerId = "E08CDE4C-5D6C-43D8-8149-5F9E51F0B944";
name = Bold;
paths = (
{
closed = 1;
nodes = (
"1117 0 LINE",
"200 0 LINE",
"200 1456 LINE",
"1067 1456 LINE",
"1067 1308 LINE",
"372 1308 LINE",
"372 820 LINE",
"1029 820 LINE",
"1029 672 LINE",
"372 672 LINE",
"372 148 LINE",
"1117 148 LINE"
);
},
{
closed = 1;
nodes = (
"362 1600 LINE",
"590 1924 LINE",
"747 1924 LINE",
"975.999 1600 LINE",
"844 1600 LINE",
"666 1816 LINE",
"488 1600 LINE"
);
}
);
width = 1213;
}
);
unicode = 00CA;
},
{
glyphname = Aacute;
layers = (
{
layerId = "E08CDE4C-5D6C-43D8-8149-5F9E51F0B944";
name = Bold;
paths = (
{
closed = 1;
nodes = (
"199 0 LINE",
"13 0 LINE",
"617 1456 LINE",
"802 1456 LINE",
"1407 0 LINE",
"1216 0 LINE",
"1053 397 LINE",
"355 397 LINE"
);
},
{
closed = 1;
nodes = (
"410 545 LINE",
"993.999 545 LINE",
"760 1150 LINE",
"742 1192 OFFCURVE",
"721 1252 OFFCURVE",
"707 1298 CURVE",
"692 1252 OFFCURVE",
"670 1191 OFFCURVE",
"655 1149 CURVE"
);
},
{
closed = 1;
nodes = (
"858 1922 LINE",
"1070 1922 LINE",
"762 1602 LINE",
"632 1602 LINE"
);
}
);
width = 1425;
}
);
unicode = 00C1;
},
{
glyphname = Edieresis;
layers = (
{
layerId = "E08CDE4C-5D6C-43D8-8149-5F9E51F0B944";
name = Bold;
paths = (
{
closed = 1;
nodes = (
"1117 0 LINE",
"200 0 LINE",
"200 1456 LINE",
"1067 1456 LINE",
"1067 1308 LINE",
"372 1308 LINE",
"372 820 LINE",
"1029 820 LINE",
"1029 672 LINE",
"372 672 LINE",
"372 148 LINE",
"1117 148 LINE"
);
},
{
closed = 1;
nodes = (
"585 1613 LINE",
"421 1613 LINE",
"421 1776 LINE",
"585 1776 LINE"
);
},
{
closed = 1;
nodes = (
"917 1613 LINE",
"753 1613 LINE",
"753 1776 LINE",
"917 1776 LINE"
);
}
);
width = 1213;
}
);
unicode = 00CB;
},
{
glyphname = Egrave;
layers = (
{
layerId = "E08CDE4C-5D6C-43D8-8149-5F9E51F0B944";
name = Bold;
paths = (
{
closed = 1;
nodes = (
"1117 0 LINE",
"200 0 LINE",
"200 1456 LINE",
"1067 1456 LINE",
"1067 1308 LINE",
"372 1308 LINE",
"372 820 LINE",
"1029 820 LINE",
"1029 672 LINE",
"372 672 LINE",
"372 148 LINE",
"1117 148 LINE"
);
},
{
closed = 1;
nodes = (
"302 1922 LINE",
"516 1922 LINE",
"763 1602 LINE",
"634 1602 LINE"
);
}
);
width = 1213;
}
);
unicode = 00C8;
},
{
glyphname = Iacute;
layers = (
{
layerId = "E08CDE4C-5D6C-43D8-8149-5F9E51F0B944";
name = Bold;
paths = (
{
closed = 1;
nodes = (
"382 0 LINE",
"210 0 LINE",
"210 1456 LINE",
"382 1456 LINE"
);
},
{
closed = 1;
nodes = (
"441 1922 LINE",
"653 1922 LINE",
"345 1602 LINE",
"215 1602 LINE"
);
}
);
width = 591;
}
);
unicode = 00CD;
},
{
glyphname = Icircumflex;
layers = (
{
layerId = "E08CDE4C-5D6C-43D8-8149-5F9E51F0B944";
name = Bold;
paths = (
{
closed = 1;
nodes = (
"382 0 LINE",
"210 0 LINE",
"210 1456 LINE",
"382 1456 LINE"
);
},
{
closed = 1;
nodes = (
"-11 1600 LINE",
"217 1924 LINE",
"374 1924 LINE",
"603 1600 LINE",
"471 1600 LINE",
"293 1816 LINE",
"115 1600 LINE"
);
}
);
width = 591;
}
);
unicode = 00CE;
},
{
glyphname = Idieresis;
layers = (
{
layerId = "E08CDE4C-5D6C-43D8-8149-5F9E51F0B944";
name = Bold;
paths = (
{
closed = 1;
nodes = (
"382 0 LINE",
"210 0 LINE",
"210 1456 LINE",
"382 1456 LINE"
);
},
{
closed = 1;
nodes = (
"212 1613 LINE",
"48 1613 LINE",
"48 1776 LINE",
"212 1776 LINE"
);
},
{
closed = 1;
nodes = (
"544 1613 LINE",
"380 1613 LINE",
"380 1776 LINE",
"544 1776 LINE"
);
}
);
width = 591;
}
);
unicode = 00CF;
},
{
glyphname = Igrave;
layers = (
{
layerId = "E08CDE4C-5D6C-43D8-8149-5F9E51F0B944";
name = Bold;
paths = (
{
closed = 1;
nodes = (
"382 0 LINE",
"210 0 LINE",
"210 1456 LINE",
"382 1456 LINE"
);
},
{
closed = 1;
nodes = (
"-71 1922 LINE",
"143 1922 LINE",
"390 1602 LINE",
"261 1602 LINE"
);
}
);
width = 591;
}
);
unicode = 00CC;
},
{
glyphname = Oacute;
layers = (
{
layerId = "E08CDE4C-5D6C-43D8-8149-5F9E51F0B944";
name = Bold;
paths = (
{
closed = 1;
nodes = (
"1546 338 OFFCURVE",
"1304 -22 OFFCURVE",
"834 -22 CURVE SMOOTH",
"432 -22 OFFCURVE",
"116 218 OFFCURVE",
"116 730 CURVE SMOOTH",
"116 1122 OFFCURVE",
"360 1483 OFFCURVE",
"834 1483 CURVE SMOOTH",
"1233 1483 OFFCURVE",
"1546 1242 OFFCURVE",
"1546 730 CURVE SMOOTH"
);
},
{
closed = 1;
nodes = (
"300 390 OFFCURVE",
"471 123 OFFCURVE",
"834 123 CURVE SMOOTH",
"1106 123 OFFCURVE",
"1358 330 OFFCURVE",
"1358 729 CURVE SMOOTH",
"1358 1068 OFFCURVE",
"1190 1334 OFFCURVE",
"834 1334 CURVE SMOOTH",
"556 1334 OFFCURVE",
"300 1128 OFFCURVE",
"300 729 CURVE SMOOTH"
);
},
{
closed = 1;
nodes = (
"975.999 1922 LINE",
"1188 1922 LINE",
"880 1602 LINE",
"750 1602 LINE"
);
}
);
width = 1662;
}
);
unicode = 00D3;
},
{
glyphname = Ocircumflex;
layers = (
{
layerId = "E08CDE4C-5D6C-43D8-8149-5F9E51F0B944";
name = Bold;
paths = (
{
closed = 1;
nodes = (
"1546 338 OFFCURVE",
"1304 -22 OFFCURVE",
"834 -22 CURVE SMOOTH",
"432 -22 OFFCURVE",
"116 218 OFFCURVE",
"116 730 CURVE SMOOTH",
"116 1122 OFFCURVE",
"360 1483 OFFCURVE",
"834 1483 CURVE SMOOTH",
"1233 1483 OFFCURVE",
"1546 1242 OFFCURVE",
"1546 730 CURVE SMOOTH"
);
},
{
closed = 1;
nodes = (
"300 390 OFFCURVE",
"471 123 OFFCURVE",
"834 123 CURVE SMOOTH",
"1106 123 OFFCURVE",
"1358 330 OFFCURVE",
"1358 729 CURVE SMOOTH",
"1358 1068 OFFCURVE",
"1190 1334 OFFCURVE",
"834 1334 CURVE SMOOTH",
"556 1334 OFFCURVE",
"300 1128 OFFCURVE",
"300 729 CURVE SMOOTH"
);
},
{
closed = 1;
nodes = (
"524 1600 LINE",
"752 1924 LINE",
"909 1924 LINE",
"1138 1600 LINE",
"1006 1600 LINE",
"828 1816 LINE",
"650 1600 LINE"
);
}
);
width = 1662;
}
);
unicode = 00D4;
},
{
glyphname = Ograve;
layers = (
{
layerId = "E08CDE4C-5D6C-43D8-8149-5F9E51F0B944";
name = Bold;
paths = (
{
closed = 1;
nodes = (
"1546 338 OFFCURVE",
"1304 -22 OFFCURVE",
"834 -22 CURVE SMOOTH",
"432 -22 OFFCURVE",
"116 218 OFFCURVE",
"116 730 CURVE SMOOTH",
"116 1122 OFFCURVE",
"360 1483 OFFCURVE",
"834 1483 CURVE SMOOTH",
"1233 1483 OFFCURVE",
"1546 1242 OFFCURVE",
"1546 730 CURVE SMOOTH"
);
},
{
closed = 1;
nodes = (
"300 390 OFFCURVE",
"471 123 OFFCURVE",
"834 123 CURVE SMOOTH",
"1106 123 OFFCURVE",
"1358 330 OFFCURVE",
"1358 729 CURVE SMOOTH",
"1358 1068 OFFCURVE",
"1190 1334 OFFCURVE",
"834 1334 CURVE SMOOTH",
"556 1334 OFFCURVE",
"300 1128 OFFCURVE",
"300 729 CURVE SMOOTH"
);
},
{
closed = 1;
nodes = (
"464 1922 LINE",
"678 1922 LINE",
"925 1602 LINE",
"796 1602 LINE"
);
}
);
width = 1662;
}
);
unicode = 00D2;
},
{
glyphname = Uacute;
layers = (
{
layerId = "E08CDE4C-5D6C-43D8-8149-5F9E51F0B944";
name = Bold;
paths = (
{
closed = 1;
nodes = (
"392 -22 OFFCURVE",
"191 157 OFFCURVE",
"191 541 CURVE SMOOTH",
"191 1456 LINE",
"363 1456 LINE",
"363 546 LINE SMOOTH",
"363 260 OFFCURVE",
"502 123 OFFCURVE",
"774 123 CURVE SMOOTH",
"1026 123 OFFCURVE",
"1165 279 OFFCURVE",
"1165 539 CURVE SMOOTH",
"1165 1456 LINE",
"1336 1456 LINE",
"1336 551 LINE SMOOTH",
"1334 191 OFFCURVE",
"1138 -22 OFFCURVE",
"776 -22 CURVE SMOOTH"
);
},
{
closed = 1;
nodes = (
"911 1922 LINE",
"1123 1922 LINE",
"815 1602 LINE",
"685 1602 LINE"
);
}
);
width = 1532;
}
);
unicode = 00DA;
},
{
glyphname = Ucircumflex;
layers = (
{
layerId = "E08CDE4C-5D6C-43D8-8149-5F9E51F0B944";
name = Bold;
paths = (
{
closed = 1;
nodes = (
"392 -22 OFFCURVE",
"191 157 OFFCURVE",
"191 541 CURVE SMOOTH",
"191 1456 LINE",
"363 1456 LINE",
"363 546 LINE SMOOTH",
"363 260 OFFCURVE",
"502 123 OFFCURVE",
"774 123 CURVE SMOOTH",
"1026 123 OFFCURVE",
"1165 279 OFFCURVE",
"1165 539 CURVE SMOOTH",
"1165 1456 LINE",
"1336 1456 LINE",
"1336 551 LINE SMOOTH",
"1334 191 OFFCURVE",
"1138 -22 OFFCURVE",
"776 -22 CURVE SMOOTH"
);
},
{
closed = 1;
nodes = (
"459 1600 LINE",
"687 1924 LINE",
"844 1924 LINE",
"1073 1600 LINE",
"941 1600 LINE",
"763 1816 LINE",
"585 1600 LINE"
);
}
);
width = 1532;
}
);
unicode = 00DB;
},
{
glyphname = Ugrave;
layers = (
{
layerId = "E08CDE4C-5D6C-43D8-8149-5F9E51F0B944";
name = Bold;
paths = (
{
closed = 1;
nodes = (
"392 -22 OFFCURVE",
"191 157 OFFCURVE",
"191 541 CURVE SMOOTH",
"191 1456 LINE",
"363 1456 LINE",
"363 546 LINE SMOOTH",
"363 260 OFFCURVE",
"502 123 OFFCURVE",
"774 123 CURVE SMOOTH",
"1026 123 OFFCURVE",
"1165 279 OFFCURVE",
"1165 539 CURVE SMOOTH",
"1165 1456 LINE",
"1336 1456 LINE",
"1336 551 LINE SMOOTH",
"1334 191 OFFCURVE",
"1138 -22 OFFCURVE",
"776 -22 CURVE SMOOTH"
);
},
{
closed = 1;
nodes = (
"399 1922 LINE",
"613 1922 LINE",
"860 1602 LINE",
"731 1602 LINE"
);
}
);
width = 1532;
}
);
unicode = 00D9;
},
{
glyphname = dotlessi;
layers = (
{
layerId = "E08CDE4C-5D6C-43D8-8149-5F9E51F0B944";
name = Bold;
paths = (
{
closed = 1;
nodes = (
"167 1026 LINE",
"332 1026 LINE",
"332 283 LINE SMOOTH",
"332 143 OFFCURVE",
"389 118 OFFCURVE",
"457 118 CURVE SMOOTH",
"487 118 OFFCURVE",
"545 128 OFFCURVE",
"580 141 CURVE",
"600 30 LINE",
"550 9.99999 OFFCURVE",
"481 -5 OFFCURVE",
"434 -5 CURVE SMOOTH",
"292 -5 OFFCURVE",
"167 67 OFFCURVE",
"167 278 CURVE SMOOTH"
);
}
);
width = 503;
}
);
unicode = 0131;
},
{
glyphname = circumflex;
layers = (
{
layerId = "E08CDE4C-5D6C-43D8-8149-5F9E51F0B944";
name = Bold;
paths = (
{
closed = 1;
nodes = (
"35 1170 LINE",
"263 1494 LINE",
"420 1494 LINE",
"649 1170 LINE",
"517 1170 LINE",
"339 1386 LINE",
"161 1170 LINE"
);
}
);
width = 699;
}
);
unicode = 02C6;
},
{
glyphname = tilde;
layers = (
{
layerId = "E08CDE4C-5D6C-43D8-8149-5F9E51F0B944";
name = Bold;
paths = (
{
closed = 1;
nodes = (
"516 1345 OFFCURVE",
"543 1384 OFFCURVE",
"550 1435 CURVE",
"658 1435 LINE",
"645 1322 OFFCURVE",
"587 1220 OFFCURVE",
"463 1220 CURVE SMOOTH",
"367 1220 OFFCURVE",
"305 1288 OFFCURVE",
"210 1288 CURVE SMOOTH",
"156 1288 OFFCURVE",
"126 1260 OFFCURVE",
"119 1203 CURVE",
"14 1203 LINE",
"24 1319 OFFCURVE",
"89 1413 OFFCURVE",
"213 1413 CURVE SMOOTH",
"289 1413 OFFCURVE",
"346 1377 OFFCURVE",
"404 1356 CURVE SMOOTH",
"424 1349 OFFCURVE",
"444 1345 OFFCURVE",
"463 1345 CURVE SMOOTH"
);
}
);
width = 663;
}
);
unicode = 02DC;
},
{
glyphname = macron;
layers = (
{
layerId = "E08CDE4C-5D6C-43D8-8149-5F9E51F0B944";
name = Bold;
paths = (
{
closed = 1;
nodes = (
"79 1183 LINE",
"79 1317 LINE",
"651 1317 LINE",
"651 1183 LINE"
);
}
);
width = 728;
}
);
unicode = 00AF;
},
{
glyphname = breve;
layers = (
{
layerId = "E08CDE4C-5D6C-43D8-8149-5F9E51F0B944";
name = Bold;
paths = (
{
closed = 1;
nodes = (
"411 1325 OFFCURVE",
"490 1370 OFFCURVE",
"510 1454 CURVE",
"596 1454 LINE",
"583 1300 OFFCURVE",
"482 1218 OFFCURVE",
"316 1218 CURVE SMOOTH",
"145 1218 OFFCURVE",
"45 1294 OFFCURVE",
"32 1454 CURVE",
"119 1454 LINE",
"134 1366 OFFCURVE",
"207 1325 OFFCURVE",
"309 1325 CURVE SMOOTH"
);
}
);
width = 629;
}
);
unicode = 02D8;
},
{
glyphname = dotaccent;
layers = (
{
layerId = "E08CDE4C-5D6C-43D8-8149-5F9E51F0B944";
name = Bold;
paths = (
{
closed = 1;
nodes = (
"184 1246 LINE",
"184 1409 LINE",
"344 1409 LINE",
"344 1246 LINE"
);
}
);
width = 524;
}
);
unicode = 02D9;
},
{
glyphname = ring;
layers = (
{
layerId = "E08CDE4C-5D6C-43D8-8149-5F9E51F0B944";
name = Bold;
paths = (
{
closed = 1;
nodes = (
"359 1235 OFFCURVE",
"410 1280 OFFCURVE",
"410 1340 CURVE SMOOTH",
"410 1402 OFFCURVE",
"361 1445 OFFCURVE",
"299 1445 CURVE SMOOTH",
"239 1445 OFFCURVE",
"189 1400 OFFCURVE",
"189 1340 CURVE SMOOTH",
"189 1276 OFFCURVE",
"234 1235 OFFCURVE",
"299 1235 CURVE SMOOTH"
);
},
{
closed = 1;
nodes = (
"90 1431 OFFCURVE",
"150 1490 OFFCURVE",
"218 1516 CURVE SMOOTH",
"243 1526 OFFCURVE",
"271 1530 OFFCURVE",
"300 1530 CURVE SMOOTH",
"395 1530 OFFCURVE",
"464 1480 OFFCURVE",
"494 1414 CURVE SMOOTH",
"505 1391 OFFCURVE",
"510 1366 OFFCURVE",
"510 1340 CURVE SMOOTH",
"510 1249 OFFCURVE",
"448 1190 OFFCURVE",
"381 1164 CURVE SMOOTH",
"356 1154 OFFCURVE",
"329 1149 OFFCURVE",
"301 1149 CURVE SMOOTH",
"206 1149 OFFCURVE",
"137 1199 OFFCURVE",
"106 1264 CURVE SMOOTH",
"94.9999 1287 OFFCURVE",
"90 1312 OFFCURVE",
"90 1339 CURVE SMOOTH"
);
}
);
width = 605;
}
);
unicode = 02DA;
},
{
glyphname = cedilla;
layers = (
{
layerId = "E08CDE4C-5D6C-43D8-8149-5F9E51F0B944";
name = Bold;
paths = (
{
closed = 1;
nodes = (
"167 -396 OFFCURVE",
"106 -385 OFFCURVE",
"52 -374 CURVE",
"60 -289 LINE",
"110 -301 OFFCURVE",
"157 -313 OFFCURVE",
"211 -313 CURVE SMOOTH",
"277 -313 OFFCURVE",
"325 -297 OFFCURVE",
"325 -241 CURVE SMOOTH",
"325 -182 OFFCURVE",
"276 -168 OFFCURVE",
"216 -168 CURVE SMOOTH",
"207 -168 OFFCURVE",
"190 -170 OFFCURVE",
"179 -171 CURVE SMOOTH",
"147 -173 LINE",
"180 17 LINE",
"277 17 LINE",
"259 -90 LINE",
"268 -90 LINE",
"372 -95 OFFCURVE",
"468 -131 OFFCURVE",
"468 -239 CURVE SMOOTH",
"468 -359 OFFCURVE",
"348 -396 OFFCURVE",
"227 -396 CURVE SMOOTH"
);
}
);
width = 529;
}
);
unicode = 00B8;
},
{
glyphname = hungarumlaut;
layers = (
{
layerId = "E08CDE4C-5D6C-43D8-8149-5F9E51F0B944";
name = Bold;
paths = (
{
closed = 1;
nodes = (
"429 1174 LINE",
"649 1487 LINE",
"825 1487 LINE",
"549 1174 LINE"
);
},
{
closed = 1;
nodes = (
"162 1174 LINE",
"379 1487 LINE",
"555 1487 LINE",
"280 1174 LINE"
);
}
);
width = 968;
}
);
unicode = 02DD;
},
{
glyphname = ogonek;
layers = (
{
layerId = "E08CDE4C-5D6C-43D8-8149-5F9E51F0B944";
name = Bold;
paths = (
{
closed = 1;
nodes = (
"189 -250 OFFCURVE",
"238 -281 OFFCURVE",
"289 -281 CURVE SMOOTH",
"353 -281 OFFCURVE",
"397 -268 OFFCURVE",
"443 -250 CURVE",
"443 -361 LINE",
"397 -380 OFFCURVE",
"330 -390 OFFCURVE",
"266 -390 CURVE SMOOTH",
"172 -390 OFFCURVE",
"98.9999 -357 OFFCURVE",
"65 -296 CURVE SMOOTH",
"54 -276 OFFCURVE",
"48 -252 OFFCURVE",
"48 -225 CURVE SMOOTH",
"48 -167 OFFCURVE",
"82 -122 OFFCURVE",
"115 -89 CURVE SMOOTH",
"155 -49 OFFCURVE",
"209 -14 OFFCURVE",
"263 12 CURVE",
"392 0 LINE",
"323 -42 OFFCURVE",
"246 -86 OFFCURVE",
"204 -151 CURVE SMOOTH",
"194 -167 OFFCURVE",
"189 -183 OFFCURVE",
"189 -199 CURVE SMOOTH"
);
}
);
width = 508;
}
);
unicode = 02DB;
},
{
glyphname = caron;
layers = (
{
layerId = "E08CDE4C-5D6C-43D8-8149-5F9E51F0B944";
name = Bold;
paths = (
{
closed = 1;
nodes = (
"662 1493 LINE",
"424 1170 LINE",
"268 1170 LINE",
"29 1493 LINE",
"176 1493 LINE",
"340 1278 LINE",
"508 1493 LINE"
);
}
);
width = 699;
}
);
unicode = 02C7;
},
{
glyphname = kgreenlandic;
layers = (
{
layerId = "E08CDE4C-5D6C-43D8-8149-5F9E51F0B944";
name = Bold;
paths = (
{
closed = 1;
nodes = (
"343 1026 LINE",
"343 557 LINE",
"809 1026 LINE",
"1034 1026 LINE",
"504 512 LINE",
"695 338 OFFCURVE",
"881 174 OFFCURVE",
"1072 0 CURVE",
"853 0 LINE",
"343 471 LINE",
"343 0 LINE",
"178 0 LINE",
"178 1026 LINE"
);
}
);
width = 1082;
}
);
unicode = 0138;
},
{
glyphname = abreve;
layers = (
{
layerId = "E08CDE4C-5D6C-43D8-8149-5F9E51F0B944";
name = Bold;
paths = (
{
closed = 1;
nodes = (
"1022 286 LINE SMOOTH",
"1022 170 OFFCURVE",
"1095 139 OFFCURVE",
"1147 139 CURVE",
"1113 -4 LINE",
"1026 -4 OFFCURVE",
"908 46 OFFCURVE",
"881 166 CURVE",
"788 13 OFFCURVE",
"641 -22 OFFCURVE",
"519 -22 CURVE SMOOTH",
"278 -22 OFFCURVE",
"114 161 OFFCURVE",
"114 438 CURVE SMOOTH",
"114 806 OFFCURVE",
"339 1048 OFFCURVE",
"671 1048 CURVE SMOOTH",
"795 1048 OFFCURVE",
"918 1024 OFFCURVE",
"1022 962 CURVE"
);
},
{
closed = 1;
nodes = (
"858 872 LINE",
"803 899 OFFCURVE",
"724 907 OFFCURVE",
"668 907 CURVE SMOOTH",
"438 907 OFFCURVE",
"284 725 OFFCURVE",
"284 448 CURVE SMOOTH",
"284 249 OFFCURVE",
"388 116 OFFCURVE",
"544 116 CURVE SMOOTH",
"702 116 OFFCURVE",
"858 226 OFFCURVE",
"858 403 CURVE SMOOTH"
);
},
{
closed = 1;
nodes = (
"740 1325 OFFCURVE",
"819 1370 OFFCURVE",
"839 1454 CURVE",
"925 1454 LINE",
"912 1300 OFFCURVE",
"811 1218 OFFCURVE",
"645 1218 CURVE SMOOTH",
"474 1218 OFFCURVE",
"374 1294 OFFCURVE",
"361 1454 CURVE",
"448 1454 LINE",
"463 1366 OFFCURVE",
"536 1325 OFFCURVE",
"638 1325 CURVE SMOOTH"
);
}
);
width = 1218;
}
);
unicode = 0103;
},
{
glyphname = uni0210;
layers = (
{
layerId = "E08CDE4C-5D6C-43D8-8149-5F9E51F0B944";
name = Bold;
paths = (
{
closed = 1;
nodes = (
"372 652 LINE",
"372 0 LINE",
"200 0 LINE",
"200 1456 LINE",
"556 1456 LINE SMOOTH",
"891 1456 OFFCURVE",
"1194 1410 OFFCURVE",
"1194 1074 CURVE SMOOTH",
"1194 867 OFFCURVE",
"1050 758 OFFCURVE",
"884 715 CURVE",
"1020 670 OFFCURVE",
"1065 546 OFFCURVE",
"1119 410 CURVE SMOOTH",
"1282 0 LINE",
"1094 0 LINE",
"941 419 LINE SMOOTH",
"888 564 OFFCURVE",
"838 652 OFFCURVE",
"642 652 CURVE SMOOTH"
);
},
{
closed = 1;
nodes = (
"1012 1261 OFFCURVE",
"852 1308 OFFCURVE",
"649 1308 CURVE SMOOTH",
"372 1308 LINE",
"372 799 LINE",
"638 799 LINE SMOOTH",
"835 799 OFFCURVE",
"1012 859 OFFCURVE",
"1012 1058 CURVE SMOOTH"
);
},
{
closed = 1;
nodes = (
"497 1604 LINE",
"221 1917 LINE",
"397 1917 LINE",
"617 1604 LINE"
);
},
{
closed = 1;
nodes = (
"766 1604 LINE",
"491 1917 LINE",
"667 1917 LINE",
"884 1604 LINE"
);
}
);
width = 1372;
}
);
unicode = 0210;
},
{
glyphname = uni0237;
layers = (
{
layerId = "E08CDE4C-5D6C-43D8-8149-5F9E51F0B944";
name = Bold;
paths = (
{
closed = 1;
nodes = (
"138 -283 OFFCURVE",
"175 -146 OFFCURVE",
"175 31 CURVE SMOOTH",
"175 1026 LINE",
"340 1026 LINE",
"340 73 LINE SMOOTH",
"340 -150 OFFCURVE",
"296 -339 OFFCURVE",
"140 -407 CURVE SMOOTH",
"106 -422 OFFCURVE",
"67 -429 OFFCURVE",
"21 -429 CURVE SMOOTH",
"-23 -429 OFFCURVE",
"-63 -425 OFFCURVE",
"-101 -416 CURVE",
"-102 -273 LINE",
"-72 -278 OFFCURVE",
"-48 -283 OFFCURVE",
"-18 -283 CURVE SMOOTH"
);
}
);
width = 503;
}
);
unicode = 0237;
},
{
glyphname = uni020F;
layers = (
{
layerId = "E08CDE4C-5D6C-43D8-8149-5F9E51F0B944";
name = Bold;
paths = (
{
closed = 1;
nodes = (
"972.999 1048 OFFCURVE",
"1140 814 OFFCURVE",
"1140 513 CURVE SMOOTH",
"1140 142 OFFCURVE",
"905 -22 OFFCURVE",
"620 -22 CURVE SMOOTH",
"262 -22 OFFCURVE",
"90 212 OFFCURVE",
"90 511 CURVE SMOOTH",
"90 885 OFFCURVE",
"331 1048 OFFCURVE",
"619 1048 CURVE SMOOTH"
);
},
{
closed = 1;
nodes = (
"969.999 782 OFFCURVE",
"815 907 OFFCURVE",
"619 907 CURVE SMOOTH",
"375 907 OFFCURVE",
"260 727 OFFCURVE",
"260 509 CURVE SMOOTH",
"260 242 OFFCURVE",
"420 116 OFFCURVE",
"620 116 CURVE SMOOTH",
"859 116 OFFCURVE",
"969.999 297 OFFCURVE",
"969.999 511 CURVE SMOOTH"
);
},
{
closed = 1;
nodes = (
"333 1218 LINE",
"346 1378 OFFCURVE",
"446 1454 OFFCURVE",
"617 1454 CURVE SMOOTH",
"783 1454 OFFCURVE",
"884 1372 OFFCURVE",
"897 1218 CURVE",
"811 1218 LINE",
"791 1302 OFFCURVE",
"712 1347 OFFCURVE",
"610 1347 CURVE SMOOTH",
"508 1347 OFFCURVE",
"435 1306 OFFCURVE",
"420 1218 CURVE"
);
}
);
width = 1230;
}
);
unicode = 020F;
},
{
glyphname = uni020E;
layers = (
{
layerId = "E08CDE4C-5D6C-43D8-8149-5F9E51F0B944";
name = Bold;
paths = (
{
closed = 1;
nodes = (
"1546 338 OFFCURVE",
"1304 -22 OFFCURVE",
"834 -22 CURVE SMOOTH",
"432 -22 OFFCURVE",
"116 218 OFFCURVE",
"116 730 CURVE SMOOTH",
"116 1122 OFFCURVE",
"360 1483 OFFCURVE",
"834 1483 CURVE SMOOTH",
"1233 1483 OFFCURVE",
"1546 1242 OFFCURVE",
"1546 730 CURVE SMOOTH"
);
},
{
closed = 1;
nodes = (
"300 390 OFFCURVE",
"471 123 OFFCURVE",
"834 123 CURVE SMOOTH",
"1106 123 OFFCURVE",
"1358 330 OFFCURVE",
"1358 729 CURVE SMOOTH",
"1358 1068 OFFCURVE",
"1190 1334 OFFCURVE",
"834 1334 CURVE SMOOTH",
"556 1334 OFFCURVE",
"300 1128 OFFCURVE",
"300 729 CURVE SMOOTH"
);
},
{
closed = 1;
nodes = (
"545 1648 LINE",
"558 1808 OFFCURVE",
"658 1884 OFFCURVE",
"829 1884 CURVE SMOOTH",
"994.999 1884 OFFCURVE",
"1096 1802 OFFCURVE",
"1109 1648 CURVE",
"1023 1648 LINE",
"1003 1732 OFFCURVE",
"924 1777 OFFCURVE",
"822 1777 CURVE SMOOTH",
"720 1777 OFFCURVE",
"647 1736 OFFCURVE",
"632 1648 CURVE"
);
}
);
width = 1662;
}
);
unicode = 020E;
},
{
glyphname = uni020C;
layers = (
{
layerId = "E08CDE4C-5D6C-43D8-8149-5F9E51F0B944";
name = Bold;
paths = (
{
closed = 1;
nodes = (
"1546 338 OFFCURVE",
"1304 -22 OFFCURVE",
"834 -22 CURVE SMOOTH",
"432 -22 OFFCURVE",
"116 218 OFFCURVE",
"116 730 CURVE SMOOTH",
"116 1122 OFFCURVE",
"360 1483 OFFCURVE",
"834 1483 CURVE SMOOTH",
"1233 1483 OFFCURVE",
"1546 1242 OFFCURVE",
"1546 730 CURVE SMOOTH"
);
},
{
closed = 1;
nodes = (
"300 390 OFFCURVE",
"471 123 OFFCURVE",
"834 123 CURVE SMOOTH",
"1106 123 OFFCURVE",
"1358 330 OFFCURVE",
"1358 729 CURVE SMOOTH",
"1358 1068 OFFCURVE",
"1190 1334 OFFCURVE",
"834 1334 CURVE SMOOTH",
"556 1334 OFFCURVE",
"300 1128 OFFCURVE",
"300 729 CURVE SMOOTH"
);
},
{
closed = 1;
nodes = (
"643 1604 LINE",
"367 1917 LINE",
"543 1917 LINE",
"763 1604 LINE"
);
},
{
closed = 1;
nodes = (
"912 1604 LINE",
"637 1917 LINE",
"813 1917 LINE",
"1030 1604 LINE"
);
}
);
width = 1662;
}
);
unicode = 020C;
},
{
glyphname = uni020B;
layers = (
{
layerId = "E08CDE4C-5D6C-43D8-8149-5F9E51F0B944";
name = Bold;
paths = (
{
closed = 1;
nodes = (
"167 1026 LINE",
"332 1026 LINE",
"332 283 LINE SMOOTH",
"332 143 OFFCURVE",
"389 118 OFFCURVE",
"457 118 CURVE SMOOTH",
"487 118 OFFCURVE",
"545 128 OFFCURVE",
"580 141 CURVE",
"600 30 LINE",
"550 9.99999 OFFCURVE",
"481 -5 OFFCURVE",
"434 -5 CURVE SMOOTH",
"292 -5 OFFCURVE",
"167 67 OFFCURVE",
"167 278 CURVE SMOOTH"
);
},
{
closed = 1;
nodes = (
"-34 1218 LINE",
"-21 1378 OFFCURVE",
"79 1454 OFFCURVE",
"250 1454 CURVE SMOOTH",
"416 1454 OFFCURVE",
"517 1372 OFFCURVE",
"530 1218 CURVE",
"444 1218 LINE",
"424 1302 OFFCURVE",
"345 1347 OFFCURVE",
"243 1347 CURVE SMOOTH",
"141 1347 OFFCURVE",
"68 1306 OFFCURVE",
"53 1218 CURVE"
);
}
);
width = 503;
}
);
unicode = 020B;
},
{
glyphname = uni020A;
layers = (
{
layerId = "E08CDE4C-5D6C-43D8-8149-5F9E51F0B944";
name = Bold;
paths = (
{
closed = 1;
nodes = (
"382 0 LINE",
"210 0 LINE",
"210 1456 LINE",
"382 1456 LINE"
);
},
{
closed = 1;
nodes = (
"9.99999 1648 LINE",
"23 1808 OFFCURVE",
"123 1884 OFFCURVE",
"294 1884 CURVE SMOOTH",
"460 1884 OFFCURVE",
"561 1802 OFFCURVE",
"574 1648 CURVE",
"488 1648 LINE",
"468 1732 OFFCURVE",
"389 1777 OFFCURVE",
"287 1777 CURVE SMOOTH",
"185 1777 OFFCURVE",
"112 1736 OFFCURVE",
"96.9999 1648 CURVE"
);
}
);
width = 591;
}
);
unicode = 020A;
},
{
glyphname = u.alt;
layers = (
{
layerId = "E08CDE4C-5D6C-43D8-8149-5F9E51F0B944";
name = Bold;
paths = (
{
closed = 1;
nodes = (
"324 379 LINE SMOOTH",
"324 183 OFFCURVE",
"434 118 OFFCURVE",
"555 118 CURVE SMOOTH",
"699 118 OFFCURVE",
"857 222 OFFCURVE",
"857 418 CURVE SMOOTH",
"857 1026 LINE",
"1022 1026 LINE",
"1022 286 LINE SMOOTH",
"1022 170 OFFCURVE",
"1094 139 OFFCURVE",
"1146 139 CURVE",
"1111 -4 LINE",
"1014 -4 OFFCURVE",
"916 44 OFFCURVE",
"889 155 CURVE",
"807 38 OFFCURVE",
"688 -24 OFFCURVE",
"530 -24 CURVE SMOOTH",
"336 -24 OFFCURVE",
"159 93.9999 OFFCURVE",
"159 379 CURVE SMOOTH",
"159 582 LINE SMOOTH",
"159 871 OFFCURVE",
"120 1026 OFFCURVE",
"120 1026 CURVE",
"285 1026 LINE",
"285 1026 OFFCURVE",
"324 911 OFFCURVE",
"324 595 CURVE SMOOTH"
);
}
);
width = 1215;
}
);
},
{
glyphname = kcommaaccent;
layers = (
{
layerId = "E08CDE4C-5D6C-43D8-8149-5F9E51F0B944";
name = Bold;
paths = (
{
closed = 1;
nodes = (
"277 0 LINE",
"152 0 LINE",
"152 1496 LINE",
"316 1526 LINE",
"316 308 LINE",
"832 1026 LINE",
"980.999 975.999 LINE",
"694 580 LINE",
"891 270 LINE SMOOTH",
"962 158 OFFCURVE",
"1040 88 OFFCURVE",
"1113 79 CURVE",
"1044 -45 LINE",
"940 -26 OFFCURVE",
"848 55 OFFCURVE",
"763 189 CURVE SMOOTH",
"602 445 LINE"
);
},
{
closed = 1;
nodes = (
"547 -162 LINE",
"734 -162 LINE",
"571 -625 LINE",
"440 -625 LINE"
);
}
);
width = 1107;
}
);
unicode = 0137;
},
{
glyphname = zdotaccent;
layers = (
{
layerId = "E08CDE4C-5D6C-43D8-8149-5F9E51F0B944";
name = Bold;
paths = (
{
closed = 1;
nodes = (
"430 1173 LINE",
"430 1336 LINE",
"590 1336 LINE",
"590 1173 LINE"
);
},
{
closed = 1;
nodes = (
"80 89 LINE",
"680 891 LINE",
"106 891 LINE",
"106 1026 LINE",
"903 1026 LINE",
"903 939 LINE",
"305 134 LINE",
"920 134 LINE",
"920 0 LINE",
"80 0 LINE"
);
}
);
width = 978;
}
);
unicode = 017C;
},
{
glyphname = Scommaaccent;
layers = (
{
layerId = "E08CDE4C-5D6C-43D8-8149-5F9E51F0B944";
name = Bold;
paths = (
{
closed = 1;
nodes = (
"137 902 OFFCURVE",
"224 769 OFFCURVE",
"566 671 CURVE SMOOTH",
"911 572 OFFCURVE",
"951 500 OFFCURVE",
"951 401 CURVE SMOOTH",
"951 230 OFFCURVE",
"855 123 OFFCURVE",
"649 123 CURVE SMOOTH",
"503 123 OFFCURVE",
"305 187 OFFCURVE",
"174 289 CURVE",
"146 123 LINE",
"280 35 OFFCURVE",
"486 -22 OFFCURVE",
"664 -22 CURVE SMOOTH",
"989.999 -22 OFFCURVE",
"1135 166 OFFCURVE",
"1135 395 CURVE SMOOTH",
"1135 578 OFFCURVE",
"1052 709 OFFCURVE",
"676 817 CURVE SMOOTH",
"370 905 OFFCURVE",
"318 982.999 OFFCURVE",
"324 1120 CURVE SMOOTH",
"330 1262 OFFCURVE",
"441 1334 OFFCURVE",
"656 1334 CURVE SMOOTH",
"780 1334 OFFCURVE",
"921 1288 OFFCURVE",
"1033 1218 CURVE",
"1085 1359 LINE",
"930 1456 OFFCURVE",
"773 1483 OFFCURVE",
"636 1483 CURVE SMOOTH",
"344 1483 OFFCURVE",
"145 1339 OFFCURVE",
"141 1109 CURVE SMOOTH"
);
},
{
closed = 1;
nodes = (
"582 -162 LINE",
"769 -162 LINE",
"606 -625 LINE",
"475 -625 LINE"
);
}
);
width = 1244;
}
);
unicode = 0218;
},
{
glyphname = ccaron;
layers = (
{
layerId = "E08CDE4C-5D6C-43D8-8149-5F9E51F0B944";
name = Bold;
paths = (
{
closed = 1;
nodes = (
"988.999 117 LINE",
"864 20 OFFCURVE",
"750 -22 OFFCURVE",
"612 -22 CURVE SMOOTH",
"274 -22 OFFCURVE",
"90 222 OFFCURVE",
"90 503 CURVE SMOOTH",
"90 846 OFFCURVE",
"351 1048 OFFCURVE",
"608 1048 CURVE SMOOTH",
"752 1048 OFFCURVE",
"856 1008 OFFCURVE",
"956 912 CURVE",
"886 802 LINE",
"796 879 OFFCURVE",
"713 907 OFFCURVE",
"608 907 CURVE SMOOTH",
"437 907 OFFCURVE",
"260 762 OFFCURVE",
"260 508 CURVE SMOOTH",
"260 259 OFFCURVE",
"427 116 OFFCURVE",
"616 116 CURVE SMOOTH",
"724 116 OFFCURVE",
"817 157 OFFCURVE",
"928 238 CURVE"
);
},
{
closed = 1;
nodes = (
"933 1493 LINE",
"695 1170 LINE",
"539 1170 LINE",
"300 1493 LINE",
"447 1493 LINE",
"611 1278 LINE",
"779 1493 LINE"
);
}
);
width = 1025;
}
);
unicode = 010D;
},
{
glyphname = e.alt;
layers = (
{
layerId = "E08CDE4C-5D6C-43D8-8149-5F9E51F0B944";
name = Bold;
paths = (
{
closed = 1;
nodes = (
"735 123 OFFCURVE",
"856 187 OFFCURVE",
"930 276 CURVE",
"1013 170 LINE",
"895 46 OFFCURVE",
"758 -19 OFFCURVE",
"589 -19 CURVE SMOOTH",
"325 -19 OFFCURVE",
"93.9999 176 OFFCURVE",
"93.9999 516 CURVE SMOOTH",
"93.9999 805 OFFCURVE",
"269 1056 OFFCURVE",
"592 1056 CURVE SMOOTH",
"808 1056 OFFCURVE",
"946 918 OFFCURVE",
"946 751 CURVE SMOOTH",
"946 506 OFFCURVE",
"655 425 OFFCURVE",
"289 371 CURVE",
"334 192 OFFCURVE",
"462 123 OFFCURVE",
"596 123 CURVE SMOOTH"
);
},
{
closed = 1;
nodes = (
"392 913 OFFCURVE",
"274 735 OFFCURVE",
"274 539 CURVE SMOOTH",
"274 523 OFFCURVE",
"275 507 OFFCURVE",
"277 490 CURVE",
"563 534 OFFCURVE",
"783 594 OFFCURVE",
"783 755 CURVE SMOOTH",
"783 846 OFFCURVE",
"714 913 OFFCURVE",
"593 913 CURVE SMOOTH"
);
}
);
width = 1073;
}
);
},
{
glyphname = Zacute;
layers = (
{
layerId = "E08CDE4C-5D6C-43D8-8149-5F9E51F0B944";
name = Bold;
paths = (
{
closed = 1;
nodes = (
"1146 0 LINE",
"58 0 LINE",
"58 92 LINE",
"922 1308 LINE",
"90 1308 LINE",
"90 1456 LINE",
"1154 1456 LINE",
"1154 1368 LINE",
"286 148 LINE",
"1146 148 LINE"
);
},
{
closed = 1;
nodes = (
"816 1922 LINE",
"1028 1922 LINE",
"720 1602 LINE",
"590 1602 LINE"
);
}
);
width = 1222;
}
);
unicode = 0179;
},
{
glyphname = Aogonek;
layers = (
{
layerId = "E08CDE4C-5D6C-43D8-8149-5F9E51F0B944";
name = Bold;
paths = (
{
closed = 1;
nodes = (
"199 0 LINE",
"13 0 LINE",
"617 1456 LINE",
"802 1456 LINE",
"1407 0 LINE",
"1216 0 LINE",
"1053 397 LINE",
"355 397 LINE"
);
},
{
closed = 1;
nodes = (
"410 545 LINE",
"993.999 545 LINE",
"760 1150 LINE",
"742 1192 OFFCURVE",
"721 1252 OFFCURVE",
"707 1298 CURVE",
"692 1252 OFFCURVE",
"670 1191 OFFCURVE",
"655 1149 CURVE"
);
},
{
closed = 1;
nodes = (
"1140 -250 OFFCURVE",
"1189 -281 OFFCURVE",
"1240 -281 CURVE SMOOTH",
"1304 -281 OFFCURVE",
"1348 -268 OFFCURVE",
"1394 -250 CURVE",
"1394 -361 LINE",
"1348 -380 OFFCURVE",
"1281 -390 OFFCURVE",
"1217 -390 CURVE SMOOTH",
"1123 -390 OFFCURVE",
"1050 -357 OFFCURVE",
"1016 -296 CURVE SMOOTH",
"1005 -276 OFFCURVE",
"998.999 -252 OFFCURVE",
"998.999 -225 CURVE SMOOTH",
"998.999 -167 OFFCURVE",
"1033 -122 OFFCURVE",
"1066 -89 CURVE SMOOTH",
"1106 -49 OFFCURVE",
"1160 -14 OFFCURVE",
"1214 12 CURVE",
"1343 0 LINE",
"1274 -42 OFFCURVE",
"1197 -86 OFFCURVE",
"1155 -151 CURVE SMOOTH",
"1145 -167 OFFCURVE",
"1140 -183 OFFCURVE",
"1140 -199 CURVE SMOOTH"
);
}
);
width = 1425;
}
);
unicode = 0104;
},
{
glyphname = Euro;
layers = (
{
layerId = "E08CDE4C-5D6C-43D8-8149-5F9E51F0B944";
name = Bold;
paths = (
{
closed = 1;
nodes = (
"900 125 OFFCURVE",
"994.999 184 OFFCURVE",
"1084 253 CURVE",
"1083 75 LINE",
"993.999 14 OFFCURVE",
"890 -21 OFFCURVE",
"751 -21 CURVE SMOOTH",
"407 -21 OFFCURVE",
"251 209 OFFCURVE",
"213 516 CURVE",
"78 516 LINE",
"97.9999 654 LINE",
"200 654 LINE",
"198 672 OFFCURVE",
"197 694 OFFCURVE",
"197 719 CURVE SMOOTH",
"197 741 OFFCURVE",
"198 761 OFFCURVE",
"199 784 CURVE",
"75 784 LINE",
"96.9999 922 LINE",
"218 922 LINE",
"260 1153 OFFCURVE",
"376 1330 OFFCURVE",
"569 1409 CURVE SMOOTH",
"632 1435 OFFCURVE",
"704 1448 OFFCURVE",
"783 1448 CURVE SMOOTH",
"928 1448 OFFCURVE",
"1028 1404 OFFCURVE",
"1106 1330 CURVE",
"1070 1141 LINE",
"1009 1232 OFFCURVE",
"914 1303 OFFCURVE",
"776 1303 CURVE SMOOTH",
"541 1303 OFFCURVE",
"437 1116 OFFCURVE",
"395 922 CURVE",
"986.999 922 LINE",
"967 784 LINE",
"377 784 LINE",
"376 781 OFFCURVE",
"375 777 OFFCURVE",
"375 773 CURVE SMOOTH",
"375 761 LINE",
"374 742 OFFCURVE",
"375 720 OFFCURVE",
"376 702 CURVE SMOOTH",
"378 654 LINE",
"953 654 LINE",
"934 516 LINE",
"392 516 LINE",
"422 297 OFFCURVE",
"520 125 OFFCURVE",
"767 125 CURVE SMOOTH"
);
}
);
width = 1190;
}
);
unicode = 20AC;
},
{
glyphname = cacute;
layers = (
{
layerId = "E08CDE4C-5D6C-43D8-8149-5F9E51F0B944";
name = Bold;
paths = (
{
closed = 1;
nodes = (
"771 1493 LINE",
"982.999 1493 LINE",
"675 1173 LINE",
"545 1173 LINE"
);
},
{
closed = 1;
nodes = (
"988.999 117 LINE",
"864 20 OFFCURVE",
"750 -22 OFFCURVE",
"612 -22 CURVE SMOOTH",
"274 -22 OFFCURVE",
"90 222 OFFCURVE",
"90 503 CURVE SMOOTH",
"90 846 OFFCURVE",
"351 1048 OFFCURVE",
"608 1048 CURVE SMOOTH",
"752 1048 OFFCURVE",
"856 1008 OFFCURVE",
"956 912 CURVE",
"886 802 LINE",
"796 879 OFFCURVE",
"713 907 OFFCURVE",
"608 907 CURVE SMOOTH",
"437 907 OFFCURVE",
"260 762 OFFCURVE",
"260 508 CURVE SMOOTH",
"260 259 OFFCURVE",
"427 116 OFFCURVE",
"616 116 CURVE SMOOTH",
"724 116 OFFCURVE",
"817 157 OFFCURVE",
"928 238 CURVE"
);
}
);
width = 1025;
}
);
unicode = 0107;
},
{
glyphname = n.alt;
layers = (
{
layerId = "E08CDE4C-5D6C-43D8-8149-5F9E51F0B944";
name = Bold;
paths = (
{
closed = 1;
nodes = (
"881 265 LINE",
"883 572 LINE",
"883 585 LINE SMOOTH",
"883 790 OFFCURVE",
"850 911 OFFCURVE",
"639 911 CURVE SMOOTH",
"485 911 OFFCURVE",
"345 799 OFFCURVE",
"345 652 CURVE SMOOTH",
"345 0 LINE",
"180 0 LINE",
"180 699 LINE SMOOTH",
"180 784 OFFCURVE",
"160 976.999 OFFCURVE",
"154 1026 CURVE",
"321 1026 LINE",
"343 884 LINE",
"416 987.999 OFFCURVE",
"499 1051 OFFCURVE",
"667 1051 CURVE SMOOTH",
"960 1051 OFFCURVE",
"1048 867 OFFCURVE",
"1048 577 CURVE SMOOTH",
"1048 567 LINE",
"1046 270 LINE",
"1046 255 LINE SMOOTH",
"1046 142 OFFCURVE",
"1057 117 OFFCURVE",
"1132 102 CURVE",
"1096 -24 LINE",
"908 -2 OFFCURVE",
"881 62 OFFCURVE",
"881 248 CURVE SMOOTH"
);
}
);
width = 1263;
}
);
},
{
glyphname = uni0209;
layers = (
{
layerId = "E08CDE4C-5D6C-43D8-8149-5F9E51F0B944";
name = Bold;
paths = (
{
closed = 1;
nodes = (
"167 1026 LINE",
"332 1026 LINE",
"332 283 LINE SMOOTH",
"332 143 OFFCURVE",
"389 118 OFFCURVE",
"457 118 CURVE SMOOTH",
"487 118 OFFCURVE",
"545 128 OFFCURVE",
"580 141 CURVE",
"600 30 LINE",
"550 9.99999 OFFCURVE",
"481 -5 OFFCURVE",
"434 -5 CURVE SMOOTH",
"292 -5 OFFCURVE",
"167 67 OFFCURVE",
"167 278 CURVE SMOOTH"
);
},
{
closed = 1;
nodes = (
"64 1174 LINE",
"-212 1487 LINE",
"-36 1487 LINE",
"184 1174 LINE"
);
},
{
closed = 1;
nodes = (
"333 1174 LINE",
"58 1487 LINE",
"234 1487 LINE",
"451 1174 LINE"
);
}
);
width = 503;
}
);
unicode = 0209;
},
{
glyphname = uni0208;
layers = (
{
layerId = "E08CDE4C-5D6C-43D8-8149-5F9E51F0B944";
name = Bold;
paths = (
{
closed = 1;
nodes = (
"382 0 LINE",
"210 0 LINE",
"210 1456 LINE",
"382 1456 LINE"
);
},
{
closed = 1;
nodes = (
"108 1604 LINE",
"-168 1917 LINE",
"8 1917 LINE",
"228 1604 LINE"
);
},
{
closed = 1;
nodes = (
"377 1604 LINE",
"102 1917 LINE",
"278 1917 LINE",
"495 1604 LINE"
);
}
);
width = 591;
}
);
unicode = 0208;
},
{
glyphname = uni0207;
layers = (
{
layerId = "E08CDE4C-5D6C-43D8-8149-5F9E51F0B944";
name = Bold;
paths = (
{
closed = 1;
nodes = (
"736 116 OFFCURVE",
"859 176 OFFCURVE",
"926 252 CURVE",
"1009 146 LINE",
"909 43 OFFCURVE",
"757 -22 OFFCURVE",
"597 -22 CURVE SMOOTH",
"293 -22 OFFCURVE",
"90 187 OFFCURVE",
"90 516 CURVE SMOOTH",
"90 797 OFFCURVE",
"259 1048 OFFCURVE",
"588 1048 CURVE SMOOTH",
"804 1048 OFFCURVE",
"942 918 OFFCURVE",
"942 751 CURVE SMOOTH",
"942 506 OFFCURVE",
"651 425 OFFCURVE",
"285 371 CURVE",
"325 219 OFFCURVE",
"449 116 OFFCURVE",
"597 116 CURVE SMOOTH"
);
},
{
closed = 1;
nodes = (
"423 907 OFFCURVE",
"270 786 OFFCURVE",
"270 539 CURVE SMOOTH",
"270 525 OFFCURVE",
"271 506 OFFCURVE",
"273 490 CURVE",
"559 534 OFFCURVE",
"779 594 OFFCURVE",
"779 755 CURVE SMOOTH",
"779 846 OFFCURVE",
"710 907 OFFCURVE",
"589 907 CURVE SMOOTH"
);
},
{
closed = 1;
nodes = (
"280 1218 LINE",
"293 1378 OFFCURVE",
"393 1454 OFFCURVE",
"564 1454 CURVE SMOOTH",
"730 1454 OFFCURVE",
"831 1372 OFFCURVE",
"844 1218 CURVE",
"758 1218 LINE",
"738 1302 OFFCURVE",
"659 1347 OFFCURVE",
"557 1347 CURVE SMOOTH",
"455 1347 OFFCURVE",
"382 1306 OFFCURVE",
"367 1218 CURVE"
);
}
);
width = 1074;
}
);
unicode = 0207;
},
{
glyphname = uni0205;
layers = (
{
layerId = "E08CDE4C-5D6C-43D8-8149-5F9E51F0B944";
name = Bold;
paths = (
{
closed = 1;
nodes = (
"736 116 OFFCURVE",
"859 176 OFFCURVE",
"926 252 CURVE",
"1009 146 LINE",
"909 43 OFFCURVE",
"757 -22 OFFCURVE",
"597 -22 CURVE SMOOTH",
"293 -22 OFFCURVE",
"90 187 OFFCURVE",
"90 516 CURVE SMOOTH",
"90 797 OFFCURVE",
"259 1048 OFFCURVE",
"588 1048 CURVE SMOOTH",
"804 1048 OFFCURVE",
"942 918 OFFCURVE",
"942 751 CURVE SMOOTH",
"942 506 OFFCURVE",
"651 425 OFFCURVE",
"285 371 CURVE",
"325 219 OFFCURVE",
"449 116 OFFCURVE",
"597 116 CURVE SMOOTH"
);
},
{
closed = 1;
nodes = (
"423 907 OFFCURVE",
"270 786 OFFCURVE",
"270 539 CURVE SMOOTH",
"270 525 OFFCURVE",
"271 506 OFFCURVE",
"273 490 CURVE",
"559 534 OFFCURVE",
"779 594 OFFCURVE",
"779 755 CURVE SMOOTH",
"779 846 OFFCURVE",
"710 907 OFFCURVE",
"589 907 CURVE SMOOTH"
);
},
{
closed = 1;
nodes = (
"378 1174 LINE",
"102 1487 LINE",
"278 1487 LINE",
"498 1174 LINE"
);
},
{
closed = 1;
nodes = (
"647 1174 LINE",
"372 1487 LINE",
"548 1487 LINE",
"765 1174 LINE"
);
}
);
width = 1074;
}
);
unicode = 0205;
},
{
glyphname = uni0204;
layers = (
{
layerId = "E08CDE4C-5D6C-43D8-8149-5F9E51F0B944";
name = Bold;
paths = (
{
closed = 1;
nodes = (
"1117 0 LINE",
"200 0 LINE",
"200 1456 LINE",
"1067 1456 LINE",
"1067 1308 LINE",
"372 1308 LINE",
"372 820 LINE",
"1029 820 LINE",
"1029 672 LINE",
"372 672 LINE",
"372 148 LINE",
"1117 148 LINE"
);
},
{
closed = 1;
nodes = (
"481 1604 LINE",
"205 1917 LINE",
"381 1917 LINE",
"601 1604 LINE"
);
},
{
closed = 1;
nodes = (
"750 1604 LINE",
"475 1917 LINE",
"651 1917 LINE",
"868 1604 LINE"
);
}
);
width = 1213;
}
);
unicode = 0204;
},
{
glyphname = uni0203;
layers = (
{
layerId = "E08CDE4C-5D6C-43D8-8149-5F9E51F0B944";
name = Bold;
paths = (
{
closed = 1;
nodes = (
"1022 286 LINE SMOOTH",
"1022 170 OFFCURVE",
"1095 139 OFFCURVE",
"1147 139 CURVE",
"1113 -4 LINE",
"1026 -4 OFFCURVE",
"908 46 OFFCURVE",
"881 166 CURVE",
"788 13 OFFCURVE",
"641 -22 OFFCURVE",
"519 -22 CURVE SMOOTH",
"278 -22 OFFCURVE",
"114 161 OFFCURVE",
"114 438 CURVE SMOOTH",
"114 806 OFFCURVE",
"339 1048 OFFCURVE",
"671 1048 CURVE SMOOTH",
"795 1048 OFFCURVE",
"918 1024 OFFCURVE",
"1022 962 CURVE"
);
},
{
closed = 1;
nodes = (
"858 872 LINE",
"803 899 OFFCURVE",
"724 907 OFFCURVE",
"668 907 CURVE SMOOTH",
"438 907 OFFCURVE",
"284 725 OFFCURVE",
"284 448 CURVE SMOOTH",
"284 249 OFFCURVE",
"388 116 OFFCURVE",
"544 116 CURVE SMOOTH",
"702 116 OFFCURVE",
"858 226 OFFCURVE",
"858 403 CURVE SMOOTH"
);
},
{
closed = 1;
nodes = (
"357 1218 LINE",
"370 1378 OFFCURVE",
"470 1454 OFFCURVE",
"641 1454 CURVE SMOOTH",
"807 1454 OFFCURVE",
"908 1372 OFFCURVE",
"921 1218 CURVE",
"835 1218 LINE",
"815 1302 OFFCURVE",
"736 1347 OFFCURVE",
"634 1347 CURVE SMOOTH",
"532 1347 OFFCURVE",
"459 1306 OFFCURVE",
"444 1218 CURVE"
);
}
);
width = 1218;
}
);
unicode = 0203;
},
{
glyphname = uni0202;
layers = (
{
layerId = "E08CDE4C-5D6C-43D8-8149-5F9E51F0B944";
name = Bold;
paths = (
{
closed = 1;
nodes = (
"199 0 LINE",
"13 0 LINE",
"617 1456 LINE",
"802 1456 LINE",
"1407 0 LINE",
"1216 0 LINE",
"1053 397 LINE",
"355 397 LINE"
);
},
{
closed = 1;
nodes = (
"410 545 LINE",
"993.999 545 LINE",
"760 1150 LINE",
"742 1192 OFFCURVE",
"721 1252 OFFCURVE",
"707 1298 CURVE",
"692 1252 OFFCURVE",
"670 1191 OFFCURVE",
"655 1149 CURVE"
);
},
{
closed = 1;
nodes = (
"427 1648 LINE",
"440 1808 OFFCURVE",
"540 1884 OFFCURVE",
"711 1884 CURVE SMOOTH",
"877 1884 OFFCURVE",
"977.999 1802 OFFCURVE",
"990.999 1648 CURVE",
"905 1648 LINE",
"885 1732 OFFCURVE",
"806 1777 OFFCURVE",
"704 1777 CURVE SMOOTH",
"602 1777 OFFCURVE",
"529 1736 OFFCURVE",
"514 1648 CURVE"
);
}
);
width = 1425;
}
);
unicode = 0202;
},
